<?xml version="1.0" encoding="utf-8" standalone="no"?>
<!DOCTYPE svg PUBLIC "-//W3C//DTD SVG 1.1//EN"
  "http://www.w3.org/Graphics/SVG/1.1/DTD/svg11.dtd">
<!-- Created with matplotlib (https://matplotlib.org/) -->
<svg height="360pt" version="1.1" viewBox="0 0 720 360" width="720pt" xmlns="http://www.w3.org/2000/svg" xmlns:xlink="http://www.w3.org/1999/xlink">
 <metadata>
  <rdf:RDF xmlns:cc="http://creativecommons.org/ns#" xmlns:dc="http://purl.org/dc/elements/1.1/" xmlns:rdf="http://www.w3.org/1999/02/22-rdf-syntax-ns#">
   <cc:Work>
    <dc:type rdf:resource="http://purl.org/dc/dcmitype/StillImage"/>
    <dc:date>2021-01-22T12:10:33.568765</dc:date>
    <dc:format>image/svg+xml</dc:format>
    <dc:creator>
     <cc:Agent>
      <dc:title>Matplotlib v3.3.0, https://matplotlib.org/</dc:title>
     </cc:Agent>
    </dc:creator>
   </cc:Work>
  </rdf:RDF>
 </metadata>
 <defs>
  <style type="text/css">*{stroke-linecap:butt;stroke-linejoin:round;}</style>
 </defs>
 <g id="figure_1">
  <g id="patch_1">
   <path d="M 0 360 
L 720 360 
L 720 0 
L 0 0 
z
" style="fill:#ffffff;"/>
  </g>
  <g id="axes_1">
   <g id="patch_2">
    <path d="M 47.675 320.2 
L 709.2 320.2 
L 709.2 10.8 
L 47.675 10.8 
z
" style="fill:#eaeaf2;"/>
   </g>
   <g id="matplotlib.axis_1">
    <g id="xtick_1">
     <g id="text_1">
      <!-- US-France -->
      <g style="fill:#262626;" transform="translate(56.580156 334.357813)scale(0.1 -0.1)">
       <defs>
        <path d="M 54.6875 71.578125 
L 64.15625 71.578125 
L 64.15625 30.21875 
Q 64.15625 19.4375 61.71875 13.078125 
Q 59.28125 6.734375 52.90625 2.75 
Q 46.53125 -1.21875 36.1875 -1.21875 
Q 26.125 -1.21875 19.71875 2.25 
Q 13.328125 5.71875 10.59375 12.28125 
Q 7.859375 18.84375 7.859375 30.21875 
L 7.859375 71.578125 
L 17.328125 71.578125 
L 17.328125 30.28125 
Q 17.328125 20.953125 19.0625 16.53125 
Q 20.796875 12.109375 25.015625 9.71875 
Q 29.25 7.328125 35.359375 7.328125 
Q 45.796875 7.328125 50.234375 12.0625 
Q 54.6875 16.796875 54.6875 30.28125 
z
" id="ArialMT-85"/>
        <path d="M 4.5 23 
L 13.421875 23.78125 
Q 14.0625 18.40625 16.375 14.96875 
Q 18.703125 11.53125 23.578125 9.40625 
Q 28.46875 7.28125 34.578125 7.28125 
Q 39.984375 7.28125 44.140625 8.890625 
Q 48.296875 10.5 50.3125 13.296875 
Q 52.34375 16.109375 52.34375 19.4375 
Q 52.34375 22.796875 50.390625 25.3125 
Q 48.4375 27.828125 43.953125 29.546875 
Q 41.0625 30.671875 31.203125 33.03125 
Q 21.34375 35.40625 17.390625 37.5 
Q 12.25 40.1875 9.734375 44.15625 
Q 7.234375 48.140625 7.234375 53.078125 
Q 7.234375 58.5 10.296875 63.203125 
Q 13.375 67.921875 19.28125 70.359375 
Q 25.203125 72.796875 32.421875 72.796875 
Q 40.375 72.796875 46.453125 70.234375 
Q 52.546875 67.671875 55.8125 62.6875 
Q 59.078125 57.71875 59.328125 51.421875 
L 50.25 50.734375 
Q 49.515625 57.515625 45.28125 60.984375 
Q 41.0625 64.453125 32.8125 64.453125 
Q 24.21875 64.453125 20.28125 61.296875 
Q 16.359375 58.15625 16.359375 53.71875 
Q 16.359375 49.859375 19.140625 47.359375 
Q 21.875 44.875 33.421875 42.265625 
Q 44.96875 39.65625 49.265625 37.703125 
Q 55.515625 34.8125 58.484375 30.390625 
Q 61.46875 25.984375 61.46875 20.21875 
Q 61.46875 14.5 58.203125 9.4375 
Q 54.9375 4.390625 48.796875 1.578125 
Q 42.671875 -1.21875 35.015625 -1.21875 
Q 25.296875 -1.21875 18.71875 1.609375 
Q 12.15625 4.4375 8.421875 10.125 
Q 4.6875 15.828125 4.5 23 
z
" id="ArialMT-83"/>
        <path d="M 3.171875 21.484375 
L 3.171875 30.328125 
L 30.171875 30.328125 
L 30.171875 21.484375 
z
" id="ArialMT-45"/>
        <path d="M 8.203125 0 
L 8.203125 71.578125 
L 56.5 71.578125 
L 56.5 63.140625 
L 17.671875 63.140625 
L 17.671875 40.96875 
L 51.265625 40.96875 
L 51.265625 32.515625 
L 17.671875 32.515625 
L 17.671875 0 
z
" id="ArialMT-70"/>
        <path d="M 6.5 0 
L 6.5 51.859375 
L 14.40625 51.859375 
L 14.40625 44 
Q 17.4375 49.515625 20 51.265625 
Q 22.5625 53.03125 25.640625 53.03125 
Q 30.078125 53.03125 34.671875 50.203125 
L 31.640625 42.046875 
Q 28.421875 43.953125 25.203125 43.953125 
Q 22.3125 43.953125 20.015625 42.21875 
Q 17.71875 40.484375 16.75 37.40625 
Q 15.28125 32.71875 15.28125 27.15625 
L 15.28125 0 
z
" id="ArialMT-114"/>
        <path d="M 40.4375 6.390625 
Q 35.546875 2.25 31.03125 0.53125 
Q 26.515625 -1.171875 21.34375 -1.171875 
Q 12.796875 -1.171875 8.203125 3 
Q 3.609375 7.171875 3.609375 13.671875 
Q 3.609375 17.484375 5.34375 20.625 
Q 7.078125 23.78125 9.890625 25.6875 
Q 12.703125 27.59375 16.21875 28.5625 
Q 18.796875 29.25 24.03125 29.890625 
Q 34.671875 31.15625 39.703125 32.90625 
Q 39.75 34.71875 39.75 35.203125 
Q 39.75 40.578125 37.25 42.78125 
Q 33.890625 45.75 27.25 45.75 
Q 21.046875 45.75 18.09375 43.578125 
Q 15.140625 41.40625 13.71875 35.890625 
L 5.125 37.0625 
Q 6.296875 42.578125 8.984375 45.96875 
Q 11.671875 49.359375 16.75 51.1875 
Q 21.828125 53.03125 28.515625 53.03125 
Q 35.15625 53.03125 39.296875 51.46875 
Q 43.453125 49.90625 45.40625 47.53125 
Q 47.359375 45.171875 48.140625 41.546875 
Q 48.578125 39.3125 48.578125 33.453125 
L 48.578125 21.734375 
Q 48.578125 9.46875 49.140625 6.21875 
Q 49.703125 2.984375 51.375 0 
L 42.1875 0 
Q 40.828125 2.734375 40.4375 6.390625 
z
M 39.703125 26.03125 
Q 34.90625 24.078125 25.34375 22.703125 
Q 19.921875 21.921875 17.671875 20.9375 
Q 15.4375 19.96875 14.203125 18.09375 
Q 12.984375 16.21875 12.984375 13.921875 
Q 12.984375 10.40625 15.640625 8.0625 
Q 18.3125 5.71875 23.4375 5.71875 
Q 28.515625 5.71875 32.46875 7.9375 
Q 36.421875 10.15625 38.28125 14.015625 
Q 39.703125 17 39.703125 22.796875 
z
" id="ArialMT-97"/>
        <path d="M 6.59375 0 
L 6.59375 51.859375 
L 14.5 51.859375 
L 14.5 44.484375 
Q 20.21875 53.03125 31 53.03125 
Q 35.6875 53.03125 39.625 51.34375 
Q 43.5625 49.65625 45.515625 46.921875 
Q 47.46875 44.1875 48.25 40.4375 
Q 48.734375 37.984375 48.734375 31.890625 
L 48.734375 0 
L 39.9375 0 
L 39.9375 31.546875 
Q 39.9375 36.921875 38.90625 39.578125 
Q 37.890625 42.234375 35.28125 43.8125 
Q 32.671875 45.40625 29.15625 45.40625 
Q 23.53125 45.40625 19.453125 41.84375 
Q 15.375 38.28125 15.375 28.328125 
L 15.375 0 
z
" id="ArialMT-110"/>
        <path d="M 40.4375 19 
L 49.078125 17.875 
Q 47.65625 8.9375 41.8125 3.875 
Q 35.984375 -1.171875 27.484375 -1.171875 
Q 16.84375 -1.171875 10.375 5.78125 
Q 3.90625 12.75 3.90625 25.734375 
Q 3.90625 34.125 6.6875 40.421875 
Q 9.46875 46.734375 15.15625 49.875 
Q 20.84375 53.03125 27.546875 53.03125 
Q 35.984375 53.03125 41.359375 48.75 
Q 46.734375 44.484375 48.25 36.625 
L 39.703125 35.296875 
Q 38.484375 40.53125 35.375 43.15625 
Q 32.28125 45.796875 27.875 45.796875 
Q 21.234375 45.796875 17.078125 41.03125 
Q 12.9375 36.28125 12.9375 25.984375 
Q 12.9375 15.53125 16.9375 10.796875 
Q 20.953125 6.0625 27.390625 6.0625 
Q 32.5625 6.0625 36.03125 9.234375 
Q 39.5 12.40625 40.4375 19 
z
" id="ArialMT-99"/>
        <path d="M 42.09375 16.703125 
L 51.171875 15.578125 
Q 49.03125 7.625 43.21875 3.21875 
Q 37.40625 -1.171875 28.375 -1.171875 
Q 17 -1.171875 10.328125 5.828125 
Q 3.65625 12.84375 3.65625 25.484375 
Q 3.65625 38.578125 10.390625 45.796875 
Q 17.140625 53.03125 27.875 53.03125 
Q 38.28125 53.03125 44.875 45.953125 
Q 51.46875 38.875 51.46875 26.03125 
Q 51.46875 25.25 51.421875 23.6875 
L 12.75 23.6875 
Q 13.234375 15.140625 17.578125 10.59375 
Q 21.921875 6.0625 28.421875 6.0625 
Q 33.25 6.0625 36.671875 8.59375 
Q 40.09375 11.140625 42.09375 16.703125 
z
M 13.234375 30.90625 
L 42.1875 30.90625 
Q 41.609375 37.453125 38.875 40.71875 
Q 34.671875 45.796875 27.984375 45.796875 
Q 21.921875 45.796875 17.796875 41.75 
Q 13.671875 37.703125 13.234375 30.90625 
z
" id="ArialMT-101"/>
       </defs>
       <use xlink:href="#ArialMT-85"/>
       <use x="72.216797" xlink:href="#ArialMT-83"/>
       <use x="138.916016" xlink:href="#ArialMT-45"/>
       <use x="172.216797" xlink:href="#ArialMT-70"/>
       <use x="233.300781" xlink:href="#ArialMT-114"/>
       <use x="266.601562" xlink:href="#ArialMT-97"/>
       <use x="322.216797" xlink:href="#ArialMT-110"/>
       <use x="377.832031" xlink:href="#ArialMT-99"/>
       <use x="427.832031" xlink:href="#ArialMT-101"/>
      </g>
     </g>
    </g>
    <g id="xtick_2">
     <g id="text_2">
      <!-- England -->
      <g style="fill:#262626;" transform="translate(128.555313 334.357813)scale(0.1 -0.1)">
       <defs>
        <path d="M 7.90625 0 
L 7.90625 71.578125 
L 59.671875 71.578125 
L 59.671875 63.140625 
L 17.390625 63.140625 
L 17.390625 41.21875 
L 56.984375 41.21875 
L 56.984375 32.8125 
L 17.390625 32.8125 
L 17.390625 8.453125 
L 61.328125 8.453125 
L 61.328125 0 
z
" id="ArialMT-69"/>
        <path d="M 4.984375 -4.296875 
L 13.53125 -5.5625 
Q 14.0625 -9.515625 16.5 -11.328125 
Q 19.78125 -13.765625 25.4375 -13.765625 
Q 31.546875 -13.765625 34.859375 -11.328125 
Q 38.1875 -8.890625 39.359375 -4.5 
Q 40.046875 -1.8125 39.984375 6.78125 
Q 34.234375 0 25.640625 0 
Q 14.9375 0 9.078125 7.71875 
Q 3.21875 15.4375 3.21875 26.21875 
Q 3.21875 33.640625 5.90625 39.90625 
Q 8.59375 46.1875 13.6875 49.609375 
Q 18.796875 53.03125 25.6875 53.03125 
Q 34.859375 53.03125 40.828125 45.609375 
L 40.828125 51.859375 
L 48.921875 51.859375 
L 48.921875 7.03125 
Q 48.921875 -5.078125 46.453125 -10.125 
Q 44 -15.1875 38.640625 -18.109375 
Q 33.296875 -21.046875 25.484375 -21.046875 
Q 16.21875 -21.046875 10.5 -16.875 
Q 4.78125 -12.703125 4.984375 -4.296875 
z
M 12.25 26.859375 
Q 12.25 16.65625 16.296875 11.96875 
Q 20.359375 7.28125 26.46875 7.28125 
Q 32.515625 7.28125 36.609375 11.9375 
Q 40.71875 16.609375 40.71875 26.5625 
Q 40.71875 36.078125 36.5 40.90625 
Q 32.28125 45.75 26.3125 45.75 
Q 20.453125 45.75 16.34375 40.984375 
Q 12.25 36.234375 12.25 26.859375 
z
" id="ArialMT-103"/>
        <path d="M 6.390625 0 
L 6.390625 71.578125 
L 15.1875 71.578125 
L 15.1875 0 
z
" id="ArialMT-108"/>
        <path d="M 40.234375 0 
L 40.234375 6.546875 
Q 35.296875 -1.171875 25.734375 -1.171875 
Q 19.53125 -1.171875 14.328125 2.25 
Q 9.125 5.671875 6.265625 11.796875 
Q 3.421875 17.921875 3.421875 25.875 
Q 3.421875 33.640625 6 39.96875 
Q 8.59375 46.296875 13.765625 49.65625 
Q 18.953125 53.03125 25.34375 53.03125 
Q 30.03125 53.03125 33.6875 51.046875 
Q 37.359375 49.078125 39.65625 45.90625 
L 39.65625 71.578125 
L 48.390625 71.578125 
L 48.390625 0 
z
M 12.453125 25.875 
Q 12.453125 15.921875 16.640625 10.984375 
Q 20.84375 6.0625 26.5625 6.0625 
Q 32.328125 6.0625 36.34375 10.765625 
Q 40.375 15.484375 40.375 25.140625 
Q 40.375 35.796875 36.265625 40.765625 
Q 32.171875 45.75 26.171875 45.75 
Q 20.3125 45.75 16.375 40.96875 
Q 12.453125 36.1875 12.453125 25.875 
z
" id="ArialMT-100"/>
       </defs>
       <use xlink:href="#ArialMT-69"/>
       <use x="66.699219" xlink:href="#ArialMT-110"/>
       <use x="122.314453" xlink:href="#ArialMT-103"/>
       <use x="177.929688" xlink:href="#ArialMT-108"/>
       <use x="200.146484" xlink:href="#ArialMT-97"/>
       <use x="255.761719" xlink:href="#ArialMT-110"/>
       <use x="311.376953" xlink:href="#ArialMT-100"/>
      </g>
     </g>
    </g>
    <g id="xtick_3">
     <g id="text_3">
      <!-- Luxembourg -->
      <g style="fill:#262626;" transform="translate(185.263281 334.357813)scale(0.1 -0.1)">
       <defs>
        <path d="M 7.328125 0 
L 7.328125 71.578125 
L 16.796875 71.578125 
L 16.796875 8.453125 
L 52.046875 8.453125 
L 52.046875 0 
z
" id="ArialMT-76"/>
        <path d="M 40.578125 0 
L 40.578125 7.625 
Q 34.515625 -1.171875 24.125 -1.171875 
Q 19.53125 -1.171875 15.546875 0.578125 
Q 11.578125 2.34375 9.640625 5 
Q 7.71875 7.671875 6.9375 11.53125 
Q 6.390625 14.109375 6.390625 19.734375 
L 6.390625 51.859375 
L 15.1875 51.859375 
L 15.1875 23.09375 
Q 15.1875 16.21875 15.71875 13.8125 
Q 16.546875 10.359375 19.234375 8.375 
Q 21.921875 6.390625 25.875 6.390625 
Q 29.828125 6.390625 33.296875 8.421875 
Q 36.765625 10.453125 38.203125 13.9375 
Q 39.65625 17.4375 39.65625 24.078125 
L 39.65625 51.859375 
L 48.4375 51.859375 
L 48.4375 0 
z
" id="ArialMT-117"/>
        <path d="M 0.734375 0 
L 19.671875 26.953125 
L 2.15625 51.859375 
L 13.140625 51.859375 
L 21.09375 39.703125 
Q 23.34375 36.234375 24.703125 33.890625 
Q 26.859375 37.109375 28.65625 39.59375 
L 37.40625 51.859375 
L 47.90625 51.859375 
L 29.984375 27.4375 
L 49.265625 0 
L 38.484375 0 
L 27.828125 16.109375 
L 25 20.453125 
L 11.375 0 
z
" id="ArialMT-120"/>
        <path d="M 6.59375 0 
L 6.59375 51.859375 
L 14.453125 51.859375 
L 14.453125 44.578125 
Q 16.890625 48.390625 20.9375 50.703125 
Q 25 53.03125 30.171875 53.03125 
Q 35.9375 53.03125 39.625 50.640625 
Q 43.3125 48.25 44.828125 43.953125 
Q 50.984375 53.03125 60.84375 53.03125 
Q 68.5625 53.03125 72.703125 48.75 
Q 76.859375 44.484375 76.859375 35.59375 
L 76.859375 0 
L 68.109375 0 
L 68.109375 32.671875 
Q 68.109375 37.9375 67.25 40.25 
Q 66.40625 42.578125 64.15625 43.984375 
Q 61.921875 45.40625 58.890625 45.40625 
Q 53.421875 45.40625 49.796875 41.765625 
Q 46.1875 38.140625 46.1875 30.125 
L 46.1875 0 
L 37.40625 0 
L 37.40625 33.6875 
Q 37.40625 39.546875 35.25 42.46875 
Q 33.109375 45.40625 28.21875 45.40625 
Q 24.515625 45.40625 21.359375 43.453125 
Q 18.21875 41.5 16.796875 37.734375 
Q 15.375 33.984375 15.375 26.90625 
L 15.375 0 
z
" id="ArialMT-109"/>
        <path d="M 14.703125 0 
L 6.546875 0 
L 6.546875 71.578125 
L 15.328125 71.578125 
L 15.328125 46.046875 
Q 20.90625 53.03125 29.546875 53.03125 
Q 34.328125 53.03125 38.59375 51.09375 
Q 42.875 49.171875 45.625 45.671875 
Q 48.390625 42.1875 49.953125 37.25 
Q 51.515625 32.328125 51.515625 26.703125 
Q 51.515625 13.375 44.921875 6.09375 
Q 38.328125 -1.171875 29.109375 -1.171875 
Q 19.921875 -1.171875 14.703125 6.5 
z
M 14.59375 26.3125 
Q 14.59375 17 17.140625 12.84375 
Q 21.296875 6.0625 28.375 6.0625 
Q 34.125 6.0625 38.328125 11.0625 
Q 42.53125 16.0625 42.53125 25.984375 
Q 42.53125 36.140625 38.5 40.96875 
Q 34.46875 45.796875 28.765625 45.796875 
Q 23 45.796875 18.796875 40.796875 
Q 14.59375 35.796875 14.59375 26.3125 
z
" id="ArialMT-98"/>
        <path d="M 3.328125 25.921875 
Q 3.328125 40.328125 11.328125 47.265625 
Q 18.015625 53.03125 27.640625 53.03125 
Q 38.328125 53.03125 45.109375 46.015625 
Q 51.90625 39.015625 51.90625 26.65625 
Q 51.90625 16.65625 48.90625 10.90625 
Q 45.90625 5.171875 40.15625 2 
Q 34.421875 -1.171875 27.640625 -1.171875 
Q 16.75 -1.171875 10.03125 5.8125 
Q 3.328125 12.796875 3.328125 25.921875 
z
M 12.359375 25.921875 
Q 12.359375 15.96875 16.703125 11.015625 
Q 21.046875 6.0625 27.640625 6.0625 
Q 34.1875 6.0625 38.53125 11.03125 
Q 42.875 16.015625 42.875 26.21875 
Q 42.875 35.84375 38.5 40.796875 
Q 34.125 45.75 27.640625 45.75 
Q 21.046875 45.75 16.703125 40.8125 
Q 12.359375 35.890625 12.359375 25.921875 
z
" id="ArialMT-111"/>
       </defs>
       <use xlink:href="#ArialMT-76"/>
       <use x="55.615234" xlink:href="#ArialMT-117"/>
       <use x="111.230469" xlink:href="#ArialMT-120"/>
       <use x="161.230469" xlink:href="#ArialMT-101"/>
       <use x="216.845703" xlink:href="#ArialMT-109"/>
       <use x="300.146484" xlink:href="#ArialMT-98"/>
       <use x="355.761719" xlink:href="#ArialMT-111"/>
       <use x="411.376953" xlink:href="#ArialMT-117"/>
       <use x="466.992188" xlink:href="#ArialMT-114"/>
       <use x="500.292969" xlink:href="#ArialMT-103"/>
      </g>
     </g>
    </g>
    <g id="xtick_4">
     <g id="text_4">
      <!-- US -->
      <g style="fill:#262626;" transform="translate(272.262656 334.357813)scale(0.1 -0.1)">
       <use xlink:href="#ArialMT-85"/>
       <use x="72.216797" xlink:href="#ArialMT-83"/>
      </g>
     </g>
    </g>
    <g id="xtick_5">
     <g id="text_5">
      <!-- China -->
      <g style="fill:#262626;" transform="translate(332.297969 334.357813)scale(0.1 -0.1)">
       <defs>
        <path d="M 58.796875 25.09375 
L 68.265625 22.703125 
Q 65.28125 11.03125 57.546875 4.90625 
Q 49.8125 -1.21875 38.625 -1.21875 
Q 27.046875 -1.21875 19.796875 3.484375 
Q 12.546875 8.203125 8.765625 17.140625 
Q 4.984375 26.078125 4.984375 36.328125 
Q 4.984375 47.515625 9.25 55.828125 
Q 13.53125 64.15625 21.40625 68.46875 
Q 29.296875 72.796875 38.765625 72.796875 
Q 49.515625 72.796875 56.828125 67.328125 
Q 64.15625 61.859375 67.046875 51.953125 
L 57.71875 49.75 
Q 55.21875 57.5625 50.484375 61.125 
Q 45.75 64.703125 38.578125 64.703125 
Q 30.328125 64.703125 24.78125 60.734375 
Q 19.234375 56.78125 16.984375 50.109375 
Q 14.75 43.453125 14.75 36.375 
Q 14.75 27.25 17.40625 20.4375 
Q 20.0625 13.625 25.671875 10.25 
Q 31.296875 6.890625 37.84375 6.890625 
Q 45.796875 6.890625 51.3125 11.46875 
Q 56.84375 16.0625 58.796875 25.09375 
z
" id="ArialMT-67"/>
        <path d="M 6.59375 0 
L 6.59375 71.578125 
L 15.375 71.578125 
L 15.375 45.90625 
Q 21.53125 53.03125 30.90625 53.03125 
Q 36.671875 53.03125 40.921875 50.75 
Q 45.171875 48.484375 47 44.484375 
Q 48.828125 40.484375 48.828125 32.859375 
L 48.828125 0 
L 40.046875 0 
L 40.046875 32.859375 
Q 40.046875 39.453125 37.1875 42.453125 
Q 34.328125 45.453125 29.109375 45.453125 
Q 25.203125 45.453125 21.75 43.421875 
Q 18.3125 41.40625 16.84375 37.9375 
Q 15.375 34.46875 15.375 28.375 
L 15.375 0 
z
" id="ArialMT-104"/>
        <path d="M 6.640625 61.46875 
L 6.640625 71.578125 
L 15.4375 71.578125 
L 15.4375 61.46875 
z
M 6.640625 0 
L 6.640625 51.859375 
L 15.4375 51.859375 
L 15.4375 0 
z
" id="ArialMT-105"/>
       </defs>
       <use xlink:href="#ArialMT-67"/>
       <use x="72.216797" xlink:href="#ArialMT-104"/>
       <use x="127.832031" xlink:href="#ArialMT-105"/>
       <use x="150.048828" xlink:href="#ArialMT-110"/>
       <use x="205.664062" xlink:href="#ArialMT-97"/>
      </g>
     </g>
    </g>
    <g id="xtick_6">
     <g id="text_6">
      <!-- Hungary -->
      <g style="fill:#262626;" transform="translate(392.616094 334.357813)scale(0.1 -0.1)">
       <defs>
        <path d="M 8.015625 0 
L 8.015625 71.578125 
L 17.484375 71.578125 
L 17.484375 42.1875 
L 54.6875 42.1875 
L 54.6875 71.578125 
L 64.15625 71.578125 
L 64.15625 0 
L 54.6875 0 
L 54.6875 33.734375 
L 17.484375 33.734375 
L 17.484375 0 
z
" id="ArialMT-72"/>
        <path d="M 6.203125 -19.96875 
L 5.21875 -11.71875 
Q 8.109375 -12.5 10.25 -12.5 
Q 13.1875 -12.5 14.9375 -11.515625 
Q 16.703125 -10.546875 17.828125 -8.796875 
Q 18.65625 -7.46875 20.515625 -2.25 
Q 20.75 -1.515625 21.296875 -0.09375 
L 1.609375 51.859375 
L 11.078125 51.859375 
L 21.875 21.828125 
Q 23.96875 16.109375 25.640625 9.8125 
Q 27.15625 15.875 29.25 21.625 
L 40.328125 51.859375 
L 49.125 51.859375 
L 29.390625 -0.875 
Q 26.21875 -9.421875 24.46875 -12.640625 
Q 22.125 -17 19.09375 -19.015625 
Q 16.0625 -21.046875 11.859375 -21.046875 
Q 9.328125 -21.046875 6.203125 -19.96875 
z
" id="ArialMT-121"/>
       </defs>
       <use xlink:href="#ArialMT-72"/>
       <use x="72.216797" xlink:href="#ArialMT-117"/>
       <use x="127.832031" xlink:href="#ArialMT-110"/>
       <use x="183.447266" xlink:href="#ArialMT-103"/>
       <use x="239.0625" xlink:href="#ArialMT-97"/>
       <use x="294.677734" xlink:href="#ArialMT-114"/>
       <use x="327.978516" xlink:href="#ArialMT-121"/>
      </g>
     </g>
    </g>
    <g id="xtick_7">
     <g id="text_7">
      <!-- France -->
      <g style="fill:#262626;" transform="translate(462.106094 334.357813)scale(0.1 -0.1)">
       <use xlink:href="#ArialMT-70"/>
       <use x="61.083984" xlink:href="#ArialMT-114"/>
       <use x="94.384766" xlink:href="#ArialMT-97"/>
       <use x="150" xlink:href="#ArialMT-110"/>
       <use x="205.615234" xlink:href="#ArialMT-99"/>
       <use x="255.615234" xlink:href="#ArialMT-101"/>
      </g>
     </g>
    </g>
    <g id="xtick_8">
     <g id="text_8">
      <!-- Slovenia -->
      <g style="fill:#262626;" transform="translate(524.639844 334.357813)scale(0.1 -0.1)">
       <defs>
        <path d="M 21 0 
L 1.265625 51.859375 
L 10.546875 51.859375 
L 21.6875 20.796875 
Q 23.484375 15.765625 25 10.359375 
Q 26.171875 14.453125 28.265625 20.21875 
L 39.796875 51.859375 
L 48.828125 51.859375 
L 29.203125 0 
z
" id="ArialMT-118"/>
       </defs>
       <use xlink:href="#ArialMT-83"/>
       <use x="66.699219" xlink:href="#ArialMT-108"/>
       <use x="88.916016" xlink:href="#ArialMT-111"/>
       <use x="144.53125" xlink:href="#ArialMT-118"/>
       <use x="194.53125" xlink:href="#ArialMT-101"/>
       <use x="250.146484" xlink:href="#ArialMT-110"/>
       <use x="305.761719" xlink:href="#ArialMT-105"/>
       <use x="327.978516" xlink:href="#ArialMT-97"/>
      </g>
     </g>
    </g>
    <g id="xtick_9">
     <g id="text_9">
      <!-- Austria -->
      <g style="fill:#262626;" transform="translate(594.410313 334.357813)scale(0.1 -0.1)">
       <defs>
        <path d="M -0.140625 0 
L 27.34375 71.578125 
L 37.546875 71.578125 
L 66.84375 0 
L 56.0625 0 
L 47.703125 21.6875 
L 17.78125 21.6875 
L 9.90625 0 
z
M 20.515625 29.390625 
L 44.78125 29.390625 
L 37.3125 49.21875 
Q 33.890625 58.25 32.234375 64.0625 
Q 30.859375 57.171875 28.375 50.390625 
z
" id="ArialMT-65"/>
        <path d="M 3.078125 15.484375 
L 11.765625 16.84375 
Q 12.5 11.625 15.84375 8.84375 
Q 19.1875 6.0625 25.203125 6.0625 
Q 31.25 6.0625 34.171875 8.515625 
Q 37.109375 10.984375 37.109375 14.3125 
Q 37.109375 17.28125 34.515625 19 
Q 32.71875 20.171875 25.53125 21.96875 
Q 15.875 24.421875 12.140625 26.203125 
Q 8.40625 27.984375 6.46875 31.125 
Q 4.546875 34.28125 4.546875 38.09375 
Q 4.546875 41.546875 6.125 44.5 
Q 7.71875 47.46875 10.453125 49.421875 
Q 12.5 50.921875 16.03125 51.96875 
Q 19.578125 53.03125 23.640625 53.03125 
Q 29.734375 53.03125 34.34375 51.265625 
Q 38.96875 49.515625 41.15625 46.5 
Q 43.359375 43.5 44.1875 38.484375 
L 35.59375 37.3125 
Q 35.015625 41.3125 32.203125 43.546875 
Q 29.390625 45.796875 24.265625 45.796875 
Q 18.21875 45.796875 15.625 43.796875 
Q 13.03125 41.796875 13.03125 39.109375 
Q 13.03125 37.40625 14.109375 36.03125 
Q 15.1875 34.625 17.484375 33.6875 
Q 18.796875 33.203125 25.25 31.453125 
Q 34.578125 28.953125 38.25 27.359375 
Q 41.9375 25.78125 44.03125 22.75 
Q 46.140625 19.734375 46.140625 15.234375 
Q 46.140625 10.84375 43.578125 6.953125 
Q 41.015625 3.078125 36.171875 0.953125 
Q 31.34375 -1.171875 25.25 -1.171875 
Q 15.140625 -1.171875 9.84375 3.03125 
Q 4.546875 7.234375 3.078125 15.484375 
z
" id="ArialMT-115"/>
        <path d="M 25.78125 7.859375 
L 27.046875 0.09375 
Q 23.34375 -0.6875 20.40625 -0.6875 
Q 15.625 -0.6875 12.984375 0.828125 
Q 10.359375 2.34375 9.28125 4.8125 
Q 8.203125 7.28125 8.203125 15.1875 
L 8.203125 45.015625 
L 1.765625 45.015625 
L 1.765625 51.859375 
L 8.203125 51.859375 
L 8.203125 64.703125 
L 16.9375 69.96875 
L 16.9375 51.859375 
L 25.78125 51.859375 
L 25.78125 45.015625 
L 16.9375 45.015625 
L 16.9375 14.703125 
Q 16.9375 10.9375 17.40625 9.859375 
Q 17.875 8.796875 18.921875 8.15625 
Q 19.96875 7.515625 21.921875 7.515625 
Q 23.390625 7.515625 25.78125 7.859375 
z
" id="ArialMT-116"/>
       </defs>
       <use xlink:href="#ArialMT-65"/>
       <use x="66.699219" xlink:href="#ArialMT-117"/>
       <use x="122.314453" xlink:href="#ArialMT-115"/>
       <use x="172.314453" xlink:href="#ArialMT-116"/>
       <use x="200.097656" xlink:href="#ArialMT-114"/>
       <use x="233.398438" xlink:href="#ArialMT-105"/>
       <use x="255.615234" xlink:href="#ArialMT-97"/>
      </g>
     </g>
    </g>
    <g id="xtick_10">
     <g id="text_10">
      <!-- Switzerland -->
      <g style="fill:#262626;" transform="translate(650.28 334.357813)scale(0.1 -0.1)">
       <defs>
        <path d="M 16.15625 0 
L 0.296875 51.859375 
L 9.375 51.859375 
L 17.625 21.921875 
L 20.703125 10.796875 
Q 20.90625 11.625 23.390625 21.484375 
L 31.640625 51.859375 
L 40.671875 51.859375 
L 48.4375 21.78125 
L 51.03125 11.859375 
L 54 21.875 
L 62.890625 51.859375 
L 71.4375 51.859375 
L 55.21875 0 
L 46.09375 0 
L 37.84375 31.0625 
L 35.84375 39.890625 
L 25.34375 0 
z
" id="ArialMT-119"/>
        <path d="M 1.953125 0 
L 1.953125 7.125 
L 34.96875 45.015625 
Q 29.34375 44.734375 25.046875 44.734375 
L 3.90625 44.734375 
L 3.90625 51.859375 
L 46.296875 51.859375 
L 46.296875 46.046875 
L 18.21875 13.140625 
L 12.796875 7.125 
Q 18.703125 7.5625 23.875 7.5625 
L 47.859375 7.5625 
L 47.859375 0 
z
" id="ArialMT-122"/>
       </defs>
       <use xlink:href="#ArialMT-83"/>
       <use x="66.699219" xlink:href="#ArialMT-119"/>
       <use x="138.916016" xlink:href="#ArialMT-105"/>
       <use x="161.132812" xlink:href="#ArialMT-116"/>
       <use x="188.916016" xlink:href="#ArialMT-122"/>
       <use x="238.916016" xlink:href="#ArialMT-101"/>
       <use x="294.53125" xlink:href="#ArialMT-114"/>
       <use x="327.832031" xlink:href="#ArialMT-108"/>
       <use x="350.048828" xlink:href="#ArialMT-97"/>
       <use x="405.664062" xlink:href="#ArialMT-110"/>
       <use x="461.279297" xlink:href="#ArialMT-100"/>
      </g>
     </g>
    </g>
    <g id="text_11">
     <!-- Country -->
     <g style="fill:#262626;" transform="translate(360.93125 347.742188)scale(0.1 -0.1)">
      <use xlink:href="#ArialMT-67"/>
      <use x="72.216797" xlink:href="#ArialMT-111"/>
      <use x="127.832031" xlink:href="#ArialMT-117"/>
      <use x="183.447266" xlink:href="#ArialMT-110"/>
      <use x="239.0625" xlink:href="#ArialMT-116"/>
      <use x="266.845703" xlink:href="#ArialMT-114"/>
      <use x="300.146484" xlink:href="#ArialMT-121"/>
     </g>
    </g>
   </g>
   <g id="matplotlib.axis_2">
    <g id="ytick_1">
     <g id="line2d_1">
      <path clip-path="url(#p0dd305728d)" d="M 47.675 279.45796 
L 709.2 279.45796 
" style="fill:none;stroke:#ffffff;stroke-linecap:round;stroke-width:0.8;"/>
     </g>
     <g id="text_12">
      <!-- 0 -->
      <g style="fill:#262626;" transform="translate(35.114062 283.036866)scale(0.1 -0.1)">
       <defs>
        <path d="M 4.15625 35.296875 
Q 4.15625 48 6.765625 55.734375 
Q 9.375 63.484375 14.515625 67.671875 
Q 19.671875 71.875 27.484375 71.875 
Q 33.25 71.875 37.59375 69.546875 
Q 41.9375 67.234375 44.765625 62.859375 
Q 47.609375 58.5 49.21875 52.21875 
Q 50.828125 45.953125 50.828125 35.296875 
Q 50.828125 22.703125 48.234375 14.96875 
Q 45.65625 7.234375 40.5 3 
Q 35.359375 -1.21875 27.484375 -1.21875 
Q 17.140625 -1.21875 11.234375 6.203125 
Q 4.15625 15.140625 4.15625 35.296875 
z
M 13.1875 35.296875 
Q 13.1875 17.671875 17.3125 11.828125 
Q 21.4375 6 27.484375 6 
Q 33.546875 6 37.671875 11.859375 
Q 41.796875 17.71875 41.796875 35.296875 
Q 41.796875 52.984375 37.671875 58.78125 
Q 33.546875 64.59375 27.390625 64.59375 
Q 21.34375 64.59375 17.71875 59.46875 
Q 13.1875 52.9375 13.1875 35.296875 
z
" id="ArialMT-48"/>
       </defs>
       <use xlink:href="#ArialMT-48"/>
      </g>
     </g>
    </g>
    <g id="ytick_2">
     <g id="line2d_2">
      <path clip-path="url(#p0dd305728d)" d="M 47.675 229.753022 
L 709.2 229.753022 
" style="fill:none;stroke:#ffffff;stroke-linecap:round;stroke-width:0.8;"/>
     </g>
     <g id="text_13">
      <!-- 20 -->
      <g style="fill:#262626;" transform="translate(29.553125 233.331929)scale(0.1 -0.1)">
       <defs>
        <path d="M 50.34375 8.453125 
L 50.34375 0 
L 3.03125 0 
Q 2.9375 3.171875 4.046875 6.109375 
Q 5.859375 10.9375 9.828125 15.625 
Q 13.8125 20.3125 21.34375 26.46875 
Q 33.015625 36.03125 37.109375 41.625 
Q 41.21875 47.21875 41.21875 52.203125 
Q 41.21875 57.421875 37.46875 61 
Q 33.734375 64.59375 27.734375 64.59375 
Q 21.390625 64.59375 17.578125 60.78125 
Q 13.765625 56.984375 13.71875 50.25 
L 4.6875 51.171875 
Q 5.609375 61.28125 11.65625 66.578125 
Q 17.71875 71.875 27.9375 71.875 
Q 38.234375 71.875 44.234375 66.15625 
Q 50.25 60.453125 50.25 52 
Q 50.25 47.703125 48.484375 43.546875 
Q 46.734375 39.40625 42.65625 34.8125 
Q 38.578125 30.21875 29.109375 22.21875 
Q 21.1875 15.578125 18.9375 13.203125 
Q 16.703125 10.84375 15.234375 8.453125 
z
" id="ArialMT-50"/>
       </defs>
       <use xlink:href="#ArialMT-50"/>
       <use x="55.615234" xlink:href="#ArialMT-48"/>
      </g>
     </g>
    </g>
    <g id="ytick_3">
     <g id="line2d_3">
      <path clip-path="url(#p0dd305728d)" d="M 47.675 180.048085 
L 709.2 180.048085 
" style="fill:none;stroke:#ffffff;stroke-linecap:round;stroke-width:0.8;"/>
     </g>
     <g id="text_14">
      <!-- 40 -->
      <g style="fill:#262626;" transform="translate(29.553125 183.626991)scale(0.1 -0.1)">
       <defs>
        <path d="M 32.328125 0 
L 32.328125 17.140625 
L 1.265625 17.140625 
L 1.265625 25.203125 
L 33.9375 71.578125 
L 41.109375 71.578125 
L 41.109375 25.203125 
L 50.78125 25.203125 
L 50.78125 17.140625 
L 41.109375 17.140625 
L 41.109375 0 
z
M 32.328125 25.203125 
L 32.328125 57.46875 
L 9.90625 25.203125 
z
" id="ArialMT-52"/>
       </defs>
       <use xlink:href="#ArialMT-52"/>
       <use x="55.615234" xlink:href="#ArialMT-48"/>
      </g>
     </g>
    </g>
    <g id="ytick_4">
     <g id="line2d_4">
      <path clip-path="url(#p0dd305728d)" d="M 47.675 130.343147 
L 709.2 130.343147 
" style="fill:none;stroke:#ffffff;stroke-linecap:round;stroke-width:0.8;"/>
     </g>
     <g id="text_15">
      <!-- 60 -->
      <g style="fill:#262626;" transform="translate(29.553125 133.922053)scale(0.1 -0.1)">
       <defs>
        <path d="M 49.75 54.046875 
L 41.015625 53.375 
Q 39.84375 58.546875 37.703125 60.890625 
Q 34.125 64.65625 28.90625 64.65625 
Q 24.703125 64.65625 21.53125 62.3125 
Q 17.390625 59.28125 14.984375 53.46875 
Q 12.59375 47.65625 12.5 36.921875 
Q 15.671875 41.75 20.265625 44.09375 
Q 24.859375 46.4375 29.890625 46.4375 
Q 38.671875 46.4375 44.84375 39.96875 
Q 51.03125 33.5 51.03125 23.25 
Q 51.03125 16.5 48.125 10.71875 
Q 45.21875 4.9375 40.140625 1.859375 
Q 35.0625 -1.21875 28.609375 -1.21875 
Q 17.625 -1.21875 10.6875 6.859375 
Q 3.765625 14.9375 3.765625 33.5 
Q 3.765625 54.25 11.421875 63.671875 
Q 18.109375 71.875 29.4375 71.875 
Q 37.890625 71.875 43.28125 67.140625 
Q 48.6875 62.40625 49.75 54.046875 
z
M 13.875 23.1875 
Q 13.875 18.65625 15.796875 14.5 
Q 17.71875 10.359375 21.1875 8.171875 
Q 24.65625 6 28.46875 6 
Q 34.03125 6 38.03125 10.484375 
Q 42.046875 14.984375 42.046875 22.703125 
Q 42.046875 30.125 38.078125 34.390625 
Q 34.125 38.671875 28.125 38.671875 
Q 22.171875 38.671875 18.015625 34.390625 
Q 13.875 30.125 13.875 23.1875 
z
" id="ArialMT-54"/>
       </defs>
       <use xlink:href="#ArialMT-54"/>
       <use x="55.615234" xlink:href="#ArialMT-48"/>
      </g>
     </g>
    </g>
    <g id="ytick_5">
     <g id="line2d_5">
      <path clip-path="url(#p0dd305728d)" d="M 47.675 80.638209 
L 709.2 80.638209 
" style="fill:none;stroke:#ffffff;stroke-linecap:round;stroke-width:0.8;"/>
     </g>
     <g id="text_16">
      <!-- 80 -->
      <g style="fill:#262626;" transform="translate(29.553125 84.217115)scale(0.1 -0.1)">
       <defs>
        <path d="M 17.671875 38.8125 
Q 12.203125 40.828125 9.5625 44.53125 
Q 6.9375 48.25 6.9375 53.421875 
Q 6.9375 61.234375 12.546875 66.546875 
Q 18.171875 71.875 27.484375 71.875 
Q 36.859375 71.875 42.578125 66.421875 
Q 48.296875 60.984375 48.296875 53.171875 
Q 48.296875 48.1875 45.671875 44.5 
Q 43.0625 40.828125 37.75 38.8125 
Q 44.34375 36.671875 47.78125 31.875 
Q 51.21875 27.09375 51.21875 20.453125 
Q 51.21875 11.28125 44.71875 5.03125 
Q 38.234375 -1.21875 27.640625 -1.21875 
Q 17.046875 -1.21875 10.546875 5.046875 
Q 4.046875 11.328125 4.046875 20.703125 
Q 4.046875 27.6875 7.59375 32.390625 
Q 11.140625 37.109375 17.671875 38.8125 
z
M 15.921875 53.71875 
Q 15.921875 48.640625 19.1875 45.40625 
Q 22.46875 42.1875 27.6875 42.1875 
Q 32.765625 42.1875 36.015625 45.375 
Q 39.265625 48.578125 39.265625 53.21875 
Q 39.265625 58.0625 35.90625 61.359375 
Q 32.5625 64.65625 27.59375 64.65625 
Q 22.5625 64.65625 19.234375 61.421875 
Q 15.921875 58.203125 15.921875 53.71875 
z
M 13.09375 20.65625 
Q 13.09375 16.890625 14.875 13.375 
Q 16.65625 9.859375 20.171875 7.921875 
Q 23.6875 6 27.734375 6 
Q 34.03125 6 38.125 10.046875 
Q 42.234375 14.109375 42.234375 20.359375 
Q 42.234375 26.703125 38.015625 30.859375 
Q 33.796875 35.015625 27.4375 35.015625 
Q 21.234375 35.015625 17.15625 30.90625 
Q 13.09375 26.8125 13.09375 20.65625 
z
" id="ArialMT-56"/>
       </defs>
       <use xlink:href="#ArialMT-56"/>
       <use x="55.615234" xlink:href="#ArialMT-48"/>
      </g>
     </g>
    </g>
    <g id="ytick_6">
     <g id="line2d_6">
      <path clip-path="url(#p0dd305728d)" d="M 47.675 30.933271 
L 709.2 30.933271 
" style="fill:none;stroke:#ffffff;stroke-linecap:round;stroke-width:0.8;"/>
     </g>
     <g id="text_17">
      <!-- 100 -->
      <g style="fill:#262626;" transform="translate(23.992187 34.512178)scale(0.1 -0.1)">
       <defs>
        <path d="M 37.25 0 
L 28.46875 0 
L 28.46875 56 
Q 25.296875 52.984375 20.140625 49.953125 
Q 14.984375 46.921875 10.890625 45.40625 
L 10.890625 53.90625 
Q 18.265625 57.375 23.78125 62.296875 
Q 29.296875 67.234375 31.59375 71.875 
L 37.25 71.875 
z
" id="ArialMT-49"/>
       </defs>
       <use xlink:href="#ArialMT-49"/>
       <use x="55.615234" xlink:href="#ArialMT-48"/>
       <use x="111.230469" xlink:href="#ArialMT-48"/>
      </g>
     </g>
    </g>
    <g id="text_18">
     <!-- Quality -->
     <g style="fill:#262626;" transform="translate(17.8875 181.060938)rotate(-90)scale(0.1 -0.1)">
      <defs>
       <path d="M 61.96875 7.671875 
Q 68.5625 3.125 74.125 1.03125 
L 71.34375 -5.5625 
Q 63.625 -2.78125 55.953125 3.21875 
Q 48 -1.21875 38.375 -1.21875 
Q 28.65625 -1.21875 20.75 3.46875 
Q 12.84375 8.15625 8.5625 16.640625 
Q 4.296875 25.140625 4.296875 35.796875 
Q 4.296875 46.390625 8.59375 55.078125 
Q 12.890625 63.765625 20.828125 68.3125 
Q 28.765625 72.859375 38.578125 72.859375 
Q 48.484375 72.859375 56.4375 68.140625 
Q 64.40625 63.421875 68.578125 54.953125 
Q 72.75 46.484375 72.75 35.84375 
Q 72.75 27 70.0625 19.9375 
Q 67.390625 12.890625 61.96875 7.671875 
z
M 41.109375 19.78125 
Q 49.3125 17.484375 54.640625 12.9375 
Q 62.984375 20.5625 62.984375 35.84375 
Q 62.984375 44.53125 60.03125 51.015625 
Q 57.078125 57.515625 51.390625 61.109375 
Q 45.703125 64.703125 38.625 64.703125 
Q 28.03125 64.703125 21.046875 57.453125 
Q 14.0625 50.203125 14.0625 35.796875 
Q 14.0625 21.828125 20.96875 14.359375 
Q 27.875 6.890625 38.625 6.890625 
Q 43.703125 6.890625 48.1875 8.796875 
Q 43.75 11.671875 38.8125 12.890625 
z
" id="ArialMT-81"/>
      </defs>
      <use xlink:href="#ArialMT-81"/>
      <use x="77.783203" xlink:href="#ArialMT-117"/>
      <use x="133.398438" xlink:href="#ArialMT-97"/>
      <use x="189.013672" xlink:href="#ArialMT-108"/>
      <use x="211.230469" xlink:href="#ArialMT-105"/>
      <use x="233.447266" xlink:href="#ArialMT-116"/>
      <use x="261.230469" xlink:href="#ArialMT-121"/>
     </g>
    </g>
   </g>
   <g id="PolyCollection_1">
    <defs>
     <path d="M 147.93116 -196.34329 
L 145.87634 -196.34329 
L 145.685502 -196.966085 
L 145.467087 -197.588879 
L 145.218695 -198.211673 
L 144.938009 -198.834467 
L 144.622859 -199.457262 
L 144.271284 -200.080056 
L 143.881606 -200.70285 
L 143.452503 -201.325644 
L 142.983079 -201.948439 
L 142.472939 -202.571233 
L 141.922251 -203.194027 
L 141.331809 -203.816821 
L 140.703082 -204.439616 
L 140.038252 -205.06241 
L 139.340242 -205.685204 
L 138.612719 -206.307999 
L 137.860093 -206.930793 
L 137.087485 -207.553587 
L 136.300685 -208.176381 
L 135.50609 -208.799176 
L 134.710618 -209.42197 
L 133.921613 -210.044764 
L 133.146728 -210.667558 
L 132.393803 -211.290353 
L 131.670722 -211.913147 
L 130.985273 -212.535941 
L 130.344995 -213.158735 
L 129.757032 -213.78153 
L 129.227983 -214.404324 
L 128.763764 -215.027118 
L 128.369475 -215.649912 
L 128.049283 -216.272707 
L 127.806322 -216.895501 
L 127.642608 -217.518295 
L 127.558983 -218.141089 
L 127.555072 -218.763884 
L 127.629274 -219.386678 
L 127.778777 -220.009472 
L 127.999595 -220.632266 
L 128.286637 -221.255061 
L 128.633803 -221.877855 
L 129.034093 -222.500649 
L 129.479755 -223.123444 
L 129.962438 -223.746238 
L 130.473371 -224.369032 
L 131.003551 -224.991826 
L 131.543937 -225.614621 
L 132.085654 -226.237415 
L 132.620188 -226.860209 
L 133.139581 -227.483003 
L 133.636609 -228.105798 
L 134.104942 -228.728592 
L 134.539289 -229.351386 
L 134.93551 -229.97418 
L 135.290695 -230.596975 
L 135.603222 -231.219769 
L 135.872761 -231.842563 
L 136.100262 -232.465357 
L 136.287891 -233.088152 
L 136.438937 -233.710946 
L 136.557693 -234.33374 
L 136.649296 -234.956534 
L 136.719559 -235.579329 
L 136.774768 -236.202123 
L 136.821488 -236.824917 
L 136.866344 -237.447711 
L 136.915824 -238.070506 
L 136.976075 -238.6933 
L 137.052727 -239.316094 
L 137.150735 -239.938889 
L 137.274245 -240.561683 
L 137.426496 -241.184477 
L 137.609751 -241.807271 
L 137.825266 -242.430066 
L 138.073294 -243.05286 
L 138.353112 -243.675654 
L 138.663096 -244.298448 
L 139.000803 -244.921243 
L 139.363093 -245.544037 
L 139.746248 -246.166831 
L 140.146119 -246.789625 
L 140.55827 -247.41242 
L 140.978117 -248.035214 
L 141.401074 -248.658008 
L 141.822671 -249.280802 
L 142.238678 -249.903597 
L 142.645193 -250.526391 
L 143.038724 -251.149185 
L 143.416245 -251.771979 
L 143.775233 -252.394774 
L 144.11369 -253.017568 
L 144.430136 -253.640362 
L 144.723598 -254.263156 
L 144.993579 -254.885951 
L 145.240019 -255.508745 
L 145.463244 -256.131539 
L 145.663913 -256.754334 
L 145.842963 -257.377128 
L 146.001549 -257.999922 
L 147.805951 -257.999922 
L 147.805951 -257.999922 
L 147.964537 -257.377128 
L 148.143587 -256.754334 
L 148.344256 -256.131539 
L 148.567481 -255.508745 
L 148.813921 -254.885951 
L 149.083902 -254.263156 
L 149.377364 -253.640362 
L 149.69381 -253.017568 
L 150.032267 -252.394774 
L 150.391255 -251.771979 
L 150.768776 -251.149185 
L 151.162307 -250.526391 
L 151.568822 -249.903597 
L 151.984829 -249.280802 
L 152.406426 -248.658008 
L 152.829383 -248.035214 
L 153.24923 -247.41242 
L 153.661381 -246.789625 
L 154.061252 -246.166831 
L 154.444407 -245.544037 
L 154.806697 -244.921243 
L 155.144404 -244.298448 
L 155.454388 -243.675654 
L 155.734206 -243.05286 
L 155.982234 -242.430066 
L 156.197749 -241.807271 
L 156.381004 -241.184477 
L 156.533255 -240.561683 
L 156.656765 -239.938889 
L 156.754773 -239.316094 
L 156.831425 -238.6933 
L 156.891676 -238.070506 
L 156.941156 -237.447711 
L 156.986012 -236.824917 
L 157.032732 -236.202123 
L 157.087941 -235.579329 
L 157.158204 -234.956534 
L 157.249807 -234.33374 
L 157.368563 -233.710946 
L 157.519609 -233.088152 
L 157.707238 -232.465357 
L 157.934739 -231.842563 
L 158.204278 -231.219769 
L 158.516805 -230.596975 
L 158.87199 -229.97418 
L 159.268211 -229.351386 
L 159.702558 -228.728592 
L 160.170891 -228.105798 
L 160.667919 -227.483003 
L 161.187312 -226.860209 
L 161.721846 -226.237415 
L 162.263563 -225.614621 
L 162.803949 -224.991826 
L 163.334129 -224.369032 
L 163.845062 -223.746238 
L 164.327745 -223.123444 
L 164.773407 -222.500649 
L 165.173697 -221.877855 
L 165.520863 -221.255061 
L 165.807905 -220.632266 
L 166.028723 -220.009472 
L 166.178226 -219.386678 
L 166.252428 -218.763884 
L 166.248517 -218.141089 
L 166.164892 -217.518295 
L 166.001178 -216.895501 
L 165.758217 -216.272707 
L 165.438025 -215.649912 
L 165.043736 -215.027118 
L 164.579517 -214.404324 
L 164.050468 -213.78153 
L 163.462505 -213.158735 
L 162.822227 -212.535941 
L 162.136778 -211.913147 
L 161.413697 -211.290353 
L 160.660772 -210.667558 
L 159.885887 -210.044764 
L 159.096882 -209.42197 
L 158.30141 -208.799176 
L 157.506815 -208.176381 
L 156.720015 -207.553587 
L 155.947407 -206.930793 
L 155.194781 -206.307999 
L 154.467258 -205.685204 
L 153.769248 -205.06241 
L 153.104418 -204.439616 
L 152.475691 -203.816821 
L 151.885249 -203.194027 
L 151.334561 -202.571233 
L 150.824421 -201.948439 
L 150.354997 -201.325644 
L 149.925894 -200.70285 
L 149.536216 -200.080056 
L 149.184641 -199.457262 
L 148.869491 -198.834467 
L 148.588805 -198.211673 
L 148.340413 -197.588879 
L 148.121998 -196.966085 
L 147.93116 -196.34329 
z
" id="m88e524ad65" style="stroke:#313131;stroke-width:1.5;"/>
    </defs>
    <g clip-path="url(#p0dd305728d)">
     <use style="fill:#ac2a24;stroke:#313131;stroke-width:1.5;" x="0" xlink:href="#m88e524ad65" y="360"/>
    </g>
   </g>
   <g id="PolyCollection_2">
    <defs>
     <path d="M 216.575069 -201.458299 
L 209.537431 -201.458299 
L 209.031787 -201.827139 
L 208.474887 -202.195979 
L 207.865172 -202.564819 
L 207.201657 -202.933658 
L 206.484023 -203.302498 
L 205.712708 -203.671338 
L 204.88899 -204.040177 
L 204.015062 -204.409017 
L 203.094084 -204.777857 
L 202.130224 -205.146697 
L 201.128681 -205.515536 
L 200.095672 -205.884376 
L 199.038407 -206.253216 
L 197.965027 -206.622056 
L 196.884517 -206.990895 
L 195.806588 -207.359735 
L 194.74154 -207.728575 
L 193.700086 -208.097414 
L 192.693167 -208.466254 
L 191.73174 -208.835094 
L 190.826557 -209.203934 
L 189.987934 -209.572773 
L 189.225521 -209.941613 
L 188.548072 -210.310453 
L 187.963231 -210.679292 
L 187.477333 -211.048132 
L 187.095233 -211.416972 
L 186.820158 -211.785812 
L 186.653601 -212.154651 
L 186.59525 -212.523491 
L 186.64296 -212.892331 
L 186.792767 -213.26117 
L 187.038949 -213.63001 
L 187.374125 -213.99885 
L 187.789401 -214.36769 
L 188.274543 -214.736529 
L 188.818199 -215.105369 
L 189.408131 -215.474209 
L 190.03148 -215.843048 
L 190.675044 -216.211888 
L 191.325556 -216.580728 
L 191.969978 -216.949568 
L 192.595769 -217.318407 
L 193.19116 -217.687247 
L 193.745394 -218.056087 
L 194.248948 -218.424927 
L 194.693726 -218.793766 
L 195.073214 -219.162606 
L 195.382601 -219.531446 
L 195.61886 -219.900285 
L 195.780784 -220.269125 
L 195.868987 -220.637965 
L 195.885858 -221.006805 
L 195.835485 -221.375644 
L 195.723529 -221.744484 
L 195.557078 -222.113324 
L 195.344461 -222.482163 
L 195.095047 -222.851003 
L 194.819009 -223.219843 
L 194.527093 -223.588683 
L 194.23036 -223.957522 
L 193.939937 -224.326362 
L 193.666768 -224.695202 
L 193.421373 -225.064041 
L 193.213624 -225.432881 
L 193.052536 -225.801721 
L 192.94609 -226.170561 
L 192.901081 -226.5394 
L 192.922994 -226.90824 
L 193.015925 -227.27708 
L 193.182521 -227.64592 
L 193.423972 -228.014759 
L 193.740029 -228.383599 
L 194.129054 -228.752439 
L 194.58811 -229.121278 
L 195.113066 -229.490118 
L 195.698738 -229.858958 
L 196.339037 -230.227798 
L 197.027142 -230.596637 
L 197.755671 -230.965477 
L 198.516867 -231.334317 
L 199.302768 -231.703156 
L 200.105389 -232.071996 
L 200.916877 -232.440836 
L 201.72966 -232.809676 
L 202.53658 -233.178515 
L 203.331001 -233.547355 
L 204.106903 -233.916195 
L 204.858946 -234.285034 
L 205.582522 -234.653874 
L 206.273779 -235.022714 
L 206.929623 -235.391554 
L 207.547713 -235.760393 
L 208.126427 -236.129233 
L 208.664824 -236.498073 
L 209.162588 -236.866912 
L 209.619969 -237.235752 
L 210.037715 -237.604592 
L 210.417 -237.973432 
L 215.6955 -237.973432 
L 215.6955 -237.973432 
L 216.074785 -237.604592 
L 216.492531 -237.235752 
L 216.949912 -236.866912 
L 217.447676 -236.498073 
L 217.986073 -236.129233 
L 218.564787 -235.760393 
L 219.182877 -235.391554 
L 219.838721 -235.022714 
L 220.529978 -234.653874 
L 221.253554 -234.285034 
L 222.005597 -233.916195 
L 222.781499 -233.547355 
L 223.57592 -233.178515 
L 224.38284 -232.809676 
L 225.195623 -232.440836 
L 226.007111 -232.071996 
L 226.809732 -231.703156 
L 227.595633 -231.334317 
L 228.356829 -230.965477 
L 229.085358 -230.596637 
L 229.773463 -230.227798 
L 230.413762 -229.858958 
L 230.999434 -229.490118 
L 231.52439 -229.121278 
L 231.983446 -228.752439 
L 232.372471 -228.383599 
L 232.688528 -228.014759 
L 232.929979 -227.64592 
L 233.096575 -227.27708 
L 233.189506 -226.90824 
L 233.211419 -226.5394 
L 233.16641 -226.170561 
L 233.059964 -225.801721 
L 232.898876 -225.432881 
L 232.691127 -225.064041 
L 232.445732 -224.695202 
L 232.172563 -224.326362 
L 231.88214 -223.957522 
L 231.585407 -223.588683 
L 231.293491 -223.219843 
L 231.017453 -222.851003 
L 230.768039 -222.482163 
L 230.555422 -222.113324 
L 230.388971 -221.744484 
L 230.277015 -221.375644 
L 230.226642 -221.006805 
L 230.243513 -220.637965 
L 230.331716 -220.269125 
L 230.49364 -219.900285 
L 230.729899 -219.531446 
L 231.039286 -219.162606 
L 231.418774 -218.793766 
L 231.863552 -218.424927 
L 232.367106 -218.056087 
L 232.92134 -217.687247 
L 233.516731 -217.318407 
L 234.142522 -216.949568 
L 234.786944 -216.580728 
L 235.437456 -216.211888 
L 236.08102 -215.843048 
L 236.704369 -215.474209 
L 237.294301 -215.105369 
L 237.837957 -214.736529 
L 238.323099 -214.36769 
L 238.738375 -213.99885 
L 239.073551 -213.63001 
L 239.319733 -213.26117 
L 239.46954 -212.892331 
L 239.51725 -212.523491 
L 239.458899 -212.154651 
L 239.292342 -211.785812 
L 239.017267 -211.416972 
L 238.635167 -211.048132 
L 238.149269 -210.679292 
L 237.564428 -210.310453 
L 236.886979 -209.941613 
L 236.124566 -209.572773 
L 235.285943 -209.203934 
L 234.38076 -208.835094 
L 233.419333 -208.466254 
L 232.412414 -208.097414 
L 231.37096 -207.728575 
L 230.305912 -207.359735 
L 229.227983 -206.990895 
L 228.147473 -206.622056 
L 227.074093 -206.253216 
L 226.016828 -205.884376 
L 224.983819 -205.515536 
L 223.982276 -205.146697 
L 223.018416 -204.777857 
L 222.097438 -204.409017 
L 221.22351 -204.040177 
L 220.399792 -203.671338 
L 219.628477 -203.302498 
L 218.910843 -202.933658 
L 218.247328 -202.564819 
L 217.637613 -202.195979 
L 217.080713 -201.827139 
L 216.575069 -201.458299 
z
" id="mae047b93e8" style="stroke:#313131;stroke-width:1.5;"/>
    </defs>
    <g clip-path="url(#p0dd305728d)">
     <use style="fill:#c44b3c;stroke:#313131;stroke-width:1.5;" x="0" xlink:href="#mae047b93e8" y="360"/>
    </g>
   </g>
   <g id="PolyCollection_3">
    <defs>
     <path d="M 279.210507 -74.472405 
L 279.206993 -74.472405 
L 279.201914 -77.105374 
L 279.196218 -79.738343 
L 279.197927 -82.371313 
L 279.204344 -85.004282 
L 279.207822 -87.637251 
L 279.207542 -90.27022 
L 279.201366 -92.90319 
L 279.184897 -95.536159 
L 279.169323 -98.169128 
L 279.174369 -100.802098 
L 279.192079 -103.435067 
L 279.198127 -106.068036 
L 279.17756 -108.701005 
L 279.14119 -111.333975 
L 279.136059 -113.966944 
L 279.154497 -116.599913 
L 279.115094 -119.232883 
L 279.013894 -121.865852 
L 278.960531 -124.498821 
L 278.940363 -127.13179 
L 278.785806 -129.76476 
L 278.617688 -132.397729 
L 278.645183 -135.030698 
L 278.595338 -137.663668 
L 278.343406 -140.296637 
L 277.938562 -142.929606 
L 277.353087 -145.562575 
L 277.113969 -148.195545 
L 277.27267 -150.828514 
L 277.240509 -153.461483 
L 276.901282 -156.094453 
L 276.544635 -158.727422 
L 276.316271 -161.360391 
L 275.972723 -163.99336 
L 275.212559 -166.62633 
L 274.193987 -169.259299 
L 273.82312 -171.892268 
L 274.0103 -174.525237 
L 273.530137 -177.158207 
L 272.414592 -179.791176 
L 271.698265 -182.424145 
L 271.733235 -185.057115 
L 272.292338 -187.690084 
L 272.307234 -190.323053 
L 271.116754 -192.956022 
L 269.98006 -195.588992 
L 269.983061 -198.221961 
L 270.116887 -200.85493 
L 270.185233 -203.4879 
L 270.610576 -206.120869 
L 270.606797 -208.753838 
L 270.087259 -211.386807 
L 269.897617 -214.019777 
L 270.291803 -216.652746 
L 270.969923 -219.285715 
L 271.387587 -221.918685 
L 271.805345 -224.551654 
L 272.865172 -227.184623 
L 274.064458 -229.817592 
L 274.88254 -232.450562 
L 275.527807 -235.083531 
L 276.064582 -237.7165 
L 276.461271 -240.34947 
L 276.880455 -242.982439 
L 277.333242 -245.615408 
L 277.72635 -248.248377 
L 278.079665 -250.881347 
L 278.369088 -253.514316 
L 278.526687 -256.147285 
L 278.637025 -258.780254 
L 278.768385 -261.413224 
L 278.885684 -264.046193 
L 278.980326 -266.679162 
L 279.050298 -269.312132 
L 279.092529 -271.945101 
L 279.1205 -274.57807 
L 279.140592 -277.211039 
L 279.15009 -279.844009 
L 279.158334 -282.476978 
L 279.173773 -285.109947 
L 279.190801 -287.742917 
L 279.202078 -290.375886 
L 279.205223 -293.008855 
L 279.203854 -295.641824 
L 279.203598 -298.274794 
L 279.205274 -300.907763 
L 279.206992 -303.540732 
L 279.208155 -306.173702 
L 279.208641 -308.806671 
L 279.20874 -311.43964 
L 279.20875 -314.072609 
L 279.20875 -316.705579 
L 279.20874 -319.338548 
L 279.208645 -321.971517 
L 279.2082 -324.604487 
L 279.207397 -327.237456 
L 279.207183 -329.870425 
L 279.207896 -332.503394 
L 279.20853 -335.136364 
L 279.20897 -335.136364 
L 279.20897 -335.136364 
L 279.209604 -332.503394 
L 279.210317 -329.870425 
L 279.210103 -327.237456 
L 279.2093 -324.604487 
L 279.208855 -321.971517 
L 279.20876 -319.338548 
L 279.20875 -316.705579 
L 279.20875 -314.072609 
L 279.20876 -311.43964 
L 279.208859 -308.806671 
L 279.209345 -306.173702 
L 279.210508 -303.540732 
L 279.212226 -300.907763 
L 279.213902 -298.274794 
L 279.213646 -295.641824 
L 279.212277 -293.008855 
L 279.215422 -290.375886 
L 279.226699 -287.742917 
L 279.243727 -285.109947 
L 279.259166 -282.476978 
L 279.26741 -279.844009 
L 279.276908 -277.211039 
L 279.297 -274.57807 
L 279.324971 -271.945101 
L 279.367202 -269.312132 
L 279.437174 -266.679162 
L 279.531816 -264.046193 
L 279.649115 -261.413224 
L 279.780475 -258.780254 
L 279.890813 -256.147285 
L 280.048412 -253.514316 
L 280.337835 -250.881347 
L 280.69115 -248.248377 
L 281.084258 -245.615408 
L 281.537045 -242.982439 
L 281.956229 -240.34947 
L 282.352918 -237.7165 
L 282.889693 -235.083531 
L 283.53496 -232.450562 
L 284.353042 -229.817592 
L 285.552328 -227.184623 
L 286.612155 -224.551654 
L 287.029913 -221.918685 
L 287.447577 -219.285715 
L 288.125697 -216.652746 
L 288.519883 -214.019777 
L 288.330241 -211.386807 
L 287.810703 -208.753838 
L 287.806924 -206.120869 
L 288.232267 -203.4879 
L 288.300613 -200.85493 
L 288.434439 -198.221961 
L 288.43744 -195.588992 
L 287.300746 -192.956022 
L 286.110266 -190.323053 
L 286.125162 -187.690084 
L 286.684265 -185.057115 
L 286.719235 -182.424145 
L 286.002908 -179.791176 
L 284.887363 -177.158207 
L 284.4072 -174.525237 
L 284.59438 -171.892268 
L 284.223513 -169.259299 
L 283.204941 -166.62633 
L 282.444777 -163.99336 
L 282.101229 -161.360391 
L 281.872865 -158.727422 
L 281.516218 -156.094453 
L 281.176991 -153.461483 
L 281.14483 -150.828514 
L 281.303531 -148.195545 
L 281.064413 -145.562575 
L 280.478938 -142.929606 
L 280.074094 -140.296637 
L 279.822162 -137.663668 
L 279.772317 -135.030698 
L 279.799812 -132.397729 
L 279.631694 -129.76476 
L 279.477137 -127.13179 
L 279.456969 -124.498821 
L 279.403606 -121.865852 
L 279.302406 -119.232883 
L 279.263003 -116.599913 
L 279.281441 -113.966944 
L 279.27631 -111.333975 
L 279.23994 -108.701005 
L 279.219373 -106.068036 
L 279.225421 -103.435067 
L 279.243131 -100.802098 
L 279.248177 -98.169128 
L 279.232603 -95.536159 
L 279.216134 -92.90319 
L 279.209958 -90.27022 
L 279.209678 -87.637251 
L 279.213156 -85.004282 
L 279.219573 -82.371313 
L 279.221282 -79.738343 
L 279.215586 -77.105374 
L 279.210507 -74.472405 
z
" id="m66a18b89fc" style="stroke:#313131;stroke-width:1.5;"/>
    </defs>
    <g clip-path="url(#p0dd305728d)">
     <use style="fill:#d86f5a;stroke:#313131;stroke-width:1.5;" x="0" xlink:href="#m66a18b89fc" y="360"/>
    </g>
   </g>
   <g id="PolyCollection_4">
    <defs>
     <path d="M 345.672519 -53.863636 
L 345.049981 -53.863636 
L 345.009298 -56.084529 
L 344.964814 -58.305421 
L 344.916404 -60.526314 
L 344.863975 -62.747206 
L 344.807469 -64.968098 
L 344.746868 -67.188991 
L 344.682197 -69.409883 
L 344.613527 -71.630776 
L 344.540981 -73.851668 
L 344.464732 -76.07256 
L 344.385007 -78.293453 
L 344.302084 -80.514345 
L 344.216291 -82.735238 
L 344.128007 -84.95613 
L 344.03765 -87.177022 
L 343.94568 -89.397915 
L 343.852583 -91.618807 
L 343.758872 -93.8397 
L 343.665068 -96.060592 
L 343.571698 -98.281485 
L 343.479277 -100.502377 
L 343.3883 -102.723269 
L 343.299228 -104.944162 
L 343.212479 -107.165054 
L 343.128411 -109.385947 
L 343.047318 -111.606839 
L 342.969416 -113.827731 
L 342.894837 -116.048624 
L 342.823624 -118.269516 
L 342.755725 -120.490409 
L 342.690994 -122.711301 
L 342.629191 -124.932193 
L 342.569987 -127.153086 
L 342.512972 -129.373978 
L 342.457663 -131.594871 
L 342.403517 -133.815763 
L 342.349945 -136.036655 
L 342.296333 -138.257548 
L 342.242053 -140.47844 
L 342.186492 -142.699333 
L 342.129065 -144.920225 
L 342.06924 -147.141117 
L 342.006556 -149.36201 
L 341.940644 -151.582902 
L 341.871245 -153.803795 
L 341.798224 -156.024687 
L 341.721582 -158.24558 
L 341.641469 -160.466472 
L 341.558187 -162.687364 
L 341.472193 -164.908257 
L 341.384097 -167.129149 
L 341.294657 -169.350042 
L 341.204767 -171.570934 
L 341.115444 -173.791826 
L 341.027811 -176.012719 
L 340.943073 -178.233611 
L 340.862499 -180.454504 
L 340.78739 -182.675396 
L 340.719057 -184.896288 
L 340.658789 -187.117181 
L 340.607827 -189.338073 
L 340.567337 -191.558966 
L 340.538382 -193.779858 
L 340.521901 -196.00075 
L 340.518684 -198.221643 
L 340.529358 -200.442535 
L 340.55437 -202.663428 
L 340.59398 -204.88432 
L 340.648251 -207.105213 
L 340.717049 -209.326105 
L 340.800048 -211.546997 
L 340.896734 -213.76789 
L 341.006417 -215.988782 
L 341.128245 -218.209675 
L 341.261223 -220.430567 
L 341.40423 -222.651459 
L 341.556042 -224.872352 
L 341.715359 -227.093244 
L 341.880824 -229.314137 
L 342.051049 -231.535029 
L 342.22464 -233.755921 
L 342.40022 -235.976814 
L 342.576449 -238.197706 
L 342.752042 -240.418599 
L 342.92579 -242.639491 
L 343.096574 -244.860383 
L 343.263372 -247.081276 
L 343.425276 -249.302168 
L 343.581493 -251.523061 
L 343.731348 -253.743953 
L 343.874291 -255.964845 
L 344.00989 -258.185738 
L 344.137828 -260.40663 
L 344.257902 -262.627523 
L 344.37001 -264.848415 
L 344.474149 -267.069308 
L 344.570398 -269.2902 
L 344.658915 -271.511092 
L 344.739925 -273.731985 
L 345.982575 -273.731985 
L 345.982575 -273.731985 
L 346.063585 -271.511092 
L 346.152102 -269.2902 
L 346.248351 -267.069308 
L 346.35249 -264.848415 
L 346.464598 -262.627523 
L 346.584672 -260.40663 
L 346.71261 -258.185738 
L 346.848209 -255.964845 
L 346.991152 -253.743953 
L 347.141007 -251.523061 
L 347.297224 -249.302168 
L 347.459128 -247.081276 
L 347.625926 -244.860383 
L 347.79671 -242.639491 
L 347.970458 -240.418599 
L 348.146051 -238.197706 
L 348.32228 -235.976814 
L 348.49786 -233.755921 
L 348.671451 -231.535029 
L 348.841676 -229.314137 
L 349.007141 -227.093244 
L 349.166458 -224.872352 
L 349.31827 -222.651459 
L 349.461277 -220.430567 
L 349.594255 -218.209675 
L 349.716083 -215.988782 
L 349.825766 -213.76789 
L 349.922452 -211.546997 
L 350.005451 -209.326105 
L 350.074249 -207.105213 
L 350.12852 -204.88432 
L 350.16813 -202.663428 
L 350.193142 -200.442535 
L 350.203816 -198.221643 
L 350.200599 -196.00075 
L 350.184118 -193.779858 
L 350.155163 -191.558966 
L 350.114673 -189.338073 
L 350.063711 -187.117181 
L 350.003443 -184.896288 
L 349.93511 -182.675396 
L 349.860001 -180.454504 
L 349.779427 -178.233611 
L 349.694689 -176.012719 
L 349.607056 -173.791826 
L 349.517733 -171.570934 
L 349.427843 -169.350042 
L 349.338403 -167.129149 
L 349.250307 -164.908257 
L 349.164313 -162.687364 
L 349.081031 -160.466472 
L 349.000918 -158.24558 
L 348.924276 -156.024687 
L 348.851255 -153.803795 
L 348.781856 -151.582902 
L 348.715944 -149.36201 
L 348.65326 -147.141117 
L 348.593435 -144.920225 
L 348.536008 -142.699333 
L 348.480447 -140.47844 
L 348.426167 -138.257548 
L 348.372555 -136.036655 
L 348.318983 -133.815763 
L 348.264837 -131.594871 
L 348.209528 -129.373978 
L 348.152513 -127.153086 
L 348.093309 -124.932193 
L 348.031506 -122.711301 
L 347.966775 -120.490409 
L 347.898876 -118.269516 
L 347.827663 -116.048624 
L 347.753084 -113.827731 
L 347.675182 -111.606839 
L 347.594089 -109.385947 
L 347.510021 -107.165054 
L 347.423272 -104.944162 
L 347.3342 -102.723269 
L 347.243223 -100.502377 
L 347.150802 -98.281485 
L 347.057432 -96.060592 
L 346.963628 -93.8397 
L 346.869917 -91.618807 
L 346.77682 -89.397915 
L 346.68485 -87.177022 
L 346.594493 -84.95613 
L 346.506209 -82.735238 
L 346.420416 -80.514345 
L 346.337493 -78.293453 
L 346.257768 -76.07256 
L 346.181519 -73.851668 
L 346.108973 -71.630776 
L 346.040303 -69.409883 
L 345.975632 -67.188991 
L 345.915031 -64.968098 
L 345.858525 -62.747206 
L 345.806096 -60.526314 
L 345.757686 -58.305421 
L 345.713202 -56.084529 
L 345.672519 -53.863636 
z
" id="md301c8b5c7" style="stroke:#313131;stroke-width:1.5;"/>
    </defs>
    <g clip-path="url(#p0dd305728d)">
     <use style="fill:#e38867;stroke:#313131;stroke-width:1.5;" x="0" xlink:href="#md301c8b5c7" y="360"/>
    </g>
   </g>
   <g id="PolyCollection_5">
    <defs>
     <path d="M 411.539358 -95.778162 
L 411.488142 -95.778162 
L 411.473947 -98.18154 
L 411.453121 -100.584918 
L 411.423229 -102.988296 
L 411.381269 -105.391674 
L 411.323718 -107.795052 
L 411.246671 -110.19843 
L 411.146114 -112.601808 
L 411.018343 -115.005186 
L 410.860516 -117.408564 
L 410.671279 -119.811942 
L 410.451375 -122.21532 
L 410.204104 -124.618698 
L 409.935493 -127.022076 
L 409.654079 -129.425454 
L 409.370244 -131.828832 
L 409.095166 -134.23221 
L 408.839515 -136.635588 
L 408.612128 -139.038966 
L 408.418904 -141.442344 
L 408.262129 -143.845722 
L 408.140375 -146.2491 
L 408.048962 -148.652478 
L 407.98088 -151.055856 
L 407.92797 -153.459234 
L 407.882134 -155.862612 
L 407.836359 -158.265989 
L 407.785419 -160.669367 
L 407.726189 -163.072745 
L 407.65761 -165.476123 
L 407.580369 -167.879501 
L 407.49643 -170.282879 
L 407.408504 -172.686257 
L 407.319574 -175.089635 
L 407.232514 -177.493013 
L 407.149838 -179.896391 
L 407.07357 -182.299769 
L 407.005186 -184.703147 
L 406.94559 -187.106525 
L 406.895079 -189.509903 
L 406.853267 -191.913281 
L 406.818967 -194.316659 
L 406.790098 -196.720037 
L 406.763646 -199.123415 
L 406.735786 -201.526793 
L 406.702203 -203.930171 
L 406.658618 -206.333549 
L 406.601464 -208.736927 
L 406.528609 -211.140305 
L 406.439963 -213.543683 
L 406.337856 -215.947061 
L 406.227068 -218.350439 
L 406.114525 -220.753817 
L 406.008706 -223.157195 
L 405.91889 -225.560573 
L 405.854385 -227.963951 
L 405.823847 -230.367329 
L 405.834746 -232.770707 
L 405.892968 -235.174085 
L 406.002518 -237.577462 
L 406.165264 -239.98084 
L 406.380724 -242.384218 
L 406.645909 -244.787596 
L 406.955304 -247.190974 
L 407.301061 -249.594352 
L 407.673436 -251.99773 
L 408.061477 -254.401108 
L 408.453852 -256.804486 
L 408.83972 -259.207864 
L 409.209486 -261.611242 
L 409.555341 -264.01462 
L 409.871531 -266.417998 
L 410.154357 -268.821376 
L 410.40198 -271.224754 
L 410.614114 -273.628132 
L 410.791688 -276.03151 
L 410.936556 -278.434888 
L 411.051265 -280.838266 
L 411.138899 -283.241644 
L 411.202958 -285.645022 
L 411.247254 -288.0484 
L 411.275781 -290.451778 
L 411.292568 -292.855156 
L 411.30149 -295.258534 
L 411.306078 -297.661912 
L 411.309331 -300.06529 
L 411.31357 -302.468668 
L 411.320357 -304.872046 
L 411.330484 -307.275424 
L 411.34404 -309.678802 
L 411.360546 -312.08218 
L 411.379129 -314.485558 
L 411.398718 -316.888936 
L 411.418225 -319.292313 
L 411.436689 -321.695691 
L 411.453377 -324.099069 
L 411.467824 -326.502447 
L 411.479833 -328.905825 
L 411.489436 -331.309203 
L 411.496833 -333.712581 
L 411.530667 -333.712581 
L 411.530667 -333.712581 
L 411.538064 -331.309203 
L 411.547667 -328.905825 
L 411.559676 -326.502447 
L 411.574123 -324.099069 
L 411.590811 -321.695691 
L 411.609275 -319.292313 
L 411.628782 -316.888936 
L 411.648371 -314.485558 
L 411.666954 -312.08218 
L 411.68346 -309.678802 
L 411.697016 -307.275424 
L 411.707143 -304.872046 
L 411.71393 -302.468668 
L 411.718169 -300.06529 
L 411.721422 -297.661912 
L 411.72601 -295.258534 
L 411.734932 -292.855156 
L 411.751719 -290.451778 
L 411.780246 -288.0484 
L 411.824542 -285.645022 
L 411.888601 -283.241644 
L 411.976235 -280.838266 
L 412.090944 -278.434888 
L 412.235812 -276.03151 
L 412.413386 -273.628132 
L 412.62552 -271.224754 
L 412.873143 -268.821376 
L 413.155969 -266.417998 
L 413.472159 -264.01462 
L 413.818014 -261.611242 
L 414.18778 -259.207864 
L 414.573648 -256.804486 
L 414.966023 -254.401108 
L 415.354064 -251.99773 
L 415.726439 -249.594352 
L 416.072196 -247.190974 
L 416.381591 -244.787596 
L 416.646776 -242.384218 
L 416.862236 -239.98084 
L 417.024982 -237.577462 
L 417.134532 -235.174085 
L 417.192754 -232.770707 
L 417.203653 -230.367329 
L 417.173115 -227.963951 
L 417.10861 -225.560573 
L 417.018794 -223.157195 
L 416.912975 -220.753817 
L 416.800432 -218.350439 
L 416.689644 -215.947061 
L 416.587537 -213.543683 
L 416.498891 -211.140305 
L 416.426036 -208.736927 
L 416.368882 -206.333549 
L 416.325297 -203.930171 
L 416.291714 -201.526793 
L 416.263854 -199.123415 
L 416.237402 -196.720037 
L 416.208533 -194.316659 
L 416.174233 -191.913281 
L 416.132421 -189.509903 
L 416.08191 -187.106525 
L 416.022314 -184.703147 
L 415.95393 -182.299769 
L 415.877662 -179.896391 
L 415.794986 -177.493013 
L 415.707926 -175.089635 
L 415.618996 -172.686257 
L 415.53107 -170.282879 
L 415.447131 -167.879501 
L 415.36989 -165.476123 
L 415.301311 -163.072745 
L 415.242081 -160.669367 
L 415.191141 -158.265989 
L 415.145366 -155.862612 
L 415.09953 -153.459234 
L 415.04662 -151.055856 
L 414.978538 -148.652478 
L 414.887125 -146.2491 
L 414.765371 -143.845722 
L 414.608596 -141.442344 
L 414.415372 -139.038966 
L 414.187985 -136.635588 
L 413.932334 -134.23221 
L 413.657256 -131.828832 
L 413.373421 -129.425454 
L 413.092007 -127.022076 
L 412.823396 -124.618698 
L 412.576125 -122.21532 
L 412.356221 -119.811942 
L 412.166984 -117.408564 
L 412.009157 -115.005186 
L 411.881386 -112.601808 
L 411.780829 -110.19843 
L 411.703782 -107.795052 
L 411.646231 -105.391674 
L 411.604271 -102.988296 
L 411.574379 -100.584918 
L 411.553553 -98.18154 
L 411.539358 -95.778162 
z
" id="m01d015f6c0" style="stroke:#313131;stroke-width:1.5;"/>
    </defs>
    <g clip-path="url(#p0dd305728d)">
     <use style="fill:#eaa37b;stroke:#313131;stroke-width:1.5;" x="0" xlink:href="#m01d015f6c0" y="360"/>
    </g>
   </g>
   <g id="PolyCollection_6">
    <defs>
     <path d="M 477.666695 -91.54119 
L 477.665805 -91.54119 
L 477.665119 -93.929749 
L 477.664086 -96.318308 
L 477.66307 -98.706868 
L 477.662368 -101.095427 
L 477.661332 -103.483986 
L 477.658235 -105.872546 
L 477.651824 -108.261105 
L 477.643145 -110.649665 
L 477.634231 -113.038224 
L 477.623655 -115.426783 
L 477.605939 -117.815343 
L 477.578646 -120.203902 
L 477.545988 -122.592461 
L 477.508943 -124.981021 
L 477.45818 -127.36958 
L 477.387943 -129.758139 
L 477.306096 -132.146699 
L 477.212077 -134.535258 
L 477.078821 -136.923817 
L 476.877473 -139.312377 
L 476.611192 -141.700936 
L 476.321277 -144.089496 
L 476.06086 -146.478055 
L 475.83653 -148.866614 
L 475.582022 -151.255174 
L 475.234191 -153.643733 
L 474.82629 -156.032292 
L 474.458977 -158.420852 
L 474.184205 -160.809411 
L 473.960101 -163.19797 
L 473.721864 -165.58653 
L 473.473324 -167.975089 
L 473.288626 -170.363649 
L 473.190428 -172.752208 
L 473.040018 -175.140767 
L 472.616472 -177.529327 
L 471.84607 -179.917886 
L 470.951396 -182.306445 
L 470.302578 -184.695005 
L 470.049358 -187.083564 
L 469.986442 -189.472123 
L 469.862268 -191.860683 
L 469.694844 -194.249242 
L 469.692762 -196.637802 
L 469.966403 -199.026361 
L 470.385053 -201.41492 
L 470.680804 -203.80348 
L 470.696581 -206.192039 
L 470.544622 -208.580598 
L 470.483279 -210.969158 
L 470.635066 -213.357717 
L 470.889439 -215.746276 
L 471.107129 -218.134836 
L 471.287752 -220.523395 
L 471.466999 -222.911954 
L 471.631512 -225.300514 
L 471.789082 -227.689073 
L 471.969703 -230.077633 
L 472.193417 -232.466192 
L 472.504234 -234.854751 
L 472.923467 -237.243311 
L 473.387795 -239.63187 
L 473.832906 -242.020429 
L 474.252938 -244.408989 
L 474.637113 -246.797548 
L 474.961835 -249.186107 
L 475.247028 -251.574667 
L 475.528363 -253.963226 
L 475.796133 -256.351786 
L 476.02178 -258.740345 
L 476.208639 -261.128904 
L 476.378517 -263.517464 
L 476.542193 -265.906023 
L 476.699331 -268.294582 
L 476.843005 -270.683142 
L 476.960989 -273.071701 
L 477.044433 -275.46026 
L 477.097079 -277.84882 
L 477.135442 -280.237379 
L 477.177731 -282.625938 
L 477.230419 -285.014498 
L 477.287413 -287.403057 
L 477.341099 -289.791617 
L 477.39042 -292.180176 
L 477.438624 -294.568735 
L 477.486521 -296.957295 
L 477.530191 -299.345854 
L 477.56517 -301.734413 
L 477.591006 -304.122973 
L 477.610557 -306.511532 
L 477.62585 -308.900091 
L 477.636349 -311.288651 
L 477.641425 -313.67721 
L 477.643084 -316.06577 
L 477.645071 -318.454329 
L 477.649595 -320.842888 
L 477.655725 -323.231448 
L 477.66107 -325.620007 
L 477.664295 -328.008566 
L 477.668205 -328.008566 
L 477.668205 -328.008566 
L 477.67143 -325.620007 
L 477.676775 -323.231448 
L 477.682905 -320.842888 
L 477.687429 -318.454329 
L 477.689416 -316.06577 
L 477.691075 -313.67721 
L 477.696151 -311.288651 
L 477.70665 -308.900091 
L 477.721943 -306.511532 
L 477.741494 -304.122973 
L 477.76733 -301.734413 
L 477.802309 -299.345854 
L 477.845979 -296.957295 
L 477.893876 -294.568735 
L 477.94208 -292.180176 
L 477.991401 -289.791617 
L 478.045087 -287.403057 
L 478.102081 -285.014498 
L 478.154769 -282.625938 
L 478.197058 -280.237379 
L 478.235421 -277.84882 
L 478.288067 -275.46026 
L 478.371511 -273.071701 
L 478.489495 -270.683142 
L 478.633169 -268.294582 
L 478.790307 -265.906023 
L 478.953983 -263.517464 
L 479.123861 -261.128904 
L 479.31072 -258.740345 
L 479.536367 -256.351786 
L 479.804137 -253.963226 
L 480.085472 -251.574667 
L 480.370665 -249.186107 
L 480.695387 -246.797548 
L 481.079562 -244.408989 
L 481.499594 -242.020429 
L 481.944705 -239.63187 
L 482.409033 -237.243311 
L 482.828266 -234.854751 
L 483.139083 -232.466192 
L 483.362797 -230.077633 
L 483.543418 -227.689073 
L 483.700988 -225.300514 
L 483.865501 -222.911954 
L 484.044748 -220.523395 
L 484.225371 -218.134836 
L 484.443061 -215.746276 
L 484.697434 -213.357717 
L 484.849221 -210.969158 
L 484.787878 -208.580598 
L 484.635919 -206.192039 
L 484.651696 -203.80348 
L 484.947447 -201.41492 
L 485.366097 -199.026361 
L 485.639738 -196.637802 
L 485.637656 -194.249242 
L 485.470232 -191.860683 
L 485.346058 -189.472123 
L 485.283142 -187.083564 
L 485.029922 -184.695005 
L 484.381104 -182.306445 
L 483.48643 -179.917886 
L 482.716028 -177.529327 
L 482.292482 -175.140767 
L 482.142072 -172.752208 
L 482.043874 -170.363649 
L 481.859176 -167.975089 
L 481.610636 -165.58653 
L 481.372399 -163.19797 
L 481.148295 -160.809411 
L 480.873523 -158.420852 
L 480.50621 -156.032292 
L 480.098309 -153.643733 
L 479.750478 -151.255174 
L 479.49597 -148.866614 
L 479.27164 -146.478055 
L 479.011223 -144.089496 
L 478.721308 -141.700936 
L 478.455027 -139.312377 
L 478.253679 -136.923817 
L 478.120423 -134.535258 
L 478.026404 -132.146699 
L 477.944557 -129.758139 
L 477.87432 -127.36958 
L 477.823557 -124.981021 
L 477.786512 -122.592461 
L 477.753854 -120.203902 
L 477.726561 -117.815343 
L 477.708845 -115.426783 
L 477.698269 -113.038224 
L 477.689355 -110.649665 
L 477.680676 -108.261105 
L 477.674265 -105.872546 
L 477.671168 -103.483986 
L 477.670132 -101.095427 
L 477.66943 -98.706868 
L 477.668414 -96.318308 
L 477.667381 -93.929749 
L 477.666695 -91.54119 
z
" id="m9bde45c457" style="stroke:#313131;stroke-width:1.5;"/>
    </defs>
    <g clip-path="url(#p0dd305728d)">
     <use style="fill:#eebe95;stroke:#313131;stroke-width:1.5;" x="0" xlink:href="#m9bde45c457" y="360"/>
    </g>
   </g>
   <g id="PolyCollection_7">
    <defs>
     <path d="M 543.918963 -104.09499 
L 543.718537 -104.09499 
L 543.680831 -105.652556 
L 543.634136 -107.210123 
L 543.578394 -108.76769 
L 543.514384 -110.325256 
L 543.443872 -111.882823 
L 543.369647 -113.44039 
L 543.295418 -114.997956 
L 543.225543 -116.555523 
L 543.164611 -118.11309 
L 543.116916 -119.670656 
L 543.085911 -121.228223 
L 543.073712 -122.785789 
L 543.080748 -124.343356 
L 543.105611 -125.900923 
L 543.145144 -127.458489 
L 543.194739 -129.016056 
L 543.248816 -130.573623 
L 543.301391 -132.131189 
L 543.346668 -133.688756 
L 543.379573 -135.246323 
L 543.396172 -136.803889 
L 543.393929 -138.361456 
L 543.371791 -139.919023 
L 543.330082 -141.476589 
L 543.270222 -143.034156 
L 543.194284 -144.591723 
L 543.104436 -146.149289 
L 543.002337 -147.706856 
L 542.888572 -149.264422 
L 542.762236 -150.821989 
L 542.620767 -152.379556 
L 542.460111 -153.937122 
L 542.275226 -155.494689 
L 542.060884 -157.052256 
L 541.812637 -158.609822 
L 541.52776 -160.167389 
L 541.205978 -161.724956 
L 540.849783 -163.282522 
L 540.464257 -164.840089 
L 540.056405 -166.397656 
L 539.634125 -167.955222 
L 539.205018 -169.512789 
L 538.775306 -171.070356 
L 538.349074 -172.627922 
L 537.927983 -174.185489 
L 537.511487 -175.743056 
L 537.097464 -177.300622 
L 536.683086 -178.858189 
L 536.265721 -180.415755 
L 535.843701 -181.973322 
L 535.416839 -183.530889 
L 534.986689 -185.088455 
L 534.5566 -186.646022 
L 534.131655 -188.203589 
L 533.718572 -189.761155 
L 533.325592 -191.318722 
L 532.96233 -192.876289 
L 532.639519 -194.433855 
L 532.368568 -195.991422 
L 532.160896 -197.548989 
L 532.027069 -199.106555 
L 531.975823 -200.664122 
L 532.013134 -202.221689 
L 532.14148 -203.779255 
L 532.359466 -205.336822 
L 532.661856 -206.894388 
L 533.040055 -208.451955 
L 533.482933 -210.009522 
L 533.977876 -211.567088 
L 534.511899 -213.124655 
L 535.072638 -214.682222 
L 535.649106 -216.239788 
L 536.232117 -217.797355 
L 536.814364 -219.354922 
L 537.390196 -220.912488 
L 537.955197 -222.470055 
L 538.50568 -224.027622 
L 539.038241 -225.585188 
L 539.549468 -227.142755 
L 540.035855 -228.700322 
L 540.493923 -230.257888 
L 540.920491 -231.815455 
L 541.313 -233.373022 
L 541.669802 -234.930588 
L 541.990335 -236.488155 
L 542.27514 -238.045721 
L 542.525727 -239.603288 
L 542.744331 -241.160855 
L 542.933621 -242.718421 
L 543.096417 -244.275988 
L 543.235476 -245.833555 
L 543.35336 -247.391121 
L 543.45239 -248.948688 
L 543.53466 -250.506255 
L 543.602092 -252.063821 
L 543.656489 -253.621388 
L 543.699579 -255.178955 
L 543.733025 -256.736521 
L 543.758418 -258.294088 
L 543.879082 -258.294088 
L 543.879082 -258.294088 
L 543.904475 -256.736521 
L 543.937921 -255.178955 
L 543.981011 -253.621388 
L 544.035408 -252.063821 
L 544.10284 -250.506255 
L 544.18511 -248.948688 
L 544.28414 -247.391121 
L 544.402024 -245.833555 
L 544.541083 -244.275988 
L 544.703879 -242.718421 
L 544.893169 -241.160855 
L 545.111773 -239.603288 
L 545.36236 -238.045721 
L 545.647165 -236.488155 
L 545.967698 -234.930588 
L 546.3245 -233.373022 
L 546.717009 -231.815455 
L 547.143577 -230.257888 
L 547.601645 -228.700322 
L 548.088032 -227.142755 
L 548.599259 -225.585188 
L 549.13182 -224.027622 
L 549.682303 -222.470055 
L 550.247304 -220.912488 
L 550.823136 -219.354922 
L 551.405383 -217.797355 
L 551.988394 -216.239788 
L 552.564862 -214.682222 
L 553.125601 -213.124655 
L 553.659624 -211.567088 
L 554.154567 -210.009522 
L 554.597445 -208.451955 
L 554.975644 -206.894388 
L 555.278034 -205.336822 
L 555.49602 -203.779255 
L 555.624366 -202.221689 
L 555.661677 -200.664122 
L 555.610431 -199.106555 
L 555.476604 -197.548989 
L 555.268932 -195.991422 
L 554.997981 -194.433855 
L 554.67517 -192.876289 
L 554.311908 -191.318722 
L 553.918928 -189.761155 
L 553.505845 -188.203589 
L 553.0809 -186.646022 
L 552.650811 -185.088455 
L 552.220661 -183.530889 
L 551.793799 -181.973322 
L 551.371779 -180.415755 
L 550.954414 -178.858189 
L 550.540036 -177.300622 
L 550.126013 -175.743056 
L 549.709517 -174.185489 
L 549.288426 -172.627922 
L 548.862194 -171.070356 
L 548.432482 -169.512789 
L 548.003375 -167.955222 
L 547.581095 -166.397656 
L 547.173243 -164.840089 
L 546.787717 -163.282522 
L 546.431522 -161.724956 
L 546.10974 -160.167389 
L 545.824863 -158.609822 
L 545.576616 -157.052256 
L 545.362274 -155.494689 
L 545.177389 -153.937122 
L 545.016733 -152.379556 
L 544.875264 -150.821989 
L 544.748928 -149.264422 
L 544.635163 -147.706856 
L 544.533064 -146.149289 
L 544.443216 -144.591723 
L 544.367278 -143.034156 
L 544.307418 -141.476589 
L 544.265709 -139.919023 
L 544.243571 -138.361456 
L 544.241328 -136.803889 
L 544.257927 -135.246323 
L 544.290832 -133.688756 
L 544.336109 -132.131189 
L 544.388684 -130.573623 
L 544.442761 -129.016056 
L 544.492356 -127.458489 
L 544.531889 -125.900923 
L 544.556752 -124.343356 
L 544.563788 -122.785789 
L 544.551589 -121.228223 
L 544.520584 -119.670656 
L 544.472889 -118.11309 
L 544.411957 -116.555523 
L 544.342082 -114.997956 
L 544.267853 -113.44039 
L 544.193628 -111.882823 
L 544.123116 -110.325256 
L 544.059106 -108.76769 
L 544.003364 -107.210123 
L 543.956669 -105.652556 
L 543.918963 -104.09499 
z
" id="m07aa4131ca" style="stroke:#313131;stroke-width:1.5;"/>
    </defs>
    <g clip-path="url(#p0dd305728d)">
     <use style="fill:#f1cfa6;stroke:#313131;stroke-width:1.5;" x="0" xlink:href="#m07aa4131ca" y="360"/>
    </g>
   </g>
   <g id="PolyCollection_8">
    <defs>
     <path d="M 609.976956 -122.803755 
L 609.965544 -122.803755 
L 609.958809 -124.861989 
L 609.947684 -126.920223 
L 609.931507 -128.978458 
L 609.909341 -131.036692 
L 609.878247 -133.094927 
L 609.832231 -135.153161 
L 609.763865 -137.211396 
L 609.668301 -139.26963 
L 609.546574 -141.327865 
L 609.404661 -143.386099 
L 609.248396 -145.444333 
L 609.079012 -147.502568 
L 608.893483 -149.560802 
L 608.686774 -151.619037 
L 608.450015 -153.677271 
L 608.166237 -155.735506 
L 607.811732 -157.79374 
L 607.365245 -159.851974 
L 606.819362 -161.910209 
L 606.1898 -163.968443 
L 605.520327 -166.026678 
L 604.875603 -168.084912 
L 604.314067 -170.143147 
L 603.850904 -172.201381 
L 603.442178 -174.259616 
L 603.013839 -176.31785 
L 602.520411 -178.376084 
L 601.985545 -180.434319 
L 601.486622 -182.492553 
L 601.09411 -184.550788 
L 600.821325 -186.609022 
L 600.633734 -188.667257 
L 600.504927 -190.725491 
L 600.454704 -192.783726 
L 600.527974 -194.84196 
L 600.74119 -196.900194 
L 601.049146 -198.958429 
L 601.352961 -201.016663 
L 601.540212 -203.074898 
L 601.544947 -205.133132 
L 601.402483 -207.191367 
L 601.251416 -209.249601 
L 601.257538 -211.307835 
L 601.506423 -213.36607 
L 601.953498 -215.424304 
L 602.471678 -217.482539 
L 602.946216 -219.540773 
L 603.334846 -221.599008 
L 603.661227 -223.657242 
L 603.970879 -225.715477 
L 604.294553 -227.773711 
L 604.642166 -229.831945 
L 605.017623 -231.89018 
L 605.426276 -233.948414 
L 605.864787 -236.006649 
L 606.315877 -238.064883 
L 606.764272 -240.123118 
L 607.211534 -242.181352 
L 607.663608 -244.239587 
L 608.106864 -246.297821 
L 608.507917 -248.356055 
L 608.838964 -250.41429 
L 609.097525 -252.472524 
L 609.301477 -254.530759 
L 609.470822 -256.588993 
L 609.615631 -258.647228 
L 609.735932 -260.705462 
L 609.827787 -262.763696 
L 609.889073 -264.821931 
L 609.92223 -266.880165 
L 609.934052 -268.9384 
L 609.933775 -270.996634 
L 609.93053 -273.054869 
L 609.930761 -275.113103 
L 609.936559 -277.171338 
L 609.946068 -279.229572 
L 609.955833 -281.287806 
L 609.963298 -283.346041 
L 609.967796 -285.404275 
L 609.969987 -287.46251 
L 609.970861 -289.520744 
L 609.971149 -291.578979 
L 609.971228 -293.637213 
L 609.971243 -295.695447 
L 609.971235 -297.753682 
L 609.971185 -299.811916 
L 609.971008 -301.870151 
L 609.970488 -303.928385 
L 609.969228 -305.98662 
L 609.966732 -308.044854 
L 609.962751 -310.103089 
L 609.957785 -312.161323 
L 609.953289 -314.219557 
L 609.951075 -316.277792 
L 609.952167 -318.336026 
L 609.956051 -320.394261 
L 609.961056 -322.452495 
L 609.965493 -324.51073 
L 609.968512 -326.568964 
L 609.973988 -326.568964 
L 609.973988 -326.568964 
L 609.977007 -324.51073 
L 609.981444 -322.452495 
L 609.986449 -320.394261 
L 609.990333 -318.336026 
L 609.991425 -316.277792 
L 609.989211 -314.219557 
L 609.984715 -312.161323 
L 609.979749 -310.103089 
L 609.975768 -308.044854 
L 609.973272 -305.98662 
L 609.972012 -303.928385 
L 609.971492 -301.870151 
L 609.971315 -299.811916 
L 609.971265 -297.753682 
L 609.971257 -295.695447 
L 609.971272 -293.637213 
L 609.971351 -291.578979 
L 609.971639 -289.520744 
L 609.972513 -287.46251 
L 609.974704 -285.404275 
L 609.979202 -283.346041 
L 609.986667 -281.287806 
L 609.996432 -279.229572 
L 610.005941 -277.171338 
L 610.011739 -275.113103 
L 610.01197 -273.054869 
L 610.008725 -270.996634 
L 610.008448 -268.9384 
L 610.02027 -266.880165 
L 610.053427 -264.821931 
L 610.114713 -262.763696 
L 610.206568 -260.705462 
L 610.326869 -258.647228 
L 610.471678 -256.588993 
L 610.641023 -254.530759 
L 610.844975 -252.472524 
L 611.103536 -250.41429 
L 611.434583 -248.356055 
L 611.835636 -246.297821 
L 612.278892 -244.239587 
L 612.730966 -242.181352 
L 613.178228 -240.123118 
L 613.626623 -238.064883 
L 614.077713 -236.006649 
L 614.516224 -233.948414 
L 614.924877 -231.89018 
L 615.300334 -229.831945 
L 615.647947 -227.773711 
L 615.971621 -225.715477 
L 616.281273 -223.657242 
L 616.607654 -221.599008 
L 616.996284 -219.540773 
L 617.470822 -217.482539 
L 617.989002 -215.424304 
L 618.436077 -213.36607 
L 618.684962 -211.307835 
L 618.691084 -209.249601 
L 618.540017 -207.191367 
L 618.397553 -205.133132 
L 618.402288 -203.074898 
L 618.589539 -201.016663 
L 618.893354 -198.958429 
L 619.20131 -196.900194 
L 619.414526 -194.84196 
L 619.487796 -192.783726 
L 619.437573 -190.725491 
L 619.308766 -188.667257 
L 619.121175 -186.609022 
L 618.84839 -184.550788 
L 618.455878 -182.492553 
L 617.956955 -180.434319 
L 617.422089 -178.376084 
L 616.928661 -176.31785 
L 616.500322 -174.259616 
L 616.091596 -172.201381 
L 615.628433 -170.143147 
L 615.066897 -168.084912 
L 614.422173 -166.026678 
L 613.7527 -163.968443 
L 613.123138 -161.910209 
L 612.577255 -159.851974 
L 612.130768 -157.79374 
L 611.776263 -155.735506 
L 611.492485 -153.677271 
L 611.255726 -151.619037 
L 611.049017 -149.560802 
L 610.863488 -147.502568 
L 610.694104 -145.444333 
L 610.537839 -143.386099 
L 610.395926 -141.327865 
L 610.274199 -139.26963 
L 610.178635 -137.211396 
L 610.110269 -135.153161 
L 610.064253 -133.094927 
L 610.033159 -131.036692 
L 610.010993 -128.978458 
L 609.994816 -126.920223 
L 609.983691 -124.861989 
L 609.976956 -122.803755 
z
" id="m1e44106f7f" style="stroke:#313131;stroke-width:1.5;"/>
    </defs>
    <g clip-path="url(#p0dd305728d)">
     <use style="fill:#f5debe;stroke:#313131;stroke-width:1.5;" x="0" xlink:href="#m1e44106f7f" y="360"/>
    </g>
   </g>
   <g id="PolyCollection_9">
    <defs>
     <path d="M 677.114315 -163.356946 
L 675.133185 -163.356946 
L 674.99155 -164.144061 
L 674.834783 -164.931176 
L 674.662085 -165.718291 
L 674.472739 -166.505406 
L 674.266126 -167.292521 
L 674.041745 -168.079636 
L 673.799236 -168.866751 
L 673.538395 -169.653866 
L 673.259192 -170.440981 
L 672.961787 -171.228096 
L 672.646543 -172.015211 
L 672.314035 -172.802326 
L 671.965059 -173.589441 
L 671.60063 -174.376556 
L 671.221989 -175.163671 
L 670.830588 -175.950785 
L 670.428089 -176.7379 
L 670.016344 -177.525015 
L 669.597382 -178.31213 
L 669.173381 -179.099245 
L 668.746648 -179.88636 
L 668.319586 -180.673475 
L 667.894665 -181.46059 
L 667.474385 -182.247705 
L 667.061248 -183.03482 
L 666.657715 -183.821935 
L 666.266175 -184.60905 
L 665.888911 -185.396165 
L 665.528065 -186.18328 
L 665.185611 -186.970395 
L 664.863326 -187.75751 
L 664.562767 -188.544625 
L 664.285253 -189.33174 
L 664.031849 -190.118855 
L 663.803358 -190.90597 
L 663.600314 -191.693085 
L 663.422986 -192.4802 
L 663.271382 -193.267315 
L 663.145259 -194.05443 
L 663.044143 -194.841545 
L 662.967344 -195.62866 
L 662.913987 -196.415775 
L 662.883032 -197.20289 
L 662.873312 -197.990005 
L 662.883562 -198.77712 
L 662.912456 -199.564235 
L 662.958638 -200.35135 
L 663.02076 -201.138465 
L 663.097514 -201.92558 
L 663.187661 -202.712695 
L 663.290061 -203.49981 
L 663.403698 -204.286925 
L 663.527695 -205.07404 
L 663.661334 -205.861155 
L 663.804058 -206.64827 
L 663.955481 -207.435385 
L 664.115381 -208.2225 
L 664.28369 -209.009615 
L 664.460481 -209.79673 
L 664.645948 -210.583845 
L 664.840382 -211.37096 
L 665.044141 -212.158075 
L 665.257624 -212.94519 
L 665.481229 -213.732305 
L 665.715333 -214.51942 
L 665.960247 -215.306535 
L 666.216194 -216.093649 
L 666.483277 -216.880764 
L 666.761456 -217.667879 
L 667.050529 -218.454994 
L 667.350116 -219.242109 
L 667.659654 -220.029224 
L 667.978391 -220.816339 
L 668.305391 -221.603454 
L 668.639544 -222.390569 
L 668.979583 -223.177684 
L 669.324099 -223.964799 
L 669.671568 -224.751914 
L 670.02038 -225.539029 
L 670.368866 -226.326144 
L 670.715332 -227.113259 
L 671.058086 -227.900374 
L 671.395475 -228.687489 
L 671.725909 -229.474604 
L 672.047892 -230.261719 
L 672.360045 -231.048834 
L 672.661124 -231.835949 
L 672.95004 -232.623064 
L 673.225869 -233.410179 
L 673.487863 -234.197294 
L 673.735447 -234.984409 
L 673.968228 -235.771524 
L 674.18598 -236.558639 
L 674.388647 -237.345754 
L 674.576325 -238.132869 
L 674.74925 -238.919984 
L 674.907786 -239.707099 
L 675.052408 -240.494214 
L 675.183682 -241.281329 
L 677.063818 -241.281329 
L 677.063818 -241.281329 
L 677.195092 -240.494214 
L 677.339714 -239.707099 
L 677.49825 -238.919984 
L 677.671175 -238.132869 
L 677.858853 -237.345754 
L 678.06152 -236.558639 
L 678.279272 -235.771524 
L 678.512053 -234.984409 
L 678.759637 -234.197294 
L 679.021631 -233.410179 
L 679.29746 -232.623064 
L 679.586376 -231.835949 
L 679.887455 -231.048834 
L 680.199608 -230.261719 
L 680.521591 -229.474604 
L 680.852025 -228.687489 
L 681.189414 -227.900374 
L 681.532168 -227.113259 
L 681.878634 -226.326144 
L 682.22712 -225.539029 
L 682.575932 -224.751914 
L 682.923401 -223.964799 
L 683.267917 -223.177684 
L 683.607956 -222.390569 
L 683.942109 -221.603454 
L 684.269109 -220.816339 
L 684.587846 -220.029224 
L 684.897384 -219.242109 
L 685.196971 -218.454994 
L 685.486044 -217.667879 
L 685.764223 -216.880764 
L 686.031306 -216.093649 
L 686.287253 -215.306535 
L 686.532167 -214.51942 
L 686.766271 -213.732305 
L 686.989876 -212.94519 
L 687.203359 -212.158075 
L 687.407118 -211.37096 
L 687.601552 -210.583845 
L 687.787019 -209.79673 
L 687.96381 -209.009615 
L 688.132119 -208.2225 
L 688.292019 -207.435385 
L 688.443442 -206.64827 
L 688.586166 -205.861155 
L 688.719805 -205.07404 
L 688.843802 -204.286925 
L 688.957439 -203.49981 
L 689.059839 -202.712695 
L 689.149986 -201.92558 
L 689.22674 -201.138465 
L 689.288862 -200.35135 
L 689.335044 -199.564235 
L 689.363938 -198.77712 
L 689.374188 -197.990005 
L 689.364468 -197.20289 
L 689.333513 -196.415775 
L 689.280156 -195.62866 
L 689.203357 -194.841545 
L 689.102241 -194.05443 
L 688.976118 -193.267315 
L 688.824514 -192.4802 
L 688.647186 -191.693085 
L 688.444142 -190.90597 
L 688.215651 -190.118855 
L 687.962247 -189.33174 
L 687.684733 -188.544625 
L 687.384174 -187.75751 
L 687.061889 -186.970395 
L 686.719435 -186.18328 
L 686.358589 -185.396165 
L 685.981325 -184.60905 
L 685.589785 -183.821935 
L 685.186252 -183.03482 
L 684.773115 -182.247705 
L 684.352835 -181.46059 
L 683.927914 -180.673475 
L 683.500852 -179.88636 
L 683.074119 -179.099245 
L 682.650118 -178.31213 
L 682.231156 -177.525015 
L 681.819411 -176.7379 
L 681.416912 -175.950785 
L 681.025511 -175.163671 
L 680.64687 -174.376556 
L 680.282441 -173.589441 
L 679.933465 -172.802326 
L 679.600957 -172.015211 
L 679.285713 -171.228096 
L 678.988308 -170.440981 
L 678.709105 -169.653866 
L 678.448264 -168.866751 
L 678.205755 -168.079636 
L 677.981374 -167.292521 
L 677.774761 -166.505406 
L 677.585415 -165.718291 
L 677.412717 -164.931176 
L 677.25595 -164.144061 
L 677.114315 -163.356946 
z
" id="m036d9e51ba" style="stroke:#313131;stroke-width:1.5;"/>
    </defs>
    <g clip-path="url(#p0dd305728d)">
     <use style="fill:#f9ebd8;stroke:#313131;stroke-width:1.5;" x="0" xlink:href="#m036d9e51ba" y="360"/>
    </g>
   </g>
   <g id="line2d_7">
    <path clip-path="url(#p0dd305728d)" d="M 54.29025 132.828394 
L 107.21225 132.828394 
" style="fill:none;stroke:#313131;stroke-linecap:round;stroke-width:1.5;"/>
   </g>
   <g id="line2d_8">
    <path clip-path="url(#p0dd305728d)" d="M 146.90375 147.739875 
L 146.90375 117.916912 
" style="fill:none;stroke:#313131;stroke-linecap:round;stroke-width:1.5;"/>
   </g>
   <g id="line2d_9">
    <path clip-path="url(#p0dd305728d)" d="M 146.90375 142.769381 
L 146.90375 127.8579 
" style="fill:none;stroke:#313131;stroke-linecap:round;stroke-width:4.5;"/>
   </g>
   <g id="line2d_10">
    <path clip-path="url(#p0dd305728d)" d="M 213.05625 147.739875 
L 213.05625 132.828394 
" style="fill:none;stroke:#313131;stroke-linecap:round;stroke-width:1.5;"/>
   </g>
   <g id="line2d_11">
    <path clip-path="url(#p0dd305728d)" d="M 213.05625 147.739875 
L 213.05625 132.828394 
" style="fill:none;stroke:#313131;stroke-linecap:round;stroke-width:4.5;"/>
   </g>
   <g id="line2d_12">
    <path clip-path="url(#p0dd305728d)" d="M 279.20875 229.753022 
L 279.20875 90.579197 
" style="fill:none;stroke:#313131;stroke-linecap:round;stroke-width:1.5;"/>
   </g>
   <g id="line2d_13">
    <path clip-path="url(#p0dd305728d)" d="M 279.20875 177.562838 
L 279.20875 142.769381 
" style="fill:none;stroke:#313131;stroke-linecap:round;stroke-width:4.5;"/>
   </g>
   <g id="line2d_14">
    <path clip-path="url(#p0dd305728d)" d="M 345.36125 234.723516 
L 345.36125 157.680863 
" style="fill:none;stroke:#313131;stroke-linecap:round;stroke-width:1.5;"/>
   </g>
   <g id="line2d_15">
    <path clip-path="url(#p0dd305728d)" d="M 345.36125 196.202189 
L 345.36125 157.680863 
" style="fill:none;stroke:#313131;stroke-linecap:round;stroke-width:4.5;"/>
   </g>
   <g id="line2d_16">
    <path clip-path="url(#p0dd305728d)" d="M 411.51375 237.208763 
L 411.51375 53.300493 
" style="fill:none;stroke:#313131;stroke-linecap:round;stroke-width:1.5;"/>
   </g>
   <g id="line2d_17">
    <path clip-path="url(#p0dd305728d)" d="M 411.51375 187.503825 
L 411.51375 127.8579 
" style="fill:none;stroke:#313131;stroke-linecap:round;stroke-width:4.5;"/>
   </g>
   <g id="line2d_18">
    <path clip-path="url(#p0dd305728d)" d="M 477.66625 237.208763 
L 477.66625 70.697222 
" style="fill:none;stroke:#313131;stroke-linecap:round;stroke-width:1.5;"/>
   </g>
   <g id="line2d_19">
    <path clip-path="url(#p0dd305728d)" d="M 477.66625 175.077591 
L 477.66625 132.828394 
" style="fill:none;stroke:#313131;stroke-linecap:round;stroke-width:4.5;"/>
   </g>
   <g id="line2d_20">
    <path clip-path="url(#p0dd305728d)" d="M 543.81875 207.3858 
L 543.81875 120.402159 
" style="fill:none;stroke:#313131;stroke-linecap:round;stroke-width:1.5;"/>
   </g>
   <g id="line2d_21">
    <path clip-path="url(#p0dd305728d)" d="M 543.81875 175.077591 
L 543.81875 150.225122 
" style="fill:none;stroke:#313131;stroke-linecap:round;stroke-width:4.5;"/>
   </g>
   <g id="line2d_22">
    <path clip-path="url(#p0dd305728d)" d="M 609.97125 227.267776 
L 609.97125 100.520184 
" style="fill:none;stroke:#313131;stroke-linecap:round;stroke-width:1.5;"/>
   </g>
   <g id="line2d_23">
    <path clip-path="url(#p0dd305728d)" d="M 609.97125 177.562838 
L 609.97125 142.769381 
" style="fill:none;stroke:#313131;stroke-linecap:round;stroke-width:4.5;"/>
   </g>
   <g id="line2d_24">
    <path clip-path="url(#p0dd305728d)" d="M 676.12375 172.592344 
L 676.12375 142.769381 
" style="fill:none;stroke:#313131;stroke-linecap:round;stroke-width:1.5;"/>
   </g>
   <g id="line2d_25">
    <path clip-path="url(#p0dd305728d)" d="M 676.12375 166.379227 
L 676.12375 151.467745 
" style="fill:none;stroke:#313131;stroke-linecap:round;stroke-width:4.5;"/>
   </g>
   <g id="patch_3">
    <path d="M 47.675 320.2 
L 47.675 10.8 
" style="fill:none;stroke:#ffffff;stroke-linecap:square;stroke-linejoin:miter;stroke-width:0.8;"/>
   </g>
   <g id="patch_4">
    <path d="M 709.2 320.2 
L 709.2 10.8 
" style="fill:none;stroke:#ffffff;stroke-linecap:square;stroke-linejoin:miter;stroke-width:0.8;"/>
   </g>
   <g id="patch_5">
    <path d="M 47.675 320.2 
L 709.2 320.2 
" style="fill:none;stroke:#ffffff;stroke-linecap:square;stroke-linejoin:miter;stroke-width:0.8;"/>
   </g>
   <g id="patch_6">
    <path d="M 47.675 10.8 
L 709.2 10.8 
" style="fill:none;stroke:#ffffff;stroke-linecap:square;stroke-linejoin:miter;stroke-width:0.8;"/>
   </g>
   <g id="PathCollection_1">
    <defs>
     <path d="M 0 1.5 
C 0.397805 1.5 0.77937 1.341951 1.06066 1.06066 
C 1.341951 0.77937 1.5 0.397805 1.5 0 
C 1.5 -0.397805 1.341951 -0.77937 1.06066 -1.06066 
C 0.77937 -1.341951 0.397805 -1.5 0 -1.5 
C -0.397805 -1.5 -0.77937 -1.341951 -1.06066 -1.06066 
C -1.341951 -0.77937 -1.5 -0.397805 -1.5 0 
C -1.5 0.397805 -1.341951 0.77937 -1.06066 1.06066 
C -0.77937 1.341951 -0.397805 1.5 0 1.5 
z
" id="m013154832b" style="stroke:#313131;"/>
    </defs>
    <g clip-path="url(#p0dd305728d)">
     <use style="fill:#ffffff;stroke:#313131;" x="146.90375" xlink:href="#m013154832b" y="140.284134"/>
    </g>
   </g>
   <g id="PathCollection_2">
    <g clip-path="url(#p0dd305728d)">
     <use style="fill:#ffffff;stroke:#313131;" x="213.05625" xlink:href="#m013154832b" y="147.739875"/>
    </g>
   </g>
   <g id="PathCollection_3">
    <g clip-path="url(#p0dd305728d)">
     <use style="fill:#ffffff;stroke:#313131;" x="279.20875" xlink:href="#m013154832b" y="157.680863"/>
    </g>
   </g>
   <g id="PathCollection_4">
    <g clip-path="url(#p0dd305728d)">
     <use style="fill:#ffffff;stroke:#313131;" x="345.36125" xlink:href="#m013154832b" y="157.680863"/>
    </g>
   </g>
   <g id="PathCollection_5">
    <g clip-path="url(#p0dd305728d)">
     <use style="fill:#ffffff;stroke:#313131;" x="411.51375" xlink:href="#m013154832b" y="157.680863"/>
    </g>
   </g>
   <g id="PathCollection_6">
    <g clip-path="url(#p0dd305728d)">
     <use style="fill:#ffffff;stroke:#313131;" x="477.66625" xlink:href="#m013154832b" y="157.680863"/>
    </g>
   </g>
   <g id="PathCollection_7">
    <g clip-path="url(#p0dd305728d)">
     <use style="fill:#ffffff;stroke:#313131;" x="543.81875" xlink:href="#m013154832b" y="160.16611"/>
    </g>
   </g>
   <g id="PathCollection_8">
    <g clip-path="url(#p0dd305728d)">
     <use style="fill:#ffffff;stroke:#313131;" x="609.97125" xlink:href="#m013154832b" y="160.16611"/>
    </g>
   </g>
   <g id="PathCollection_9">
    <g clip-path="url(#p0dd305728d)">
     <use style="fill:#ffffff;stroke:#313131;" x="676.12375" xlink:href="#m013154832b" y="160.16611"/>
    </g>
   </g>
  </g>
 </g>
 <defs>
  <clipPath id="p0dd305728d">
   <rect height="309.4" width="661.525" x="47.675" y="10.8"/>
  </clipPath>
 </defs>
</svg>
