<?xml version="1.0" encoding="utf-8" standalone="no"?>
<!DOCTYPE svg PUBLIC "-//W3C//DTD SVG 1.1//EN"
  "http://www.w3.org/Graphics/SVG/1.1/DTD/svg11.dtd">
<!-- Created with matplotlib (https://matplotlib.org/) -->
<svg height="432pt" version="1.1" viewBox="0 0 720 432" width="720pt" xmlns="http://www.w3.org/2000/svg" xmlns:xlink="http://www.w3.org/1999/xlink">
 <metadata>
  <rdf:RDF xmlns:cc="http://creativecommons.org/ns#" xmlns:dc="http://purl.org/dc/elements/1.1/" xmlns:rdf="http://www.w3.org/1999/02/22-rdf-syntax-ns#">
   <cc:Work>
    <dc:type rdf:resource="http://purl.org/dc/dcmitype/StillImage"/>
    <dc:date>2021-01-21T15:13:06.829918</dc:date>
    <dc:format>image/svg+xml</dc:format>
    <dc:creator>
     <cc:Agent>
      <dc:title>Matplotlib v3.3.0, https://matplotlib.org/</dc:title>
     </cc:Agent>
    </dc:creator>
   </cc:Work>
  </rdf:RDF>
 </metadata>
 <defs>
  <style type="text/css">*{stroke-linecap:butt;stroke-linejoin:round;}</style>
 </defs>
 <g id="figure_1">
  <g id="patch_1">
   <path d="M 0 432 
L 720 432 
L 720 0 
L 0 0 
z
" style="fill:#ffffff;"/>
  </g>
  <g id="axes_1">
   <g id="patch_2">
    <path d="M 90 378 
L 648 378 
L 648 51.84 
L 90 51.84 
z
" style="fill:#eaeaf2;"/>
   </g>
   <g id="matplotlib.axis_1">
    <g id="xtick_1">
     <g id="text_1">
      <!-- US-France -->
      <g style="fill:#262626;" transform="translate(121.628906 392.157812)scale(0.1 -0.1)">
       <defs>
        <path d="M 54.6875 71.578125 
L 64.15625 71.578125 
L 64.15625 30.21875 
Q 64.15625 19.4375 61.71875 13.078125 
Q 59.28125 6.734375 52.90625 2.75 
Q 46.53125 -1.21875 36.1875 -1.21875 
Q 26.125 -1.21875 19.71875 2.25 
Q 13.328125 5.71875 10.59375 12.28125 
Q 7.859375 18.84375 7.859375 30.21875 
L 7.859375 71.578125 
L 17.328125 71.578125 
L 17.328125 30.28125 
Q 17.328125 20.953125 19.0625 16.53125 
Q 20.796875 12.109375 25.015625 9.71875 
Q 29.25 7.328125 35.359375 7.328125 
Q 45.796875 7.328125 50.234375 12.0625 
Q 54.6875 16.796875 54.6875 30.28125 
z
" id="ArialMT-85"/>
        <path d="M 4.5 23 
L 13.421875 23.78125 
Q 14.0625 18.40625 16.375 14.96875 
Q 18.703125 11.53125 23.578125 9.40625 
Q 28.46875 7.28125 34.578125 7.28125 
Q 39.984375 7.28125 44.140625 8.890625 
Q 48.296875 10.5 50.3125 13.296875 
Q 52.34375 16.109375 52.34375 19.4375 
Q 52.34375 22.796875 50.390625 25.3125 
Q 48.4375 27.828125 43.953125 29.546875 
Q 41.0625 30.671875 31.203125 33.03125 
Q 21.34375 35.40625 17.390625 37.5 
Q 12.25 40.1875 9.734375 44.15625 
Q 7.234375 48.140625 7.234375 53.078125 
Q 7.234375 58.5 10.296875 63.203125 
Q 13.375 67.921875 19.28125 70.359375 
Q 25.203125 72.796875 32.421875 72.796875 
Q 40.375 72.796875 46.453125 70.234375 
Q 52.546875 67.671875 55.8125 62.6875 
Q 59.078125 57.71875 59.328125 51.421875 
L 50.25 50.734375 
Q 49.515625 57.515625 45.28125 60.984375 
Q 41.0625 64.453125 32.8125 64.453125 
Q 24.21875 64.453125 20.28125 61.296875 
Q 16.359375 58.15625 16.359375 53.71875 
Q 16.359375 49.859375 19.140625 47.359375 
Q 21.875 44.875 33.421875 42.265625 
Q 44.96875 39.65625 49.265625 37.703125 
Q 55.515625 34.8125 58.484375 30.390625 
Q 61.46875 25.984375 61.46875 20.21875 
Q 61.46875 14.5 58.203125 9.4375 
Q 54.9375 4.390625 48.796875 1.578125 
Q 42.671875 -1.21875 35.015625 -1.21875 
Q 25.296875 -1.21875 18.71875 1.609375 
Q 12.15625 4.4375 8.421875 10.125 
Q 4.6875 15.828125 4.5 23 
z
" id="ArialMT-83"/>
        <path d="M 3.171875 21.484375 
L 3.171875 30.328125 
L 30.171875 30.328125 
L 30.171875 21.484375 
z
" id="ArialMT-45"/>
        <path d="M 8.203125 0 
L 8.203125 71.578125 
L 56.5 71.578125 
L 56.5 63.140625 
L 17.671875 63.140625 
L 17.671875 40.96875 
L 51.265625 40.96875 
L 51.265625 32.515625 
L 17.671875 32.515625 
L 17.671875 0 
z
" id="ArialMT-70"/>
        <path d="M 6.5 0 
L 6.5 51.859375 
L 14.40625 51.859375 
L 14.40625 44 
Q 17.4375 49.515625 20 51.265625 
Q 22.5625 53.03125 25.640625 53.03125 
Q 30.078125 53.03125 34.671875 50.203125 
L 31.640625 42.046875 
Q 28.421875 43.953125 25.203125 43.953125 
Q 22.3125 43.953125 20.015625 42.21875 
Q 17.71875 40.484375 16.75 37.40625 
Q 15.28125 32.71875 15.28125 27.15625 
L 15.28125 0 
z
" id="ArialMT-114"/>
        <path d="M 40.4375 6.390625 
Q 35.546875 2.25 31.03125 0.53125 
Q 26.515625 -1.171875 21.34375 -1.171875 
Q 12.796875 -1.171875 8.203125 3 
Q 3.609375 7.171875 3.609375 13.671875 
Q 3.609375 17.484375 5.34375 20.625 
Q 7.078125 23.78125 9.890625 25.6875 
Q 12.703125 27.59375 16.21875 28.5625 
Q 18.796875 29.25 24.03125 29.890625 
Q 34.671875 31.15625 39.703125 32.90625 
Q 39.75 34.71875 39.75 35.203125 
Q 39.75 40.578125 37.25 42.78125 
Q 33.890625 45.75 27.25 45.75 
Q 21.046875 45.75 18.09375 43.578125 
Q 15.140625 41.40625 13.71875 35.890625 
L 5.125 37.0625 
Q 6.296875 42.578125 8.984375 45.96875 
Q 11.671875 49.359375 16.75 51.1875 
Q 21.828125 53.03125 28.515625 53.03125 
Q 35.15625 53.03125 39.296875 51.46875 
Q 43.453125 49.90625 45.40625 47.53125 
Q 47.359375 45.171875 48.140625 41.546875 
Q 48.578125 39.3125 48.578125 33.453125 
L 48.578125 21.734375 
Q 48.578125 9.46875 49.140625 6.21875 
Q 49.703125 2.984375 51.375 0 
L 42.1875 0 
Q 40.828125 2.734375 40.4375 6.390625 
z
M 39.703125 26.03125 
Q 34.90625 24.078125 25.34375 22.703125 
Q 19.921875 21.921875 17.671875 20.9375 
Q 15.4375 19.96875 14.203125 18.09375 
Q 12.984375 16.21875 12.984375 13.921875 
Q 12.984375 10.40625 15.640625 8.0625 
Q 18.3125 5.71875 23.4375 5.71875 
Q 28.515625 5.71875 32.46875 7.9375 
Q 36.421875 10.15625 38.28125 14.015625 
Q 39.703125 17 39.703125 22.796875 
z
" id="ArialMT-97"/>
        <path d="M 6.59375 0 
L 6.59375 51.859375 
L 14.5 51.859375 
L 14.5 44.484375 
Q 20.21875 53.03125 31 53.03125 
Q 35.6875 53.03125 39.625 51.34375 
Q 43.5625 49.65625 45.515625 46.921875 
Q 47.46875 44.1875 48.25 40.4375 
Q 48.734375 37.984375 48.734375 31.890625 
L 48.734375 0 
L 39.9375 0 
L 39.9375 31.546875 
Q 39.9375 36.921875 38.90625 39.578125 
Q 37.890625 42.234375 35.28125 43.8125 
Q 32.671875 45.40625 29.15625 45.40625 
Q 23.53125 45.40625 19.453125 41.84375 
Q 15.375 38.28125 15.375 28.328125 
L 15.375 0 
z
" id="ArialMT-110"/>
        <path d="M 40.4375 19 
L 49.078125 17.875 
Q 47.65625 8.9375 41.8125 3.875 
Q 35.984375 -1.171875 27.484375 -1.171875 
Q 16.84375 -1.171875 10.375 5.78125 
Q 3.90625 12.75 3.90625 25.734375 
Q 3.90625 34.125 6.6875 40.421875 
Q 9.46875 46.734375 15.15625 49.875 
Q 20.84375 53.03125 27.546875 53.03125 
Q 35.984375 53.03125 41.359375 48.75 
Q 46.734375 44.484375 48.25 36.625 
L 39.703125 35.296875 
Q 38.484375 40.53125 35.375 43.15625 
Q 32.28125 45.796875 27.875 45.796875 
Q 21.234375 45.796875 17.078125 41.03125 
Q 12.9375 36.28125 12.9375 25.984375 
Q 12.9375 15.53125 16.9375 10.796875 
Q 20.953125 6.0625 27.390625 6.0625 
Q 32.5625 6.0625 36.03125 9.234375 
Q 39.5 12.40625 40.4375 19 
z
" id="ArialMT-99"/>
        <path d="M 42.09375 16.703125 
L 51.171875 15.578125 
Q 49.03125 7.625 43.21875 3.21875 
Q 37.40625 -1.171875 28.375 -1.171875 
Q 17 -1.171875 10.328125 5.828125 
Q 3.65625 12.84375 3.65625 25.484375 
Q 3.65625 38.578125 10.390625 45.796875 
Q 17.140625 53.03125 27.875 53.03125 
Q 38.28125 53.03125 44.875 45.953125 
Q 51.46875 38.875 51.46875 26.03125 
Q 51.46875 25.25 51.421875 23.6875 
L 12.75 23.6875 
Q 13.234375 15.140625 17.578125 10.59375 
Q 21.921875 6.0625 28.421875 6.0625 
Q 33.25 6.0625 36.671875 8.59375 
Q 40.09375 11.140625 42.09375 16.703125 
z
M 13.234375 30.90625 
L 42.1875 30.90625 
Q 41.609375 37.453125 38.875 40.71875 
Q 34.671875 45.796875 27.984375 45.796875 
Q 21.921875 45.796875 17.796875 41.75 
Q 13.671875 37.703125 13.234375 30.90625 
z
" id="ArialMT-101"/>
       </defs>
       <use xlink:href="#ArialMT-85"/>
       <use x="72.216797" xlink:href="#ArialMT-83"/>
       <use x="138.916016" xlink:href="#ArialMT-45"/>
       <use x="172.216797" xlink:href="#ArialMT-70"/>
       <use x="233.300781" xlink:href="#ArialMT-114"/>
       <use x="266.601562" xlink:href="#ArialMT-97"/>
       <use x="322.216797" xlink:href="#ArialMT-110"/>
       <use x="377.832031" xlink:href="#ArialMT-99"/>
       <use x="427.832031" xlink:href="#ArialMT-101"/>
      </g>
     </g>
    </g>
    <g id="xtick_2">
     <g id="text_2">
      <!-- England -->
      <g style="fill:#262626;" transform="translate(239.051563 392.157812)scale(0.1 -0.1)">
       <defs>
        <path d="M 7.90625 0 
L 7.90625 71.578125 
L 59.671875 71.578125 
L 59.671875 63.140625 
L 17.390625 63.140625 
L 17.390625 41.21875 
L 56.984375 41.21875 
L 56.984375 32.8125 
L 17.390625 32.8125 
L 17.390625 8.453125 
L 61.328125 8.453125 
L 61.328125 0 
z
" id="ArialMT-69"/>
        <path d="M 4.984375 -4.296875 
L 13.53125 -5.5625 
Q 14.0625 -9.515625 16.5 -11.328125 
Q 19.78125 -13.765625 25.4375 -13.765625 
Q 31.546875 -13.765625 34.859375 -11.328125 
Q 38.1875 -8.890625 39.359375 -4.5 
Q 40.046875 -1.8125 39.984375 6.78125 
Q 34.234375 0 25.640625 0 
Q 14.9375 0 9.078125 7.71875 
Q 3.21875 15.4375 3.21875 26.21875 
Q 3.21875 33.640625 5.90625 39.90625 
Q 8.59375 46.1875 13.6875 49.609375 
Q 18.796875 53.03125 25.6875 53.03125 
Q 34.859375 53.03125 40.828125 45.609375 
L 40.828125 51.859375 
L 48.921875 51.859375 
L 48.921875 7.03125 
Q 48.921875 -5.078125 46.453125 -10.125 
Q 44 -15.1875 38.640625 -18.109375 
Q 33.296875 -21.046875 25.484375 -21.046875 
Q 16.21875 -21.046875 10.5 -16.875 
Q 4.78125 -12.703125 4.984375 -4.296875 
z
M 12.25 26.859375 
Q 12.25 16.65625 16.296875 11.96875 
Q 20.359375 7.28125 26.46875 7.28125 
Q 32.515625 7.28125 36.609375 11.9375 
Q 40.71875 16.609375 40.71875 26.5625 
Q 40.71875 36.078125 36.5 40.90625 
Q 32.28125 45.75 26.3125 45.75 
Q 20.453125 45.75 16.34375 40.984375 
Q 12.25 36.234375 12.25 26.859375 
z
" id="ArialMT-103"/>
        <path d="M 6.390625 0 
L 6.390625 71.578125 
L 15.1875 71.578125 
L 15.1875 0 
z
" id="ArialMT-108"/>
        <path d="M 40.234375 0 
L 40.234375 6.546875 
Q 35.296875 -1.171875 25.734375 -1.171875 
Q 19.53125 -1.171875 14.328125 2.25 
Q 9.125 5.671875 6.265625 11.796875 
Q 3.421875 17.921875 3.421875 25.875 
Q 3.421875 33.640625 6 39.96875 
Q 8.59375 46.296875 13.765625 49.65625 
Q 18.953125 53.03125 25.34375 53.03125 
Q 30.03125 53.03125 33.6875 51.046875 
Q 37.359375 49.078125 39.65625 45.90625 
L 39.65625 71.578125 
L 48.390625 71.578125 
L 48.390625 0 
z
M 12.453125 25.875 
Q 12.453125 15.921875 16.640625 10.984375 
Q 20.84375 6.0625 26.5625 6.0625 
Q 32.328125 6.0625 36.34375 10.765625 
Q 40.375 15.484375 40.375 25.140625 
Q 40.375 35.796875 36.265625 40.765625 
Q 32.171875 45.75 26.171875 45.75 
Q 20.3125 45.75 16.375 40.96875 
Q 12.453125 36.1875 12.453125 25.875 
z
" id="ArialMT-100"/>
       </defs>
       <use xlink:href="#ArialMT-69"/>
       <use x="66.699219" xlink:href="#ArialMT-110"/>
       <use x="122.314453" xlink:href="#ArialMT-103"/>
       <use x="177.929688" xlink:href="#ArialMT-108"/>
       <use x="200.146484" xlink:href="#ArialMT-97"/>
       <use x="255.761719" xlink:href="#ArialMT-110"/>
       <use x="311.376953" xlink:href="#ArialMT-100"/>
      </g>
     </g>
    </g>
    <g id="xtick_3">
     <g id="text_3">
      <!-- Luxembourg -->
      <g style="fill:#262626;" transform="translate(341.207031 392.157812)scale(0.1 -0.1)">
       <defs>
        <path d="M 7.328125 0 
L 7.328125 71.578125 
L 16.796875 71.578125 
L 16.796875 8.453125 
L 52.046875 8.453125 
L 52.046875 0 
z
" id="ArialMT-76"/>
        <path d="M 40.578125 0 
L 40.578125 7.625 
Q 34.515625 -1.171875 24.125 -1.171875 
Q 19.53125 -1.171875 15.546875 0.578125 
Q 11.578125 2.34375 9.640625 5 
Q 7.71875 7.671875 6.9375 11.53125 
Q 6.390625 14.109375 6.390625 19.734375 
L 6.390625 51.859375 
L 15.1875 51.859375 
L 15.1875 23.09375 
Q 15.1875 16.21875 15.71875 13.8125 
Q 16.546875 10.359375 19.234375 8.375 
Q 21.921875 6.390625 25.875 6.390625 
Q 29.828125 6.390625 33.296875 8.421875 
Q 36.765625 10.453125 38.203125 13.9375 
Q 39.65625 17.4375 39.65625 24.078125 
L 39.65625 51.859375 
L 48.4375 51.859375 
L 48.4375 0 
z
" id="ArialMT-117"/>
        <path d="M 0.734375 0 
L 19.671875 26.953125 
L 2.15625 51.859375 
L 13.140625 51.859375 
L 21.09375 39.703125 
Q 23.34375 36.234375 24.703125 33.890625 
Q 26.859375 37.109375 28.65625 39.59375 
L 37.40625 51.859375 
L 47.90625 51.859375 
L 29.984375 27.4375 
L 49.265625 0 
L 38.484375 0 
L 27.828125 16.109375 
L 25 20.453125 
L 11.375 0 
z
" id="ArialMT-120"/>
        <path d="M 6.59375 0 
L 6.59375 51.859375 
L 14.453125 51.859375 
L 14.453125 44.578125 
Q 16.890625 48.390625 20.9375 50.703125 
Q 25 53.03125 30.171875 53.03125 
Q 35.9375 53.03125 39.625 50.640625 
Q 43.3125 48.25 44.828125 43.953125 
Q 50.984375 53.03125 60.84375 53.03125 
Q 68.5625 53.03125 72.703125 48.75 
Q 76.859375 44.484375 76.859375 35.59375 
L 76.859375 0 
L 68.109375 0 
L 68.109375 32.671875 
Q 68.109375 37.9375 67.25 40.25 
Q 66.40625 42.578125 64.15625 43.984375 
Q 61.921875 45.40625 58.890625 45.40625 
Q 53.421875 45.40625 49.796875 41.765625 
Q 46.1875 38.140625 46.1875 30.125 
L 46.1875 0 
L 37.40625 0 
L 37.40625 33.6875 
Q 37.40625 39.546875 35.25 42.46875 
Q 33.109375 45.40625 28.21875 45.40625 
Q 24.515625 45.40625 21.359375 43.453125 
Q 18.21875 41.5 16.796875 37.734375 
Q 15.375 33.984375 15.375 26.90625 
L 15.375 0 
z
" id="ArialMT-109"/>
        <path d="M 14.703125 0 
L 6.546875 0 
L 6.546875 71.578125 
L 15.328125 71.578125 
L 15.328125 46.046875 
Q 20.90625 53.03125 29.546875 53.03125 
Q 34.328125 53.03125 38.59375 51.09375 
Q 42.875 49.171875 45.625 45.671875 
Q 48.390625 42.1875 49.953125 37.25 
Q 51.515625 32.328125 51.515625 26.703125 
Q 51.515625 13.375 44.921875 6.09375 
Q 38.328125 -1.171875 29.109375 -1.171875 
Q 19.921875 -1.171875 14.703125 6.5 
z
M 14.59375 26.3125 
Q 14.59375 17 17.140625 12.84375 
Q 21.296875 6.0625 28.375 6.0625 
Q 34.125 6.0625 38.328125 11.0625 
Q 42.53125 16.0625 42.53125 25.984375 
Q 42.53125 36.140625 38.5 40.96875 
Q 34.46875 45.796875 28.765625 45.796875 
Q 23 45.796875 18.796875 40.796875 
Q 14.59375 35.796875 14.59375 26.3125 
z
" id="ArialMT-98"/>
        <path d="M 3.328125 25.921875 
Q 3.328125 40.328125 11.328125 47.265625 
Q 18.015625 53.03125 27.640625 53.03125 
Q 38.328125 53.03125 45.109375 46.015625 
Q 51.90625 39.015625 51.90625 26.65625 
Q 51.90625 16.65625 48.90625 10.90625 
Q 45.90625 5.171875 40.15625 2 
Q 34.421875 -1.171875 27.640625 -1.171875 
Q 16.75 -1.171875 10.03125 5.8125 
Q 3.328125 12.796875 3.328125 25.921875 
z
M 12.359375 25.921875 
Q 12.359375 15.96875 16.703125 11.015625 
Q 21.046875 6.0625 27.640625 6.0625 
Q 34.1875 6.0625 38.53125 11.03125 
Q 42.875 16.015625 42.875 26.21875 
Q 42.875 35.84375 38.5 40.796875 
Q 34.125 45.75 27.640625 45.75 
Q 21.046875 45.75 16.703125 40.8125 
Q 12.359375 35.890625 12.359375 25.921875 
z
" id="ArialMT-111"/>
       </defs>
       <use xlink:href="#ArialMT-76"/>
       <use x="55.615234" xlink:href="#ArialMT-117"/>
       <use x="111.230469" xlink:href="#ArialMT-120"/>
       <use x="161.230469" xlink:href="#ArialMT-101"/>
       <use x="216.845703" xlink:href="#ArialMT-109"/>
       <use x="300.146484" xlink:href="#ArialMT-98"/>
       <use x="355.761719" xlink:href="#ArialMT-111"/>
       <use x="411.376953" xlink:href="#ArialMT-117"/>
       <use x="466.992188" xlink:href="#ArialMT-114"/>
       <use x="500.292969" xlink:href="#ArialMT-103"/>
      </g>
     </g>
    </g>
    <g id="xtick_4">
     <g id="text_4">
      <!-- US -->
      <g style="fill:#262626;" transform="translate(473.653906 392.157812)scale(0.1 -0.1)">
       <use xlink:href="#ArialMT-85"/>
       <use x="72.216797" xlink:href="#ArialMT-83"/>
      </g>
     </g>
    </g>
    <g id="xtick_5">
     <g id="text_5">
      <!-- China -->
      <g style="fill:#262626;" transform="translate(579.136719 392.157812)scale(0.1 -0.1)">
       <defs>
        <path d="M 58.796875 25.09375 
L 68.265625 22.703125 
Q 65.28125 11.03125 57.546875 4.90625 
Q 49.8125 -1.21875 38.625 -1.21875 
Q 27.046875 -1.21875 19.796875 3.484375 
Q 12.546875 8.203125 8.765625 17.140625 
Q 4.984375 26.078125 4.984375 36.328125 
Q 4.984375 47.515625 9.25 55.828125 
Q 13.53125 64.15625 21.40625 68.46875 
Q 29.296875 72.796875 38.765625 72.796875 
Q 49.515625 72.796875 56.828125 67.328125 
Q 64.15625 61.859375 67.046875 51.953125 
L 57.71875 49.75 
Q 55.21875 57.5625 50.484375 61.125 
Q 45.75 64.703125 38.578125 64.703125 
Q 30.328125 64.703125 24.78125 60.734375 
Q 19.234375 56.78125 16.984375 50.109375 
Q 14.75 43.453125 14.75 36.375 
Q 14.75 27.25 17.40625 20.4375 
Q 20.0625 13.625 25.671875 10.25 
Q 31.296875 6.890625 37.84375 6.890625 
Q 45.796875 6.890625 51.3125 11.46875 
Q 56.84375 16.0625 58.796875 25.09375 
z
" id="ArialMT-67"/>
        <path d="M 6.59375 0 
L 6.59375 71.578125 
L 15.375 71.578125 
L 15.375 45.90625 
Q 21.53125 53.03125 30.90625 53.03125 
Q 36.671875 53.03125 40.921875 50.75 
Q 45.171875 48.484375 47 44.484375 
Q 48.828125 40.484375 48.828125 32.859375 
L 48.828125 0 
L 40.046875 0 
L 40.046875 32.859375 
Q 40.046875 39.453125 37.1875 42.453125 
Q 34.328125 45.453125 29.109375 45.453125 
Q 25.203125 45.453125 21.75 43.421875 
Q 18.3125 41.40625 16.84375 37.9375 
Q 15.375 34.46875 15.375 28.375 
L 15.375 0 
z
" id="ArialMT-104"/>
        <path d="M 6.640625 61.46875 
L 6.640625 71.578125 
L 15.4375 71.578125 
L 15.4375 61.46875 
z
M 6.640625 0 
L 6.640625 51.859375 
L 15.4375 51.859375 
L 15.4375 0 
z
" id="ArialMT-105"/>
       </defs>
       <use xlink:href="#ArialMT-67"/>
       <use x="72.216797" xlink:href="#ArialMT-104"/>
       <use x="127.832031" xlink:href="#ArialMT-105"/>
       <use x="150.048828" xlink:href="#ArialMT-110"/>
       <use x="205.664062" xlink:href="#ArialMT-97"/>
      </g>
     </g>
    </g>
    <g id="text_6">
     <!-- Country -->
     <g style="fill:#262626;" transform="translate(351.49375 405.542188)scale(0.1 -0.1)">
      <defs>
       <path d="M 25.78125 7.859375 
L 27.046875 0.09375 
Q 23.34375 -0.6875 20.40625 -0.6875 
Q 15.625 -0.6875 12.984375 0.828125 
Q 10.359375 2.34375 9.28125 4.8125 
Q 8.203125 7.28125 8.203125 15.1875 
L 8.203125 45.015625 
L 1.765625 45.015625 
L 1.765625 51.859375 
L 8.203125 51.859375 
L 8.203125 64.703125 
L 16.9375 69.96875 
L 16.9375 51.859375 
L 25.78125 51.859375 
L 25.78125 45.015625 
L 16.9375 45.015625 
L 16.9375 14.703125 
Q 16.9375 10.9375 17.40625 9.859375 
Q 17.875 8.796875 18.921875 8.15625 
Q 19.96875 7.515625 21.921875 7.515625 
Q 23.390625 7.515625 25.78125 7.859375 
z
" id="ArialMT-116"/>
       <path d="M 6.203125 -19.96875 
L 5.21875 -11.71875 
Q 8.109375 -12.5 10.25 -12.5 
Q 13.1875 -12.5 14.9375 -11.515625 
Q 16.703125 -10.546875 17.828125 -8.796875 
Q 18.65625 -7.46875 20.515625 -2.25 
Q 20.75 -1.515625 21.296875 -0.09375 
L 1.609375 51.859375 
L 11.078125 51.859375 
L 21.875 21.828125 
Q 23.96875 16.109375 25.640625 9.8125 
Q 27.15625 15.875 29.25 21.625 
L 40.328125 51.859375 
L 49.125 51.859375 
L 29.390625 -0.875 
Q 26.21875 -9.421875 24.46875 -12.640625 
Q 22.125 -17 19.09375 -19.015625 
Q 16.0625 -21.046875 11.859375 -21.046875 
Q 9.328125 -21.046875 6.203125 -19.96875 
z
" id="ArialMT-121"/>
      </defs>
      <use xlink:href="#ArialMT-67"/>
      <use x="72.216797" xlink:href="#ArialMT-111"/>
      <use x="127.832031" xlink:href="#ArialMT-117"/>
      <use x="183.447266" xlink:href="#ArialMT-110"/>
      <use x="239.0625" xlink:href="#ArialMT-116"/>
      <use x="266.845703" xlink:href="#ArialMT-114"/>
      <use x="300.146484" xlink:href="#ArialMT-121"/>
     </g>
    </g>
   </g>
   <g id="matplotlib.axis_2">
    <g id="ytick_1">
     <g id="line2d_1">
      <path clip-path="url(#pd22d746246)" d="M 90 335.05099 
L 648 335.05099 
" style="fill:none;stroke:#ffffff;stroke-linecap:round;stroke-width:0.8;"/>
     </g>
     <g id="text_7">
      <!-- 0 -->
      <g style="fill:#262626;" transform="translate(77.439063 338.629896)scale(0.1 -0.1)">
       <defs>
        <path d="M 4.15625 35.296875 
Q 4.15625 48 6.765625 55.734375 
Q 9.375 63.484375 14.515625 67.671875 
Q 19.671875 71.875 27.484375 71.875 
Q 33.25 71.875 37.59375 69.546875 
Q 41.9375 67.234375 44.765625 62.859375 
Q 47.609375 58.5 49.21875 52.21875 
Q 50.828125 45.953125 50.828125 35.296875 
Q 50.828125 22.703125 48.234375 14.96875 
Q 45.65625 7.234375 40.5 3 
Q 35.359375 -1.21875 27.484375 -1.21875 
Q 17.140625 -1.21875 11.234375 6.203125 
Q 4.15625 15.140625 4.15625 35.296875 
z
M 13.1875 35.296875 
Q 13.1875 17.671875 17.3125 11.828125 
Q 21.4375 6 27.484375 6 
Q 33.546875 6 37.671875 11.859375 
Q 41.796875 17.71875 41.796875 35.296875 
Q 41.796875 52.984375 37.671875 58.78125 
Q 33.546875 64.59375 27.390625 64.59375 
Q 21.34375 64.59375 17.71875 59.46875 
Q 13.1875 52.9375 13.1875 35.296875 
z
" id="ArialMT-48"/>
       </defs>
       <use xlink:href="#ArialMT-48"/>
      </g>
     </g>
    </g>
    <g id="ytick_2">
     <g id="line2d_2">
      <path clip-path="url(#pd22d746246)" d="M 90 282.653568 
L 648 282.653568 
" style="fill:none;stroke:#ffffff;stroke-linecap:round;stroke-width:0.8;"/>
     </g>
     <g id="text_8">
      <!-- 20 -->
      <g style="fill:#262626;" transform="translate(71.878125 286.232474)scale(0.1 -0.1)">
       <defs>
        <path d="M 50.34375 8.453125 
L 50.34375 0 
L 3.03125 0 
Q 2.9375 3.171875 4.046875 6.109375 
Q 5.859375 10.9375 9.828125 15.625 
Q 13.8125 20.3125 21.34375 26.46875 
Q 33.015625 36.03125 37.109375 41.625 
Q 41.21875 47.21875 41.21875 52.203125 
Q 41.21875 57.421875 37.46875 61 
Q 33.734375 64.59375 27.734375 64.59375 
Q 21.390625 64.59375 17.578125 60.78125 
Q 13.765625 56.984375 13.71875 50.25 
L 4.6875 51.171875 
Q 5.609375 61.28125 11.65625 66.578125 
Q 17.71875 71.875 27.9375 71.875 
Q 38.234375 71.875 44.234375 66.15625 
Q 50.25 60.453125 50.25 52 
Q 50.25 47.703125 48.484375 43.546875 
Q 46.734375 39.40625 42.65625 34.8125 
Q 38.578125 30.21875 29.109375 22.21875 
Q 21.1875 15.578125 18.9375 13.203125 
Q 16.703125 10.84375 15.234375 8.453125 
z
" id="ArialMT-50"/>
       </defs>
       <use xlink:href="#ArialMT-50"/>
       <use x="55.615234" xlink:href="#ArialMT-48"/>
      </g>
     </g>
    </g>
    <g id="ytick_3">
     <g id="line2d_3">
      <path clip-path="url(#pd22d746246)" d="M 90 230.256145 
L 648 230.256145 
" style="fill:none;stroke:#ffffff;stroke-linecap:round;stroke-width:0.8;"/>
     </g>
     <g id="text_9">
      <!-- 40 -->
      <g style="fill:#262626;" transform="translate(71.878125 233.835051)scale(0.1 -0.1)">
       <defs>
        <path d="M 32.328125 0 
L 32.328125 17.140625 
L 1.265625 17.140625 
L 1.265625 25.203125 
L 33.9375 71.578125 
L 41.109375 71.578125 
L 41.109375 25.203125 
L 50.78125 25.203125 
L 50.78125 17.140625 
L 41.109375 17.140625 
L 41.109375 0 
z
M 32.328125 25.203125 
L 32.328125 57.46875 
L 9.90625 25.203125 
z
" id="ArialMT-52"/>
       </defs>
       <use xlink:href="#ArialMT-52"/>
       <use x="55.615234" xlink:href="#ArialMT-48"/>
      </g>
     </g>
    </g>
    <g id="ytick_4">
     <g id="line2d_4">
      <path clip-path="url(#pd22d746246)" d="M 90 177.858723 
L 648 177.858723 
" style="fill:none;stroke:#ffffff;stroke-linecap:round;stroke-width:0.8;"/>
     </g>
     <g id="text_10">
      <!-- 60 -->
      <g style="fill:#262626;" transform="translate(71.878125 181.437629)scale(0.1 -0.1)">
       <defs>
        <path d="M 49.75 54.046875 
L 41.015625 53.375 
Q 39.84375 58.546875 37.703125 60.890625 
Q 34.125 64.65625 28.90625 64.65625 
Q 24.703125 64.65625 21.53125 62.3125 
Q 17.390625 59.28125 14.984375 53.46875 
Q 12.59375 47.65625 12.5 36.921875 
Q 15.671875 41.75 20.265625 44.09375 
Q 24.859375 46.4375 29.890625 46.4375 
Q 38.671875 46.4375 44.84375 39.96875 
Q 51.03125 33.5 51.03125 23.25 
Q 51.03125 16.5 48.125 10.71875 
Q 45.21875 4.9375 40.140625 1.859375 
Q 35.0625 -1.21875 28.609375 -1.21875 
Q 17.625 -1.21875 10.6875 6.859375 
Q 3.765625 14.9375 3.765625 33.5 
Q 3.765625 54.25 11.421875 63.671875 
Q 18.109375 71.875 29.4375 71.875 
Q 37.890625 71.875 43.28125 67.140625 
Q 48.6875 62.40625 49.75 54.046875 
z
M 13.875 23.1875 
Q 13.875 18.65625 15.796875 14.5 
Q 17.71875 10.359375 21.1875 8.171875 
Q 24.65625 6 28.46875 6 
Q 34.03125 6 38.03125 10.484375 
Q 42.046875 14.984375 42.046875 22.703125 
Q 42.046875 30.125 38.078125 34.390625 
Q 34.125 38.671875 28.125 38.671875 
Q 22.171875 38.671875 18.015625 34.390625 
Q 13.875 30.125 13.875 23.1875 
z
" id="ArialMT-54"/>
       </defs>
       <use xlink:href="#ArialMT-54"/>
       <use x="55.615234" xlink:href="#ArialMT-48"/>
      </g>
     </g>
    </g>
    <g id="ytick_5">
     <g id="line2d_5">
      <path clip-path="url(#pd22d746246)" d="M 90 125.4613 
L 648 125.4613 
" style="fill:none;stroke:#ffffff;stroke-linecap:round;stroke-width:0.8;"/>
     </g>
     <g id="text_11">
      <!-- 80 -->
      <g style="fill:#262626;" transform="translate(71.878125 129.040206)scale(0.1 -0.1)">
       <defs>
        <path d="M 17.671875 38.8125 
Q 12.203125 40.828125 9.5625 44.53125 
Q 6.9375 48.25 6.9375 53.421875 
Q 6.9375 61.234375 12.546875 66.546875 
Q 18.171875 71.875 27.484375 71.875 
Q 36.859375 71.875 42.578125 66.421875 
Q 48.296875 60.984375 48.296875 53.171875 
Q 48.296875 48.1875 45.671875 44.5 
Q 43.0625 40.828125 37.75 38.8125 
Q 44.34375 36.671875 47.78125 31.875 
Q 51.21875 27.09375 51.21875 20.453125 
Q 51.21875 11.28125 44.71875 5.03125 
Q 38.234375 -1.21875 27.640625 -1.21875 
Q 17.046875 -1.21875 10.546875 5.046875 
Q 4.046875 11.328125 4.046875 20.703125 
Q 4.046875 27.6875 7.59375 32.390625 
Q 11.140625 37.109375 17.671875 38.8125 
z
M 15.921875 53.71875 
Q 15.921875 48.640625 19.1875 45.40625 
Q 22.46875 42.1875 27.6875 42.1875 
Q 32.765625 42.1875 36.015625 45.375 
Q 39.265625 48.578125 39.265625 53.21875 
Q 39.265625 58.0625 35.90625 61.359375 
Q 32.5625 64.65625 27.59375 64.65625 
Q 22.5625 64.65625 19.234375 61.421875 
Q 15.921875 58.203125 15.921875 53.71875 
z
M 13.09375 20.65625 
Q 13.09375 16.890625 14.875 13.375 
Q 16.65625 9.859375 20.171875 7.921875 
Q 23.6875 6 27.734375 6 
Q 34.03125 6 38.125 10.046875 
Q 42.234375 14.109375 42.234375 20.359375 
Q 42.234375 26.703125 38.015625 30.859375 
Q 33.796875 35.015625 27.4375 35.015625 
Q 21.234375 35.015625 17.15625 30.90625 
Q 13.09375 26.8125 13.09375 20.65625 
z
" id="ArialMT-56"/>
       </defs>
       <use xlink:href="#ArialMT-56"/>
       <use x="55.615234" xlink:href="#ArialMT-48"/>
      </g>
     </g>
    </g>
    <g id="ytick_6">
     <g id="line2d_6">
      <path clip-path="url(#pd22d746246)" d="M 90 73.063878 
L 648 73.063878 
" style="fill:none;stroke:#ffffff;stroke-linecap:round;stroke-width:0.8;"/>
     </g>
     <g id="text_12">
      <!-- 100 -->
      <g style="fill:#262626;" transform="translate(66.317188 76.642784)scale(0.1 -0.1)">
       <defs>
        <path d="M 37.25 0 
L 28.46875 0 
L 28.46875 56 
Q 25.296875 52.984375 20.140625 49.953125 
Q 14.984375 46.921875 10.890625 45.40625 
L 10.890625 53.90625 
Q 18.265625 57.375 23.78125 62.296875 
Q 29.296875 67.234375 31.59375 71.875 
L 37.25 71.875 
z
" id="ArialMT-49"/>
       </defs>
       <use xlink:href="#ArialMT-49"/>
       <use x="55.615234" xlink:href="#ArialMT-48"/>
       <use x="111.230469" xlink:href="#ArialMT-48"/>
      </g>
     </g>
    </g>
    <g id="text_13">
     <!-- Quality -->
     <g style="fill:#262626;" transform="translate(60.2125 230.480937)rotate(-90)scale(0.1 -0.1)">
      <defs>
       <path d="M 61.96875 7.671875 
Q 68.5625 3.125 74.125 1.03125 
L 71.34375 -5.5625 
Q 63.625 -2.78125 55.953125 3.21875 
Q 48 -1.21875 38.375 -1.21875 
Q 28.65625 -1.21875 20.75 3.46875 
Q 12.84375 8.15625 8.5625 16.640625 
Q 4.296875 25.140625 4.296875 35.796875 
Q 4.296875 46.390625 8.59375 55.078125 
Q 12.890625 63.765625 20.828125 68.3125 
Q 28.765625 72.859375 38.578125 72.859375 
Q 48.484375 72.859375 56.4375 68.140625 
Q 64.40625 63.421875 68.578125 54.953125 
Q 72.75 46.484375 72.75 35.84375 
Q 72.75 27 70.0625 19.9375 
Q 67.390625 12.890625 61.96875 7.671875 
z
M 41.109375 19.78125 
Q 49.3125 17.484375 54.640625 12.9375 
Q 62.984375 20.5625 62.984375 35.84375 
Q 62.984375 44.53125 60.03125 51.015625 
Q 57.078125 57.515625 51.390625 61.109375 
Q 45.703125 64.703125 38.625 64.703125 
Q 28.03125 64.703125 21.046875 57.453125 
Q 14.0625 50.203125 14.0625 35.796875 
Q 14.0625 21.828125 20.96875 14.359375 
Q 27.875 6.890625 38.625 6.890625 
Q 43.703125 6.890625 48.1875 8.796875 
Q 43.75 11.671875 38.8125 12.890625 
z
" id="ArialMT-81"/>
      </defs>
      <use xlink:href="#ArialMT-81"/>
      <use x="77.783203" xlink:href="#ArialMT-117"/>
      <use x="133.398438" xlink:href="#ArialMT-97"/>
      <use x="189.013672" xlink:href="#ArialMT-108"/>
      <use x="211.230469" xlink:href="#ArialMT-105"/>
      <use x="233.447266" xlink:href="#ArialMT-116"/>
      <use x="261.230469" xlink:href="#ArialMT-121"/>
     </g>
    </g>
   </g>
   <g id="PolyCollection_1">
    <defs>
     <path d="M 259.133252 -219.02314 
L 255.666748 -219.02314 
L 255.344802 -219.679671 
L 254.976333 -220.336202 
L 254.557293 -220.992732 
L 254.083773 -221.649263 
L 253.552111 -222.305793 
L 252.959001 -222.962324 
L 252.30161 -223.618855 
L 251.577708 -224.275385 
L 250.785785 -224.931916 
L 249.925173 -225.588447 
L 248.996156 -226.244977 
L 248.000074 -226.901508 
L 246.939404 -227.558038 
L 245.81783 -228.214569 
L 244.640278 -228.8711 
L 243.412939 -229.52763 
L 242.14325 -230.184161 
L 240.839852 -230.840692 
L 239.512513 -231.497222 
L 238.172022 -232.153753 
L 236.830052 -232.810283 
L 235.498991 -233.466814 
L 234.191752 -234.123345 
L 232.921559 -234.779875 
L 231.701713 -235.436406 
L 230.545353 -236.092937 
L 229.465197 -236.749467 
L 228.473297 -237.405998 
L 227.580786 -238.062528 
L 226.797643 -238.719059 
L 226.132473 -239.37559 
L 225.592305 -240.03212 
L 225.182427 -240.688651 
L 224.906241 -241.345182 
L 224.765164 -242.001712 
L 224.758566 -242.658243 
L 224.883746 -243.314773 
L 225.135958 -243.971304 
L 225.50848 -244.627835 
L 225.992725 -245.284365 
L 226.578397 -245.940896 
L 227.253691 -246.597427 
L 228.005527 -247.253957 
L 228.819819 -247.910488 
L 229.681769 -248.567018 
L 230.576188 -249.223549 
L 231.487825 -249.88008 
L 232.401708 -250.53661 
L 233.303473 -251.193141 
L 234.179695 -251.849672 
L 235.018186 -252.506202 
L 235.808269 -253.162733 
L 236.541018 -253.819263 
L 237.209446 -254.475794 
L 237.808648 -255.132325 
L 238.335884 -255.788855 
L 238.7906 -256.445386 
L 239.174397 -257.101917 
L 239.490928 -257.758447 
L 239.745745 -258.414978 
L 239.946087 -259.071508 
L 240.100623 -259.728039 
L 240.219156 -260.38457 
L 240.312296 -261.0411 
L 240.391112 -261.697631 
L 240.466785 -262.354162 
L 240.550258 -263.010692 
L 240.651902 -263.667223 
L 240.781215 -264.323753 
L 240.946556 -264.980284 
L 241.154918 -265.636815 
L 241.411767 -266.293345 
L 241.72092 -266.949876 
L 242.084498 -267.606407 
L 242.502922 -268.262937 
L 242.974979 -268.919468 
L 243.497925 -269.575998 
L 244.067642 -270.232529 
L 244.678828 -270.88906 
L 245.325214 -271.54559 
L 245.999802 -272.202121 
L 246.695104 -272.858652 
L 247.403392 -273.515182 
L 248.116924 -274.171713 
L 248.828164 -274.828243 
L 249.529972 -275.484774 
L 250.215767 -276.141305 
L 250.879658 -276.797835 
L 251.51654 -277.454366 
L 252.122158 -278.110897 
L 252.693138 -278.767427 
L 253.226986 -279.423958 
L 253.722059 -280.080488 
L 254.177521 -280.737019 
L 254.593268 -281.39355 
L 254.96985 -282.05008 
L 255.308381 -282.706611 
L 255.61044 -283.363142 
L 255.877976 -284.019672 
L 258.922024 -284.019672 
L 258.922024 -284.019672 
L 259.18956 -283.363142 
L 259.491619 -282.706611 
L 259.83015 -282.05008 
L 260.206732 -281.39355 
L 260.622479 -280.737019 
L 261.077941 -280.080488 
L 261.573014 -279.423958 
L 262.106862 -278.767427 
L 262.677842 -278.110897 
L 263.28346 -277.454366 
L 263.920342 -276.797835 
L 264.584233 -276.141305 
L 265.270028 -275.484774 
L 265.971836 -274.828243 
L 266.683076 -274.171713 
L 267.396608 -273.515182 
L 268.104896 -272.858652 
L 268.800198 -272.202121 
L 269.474786 -271.54559 
L 270.121172 -270.88906 
L 270.732358 -270.232529 
L 271.302075 -269.575998 
L 271.825021 -268.919468 
L 272.297078 -268.262937 
L 272.715502 -267.606407 
L 273.07908 -266.949876 
L 273.388233 -266.293345 
L 273.645082 -265.636815 
L 273.853444 -264.980284 
L 274.018785 -264.323753 
L 274.148098 -263.667223 
L 274.249742 -263.010692 
L 274.333215 -262.354162 
L 274.408888 -261.697631 
L 274.487704 -261.0411 
L 274.580844 -260.38457 
L 274.699377 -259.728039 
L 274.853913 -259.071508 
L 275.054255 -258.414978 
L 275.309072 -257.758447 
L 275.625603 -257.101917 
L 276.0094 -256.445386 
L 276.464116 -255.788855 
L 276.991352 -255.132325 
L 277.590554 -254.475794 
L 278.258982 -253.819263 
L 278.991731 -253.162733 
L 279.781814 -252.506202 
L 280.620305 -251.849672 
L 281.496527 -251.193141 
L 282.398292 -250.53661 
L 283.312175 -249.88008 
L 284.223812 -249.223549 
L 285.118231 -248.567018 
L 285.980181 -247.910488 
L 286.794473 -247.253957 
L 287.546309 -246.597427 
L 288.221603 -245.940896 
L 288.807275 -245.284365 
L 289.29152 -244.627835 
L 289.664042 -243.971304 
L 289.916254 -243.314773 
L 290.041434 -242.658243 
L 290.034836 -242.001712 
L 289.893759 -241.345182 
L 289.617573 -240.688651 
L 289.207695 -240.03212 
L 288.667527 -239.37559 
L 288.002357 -238.719059 
L 287.219214 -238.062528 
L 286.326703 -237.405998 
L 285.334803 -236.749467 
L 284.254647 -236.092937 
L 283.098287 -235.436406 
L 281.878441 -234.779875 
L 280.608248 -234.123345 
L 279.301009 -233.466814 
L 277.969948 -232.810283 
L 276.627978 -232.153753 
L 275.287487 -231.497222 
L 273.960148 -230.840692 
L 272.65675 -230.184161 
L 271.387061 -229.52763 
L 270.159722 -228.8711 
L 268.98217 -228.214569 
L 267.860596 -227.558038 
L 266.799926 -226.901508 
L 265.803844 -226.244977 
L 264.874827 -225.588447 
L 264.014215 -224.931916 
L 263.222292 -224.275385 
L 262.49839 -223.618855 
L 261.840999 -222.962324 
L 261.247889 -222.305793 
L 260.716227 -221.649263 
L 260.242707 -220.992732 
L 259.823667 -220.336202 
L 259.455198 -219.679671 
L 259.133252 -219.02314 
z
" id="m97cedd08dc" style="stroke:#3c3c3c;stroke-width:1.5;"/>
    </defs>
    <g clip-path="url(#pd22d746246)">
     <use style="fill:#d16350;stroke:#3c3c3c;stroke-width:1.5;" x="0" xlink:href="#m97cedd08dc" y="432"/>
    </g>
   </g>
   <g id="PolyCollection_2">
    <defs>
     <path d="M 374.936287 -224.415226 
L 363.063713 -224.415226 
L 362.210686 -224.804046 
L 361.27119 -225.192865 
L 360.242594 -225.581685 
L 359.123237 -225.970504 
L 357.91258 -226.359324 
L 356.611363 -226.748143 
L 355.221743 -227.136963 
L 353.747416 -227.525782 
L 352.193715 -227.914602 
L 350.567673 -228.303421 
L 348.878058 -228.692241 
L 347.135361 -229.08106 
L 345.351744 -229.46988 
L 343.54094 -229.8587 
L 341.718107 -230.247519 
L 339.89963 -230.636339 
L 338.102882 -231.025158 
L 336.345938 -231.413978 
L 334.647254 -231.802797 
L 333.025315 -232.191617 
L 331.498261 -232.580436 
L 330.083495 -232.969256 
L 328.797296 -233.358075 
L 327.654432 -233.746895 
L 326.667799 -234.135714 
L 325.848084 -234.524534 
L 325.203478 -234.913353 
L 324.739423 -235.302173 
L 324.458439 -235.690992 
L 324.36 -236.079812 
L 324.440487 -236.468632 
L 324.693213 -236.857451 
L 325.108525 -237.246271 
L 325.673971 -237.63509 
L 326.374545 -238.02391 
L 327.192986 -238.412729 
L 328.11014 -238.801549 
L 329.105361 -239.190368 
L 330.156959 -239.579188 
L 331.242657 -239.968007 
L 332.340079 -240.356827 
L 333.427225 -240.745646 
L 334.482943 -241.134466 
L 335.487374 -241.523285 
L 336.422372 -241.912105 
L 337.271873 -242.300924 
L 338.022218 -242.689744 
L 338.662419 -243.078564 
L 339.184359 -243.467383 
L 339.582931 -243.856203 
L 339.856098 -244.245022 
L 340.004897 -244.633842 
L 340.033359 -245.022661 
L 339.948378 -245.411481 
L 339.759507 -245.8003 
L 339.478702 -246.18912 
L 339.120017 -246.577939 
L 338.699251 -246.966759 
L 338.233573 -247.355578 
L 337.741107 -247.744398 
L 337.240514 -248.133217 
L 336.750568 -248.522037 
L 336.289729 -248.910857 
L 335.875746 -249.299676 
L 335.52527 -249.688496 
L 335.253513 -250.077315 
L 335.073937 -250.466135 
L 334.998006 -250.854954 
L 335.034975 -251.243774 
L 335.19175 -251.632593 
L 335.472799 -252.021413 
L 335.88013 -252.410232 
L 336.413321 -252.799052 
L 337.069611 -253.187871 
L 337.844043 -253.576691 
L 338.72965 -253.96551 
L 339.717685 -254.35433 
L 340.797877 -254.743149 
L 341.958717 -255.131969 
L 343.187755 -255.520789 
L 344.471899 -255.909608 
L 345.797724 -256.298428 
L 347.151755 -256.687247 
L 348.520744 -257.076067 
L 349.891918 -257.464886 
L 351.2532 -257.853706 
L 352.593397 -258.242525 
L 353.902352 -258.631345 
L 355.171057 -259.020164 
L 356.391739 -259.408984 
L 357.557896 -259.797803 
L 358.664312 -260.186623 
L 359.707036 -260.575442 
L 360.683334 -260.964262 
L 361.591615 -261.353081 
L 362.431349 -261.741901 
L 363.202956 -262.130721 
L 363.907698 -262.51954 
L 364.547555 -262.90836 
L 373.452445 -262.90836 
L 373.452445 -262.90836 
L 374.092302 -262.51954 
L 374.797044 -262.130721 
L 375.568651 -261.741901 
L 376.408385 -261.353081 
L 377.316666 -260.964262 
L 378.292964 -260.575442 
L 379.335688 -260.186623 
L 380.442104 -259.797803 
L 381.608261 -259.408984 
L 382.828943 -259.020164 
L 384.097648 -258.631345 
L 385.406603 -258.242525 
L 386.7468 -257.853706 
L 388.108082 -257.464886 
L 389.479256 -257.076067 
L 390.848245 -256.687247 
L 392.202276 -256.298428 
L 393.528101 -255.909608 
L 394.812245 -255.520789 
L 396.041283 -255.131969 
L 397.202123 -254.743149 
L 398.282315 -254.35433 
L 399.27035 -253.96551 
L 400.155957 -253.576691 
L 400.930389 -253.187871 
L 401.586679 -252.799052 
L 402.11987 -252.410232 
L 402.527201 -252.021413 
L 402.80825 -251.632593 
L 402.965025 -251.243774 
L 403.001994 -250.854954 
L 402.926063 -250.466135 
L 402.746487 -250.077315 
L 402.47473 -249.688496 
L 402.124254 -249.299676 
L 401.710271 -248.910857 
L 401.249432 -248.522037 
L 400.759486 -248.133217 
L 400.258893 -247.744398 
L 399.766427 -247.355578 
L 399.300749 -246.966759 
L 398.879983 -246.577939 
L 398.521298 -246.18912 
L 398.240493 -245.8003 
L 398.051622 -245.411481 
L 397.966641 -245.022661 
L 397.995103 -244.633842 
L 398.143902 -244.245022 
L 398.417069 -243.856203 
L 398.815641 -243.467383 
L 399.337581 -243.078564 
L 399.977782 -242.689744 
L 400.728127 -242.300924 
L 401.577628 -241.912105 
L 402.512626 -241.523285 
L 403.517057 -241.134466 
L 404.572775 -240.745646 
L 405.659921 -240.356827 
L 406.757343 -239.968007 
L 407.843041 -239.579188 
L 408.894639 -239.190368 
L 409.88986 -238.801549 
L 410.807014 -238.412729 
L 411.625455 -238.02391 
L 412.326029 -237.63509 
L 412.891475 -237.246271 
L 413.306787 -236.857451 
L 413.559513 -236.468632 
L 413.64 -236.079812 
L 413.541561 -235.690992 
L 413.260577 -235.302173 
L 412.796522 -234.913353 
L 412.151916 -234.524534 
L 411.332201 -234.135714 
L 410.345568 -233.746895 
L 409.202704 -233.358075 
L 407.916505 -232.969256 
L 406.501739 -232.580436 
L 404.974685 -232.191617 
L 403.352746 -231.802797 
L 401.654062 -231.413978 
L 399.897118 -231.025158 
L 398.10037 -230.636339 
L 396.281893 -230.247519 
L 394.45906 -229.8587 
L 392.648256 -229.46988 
L 390.864639 -229.08106 
L 389.121942 -228.692241 
L 387.432327 -228.303421 
L 385.806285 -227.914602 
L 384.252584 -227.525782 
L 382.778257 -227.136963 
L 381.388637 -226.748143 
L 380.08742 -226.359324 
L 378.876763 -225.970504 
L 377.757406 -225.581685 
L 376.72881 -225.192865 
L 375.789314 -224.804046 
L 374.936287 -224.415226 
z
" id="m858fae10bb" style="stroke:#3c3c3c;stroke-width:1.5;"/>
    </defs>
    <g clip-path="url(#pd22d746246)">
     <use style="fill:#e8956e;stroke:#3c3c3c;stroke-width:1.5;" x="0" xlink:href="#m858fae10bb" y="432"/>
    </g>
   </g>
   <g id="PolyCollection_3">
    <defs>
     <path d="M 480.602963 -90.550587 
L 480.597037 -90.550587 
L 480.588468 -93.326182 
L 480.578858 -96.101778 
L 480.581741 -98.877373 
L 480.592566 -101.652969 
L 480.598434 -104.428564 
L 480.597961 -107.20416 
L 480.587543 -109.979756 
L 480.559759 -112.755351 
L 480.533487 -115.530947 
L 480.541998 -118.306542 
L 480.571876 -121.082138 
L 480.582079 -123.857733 
L 480.547383 -126.633329 
L 480.486026 -129.408924 
L 480.47737 -132.18452 
L 480.508475 -134.960115 
L 480.442002 -137.735711 
L 480.271276 -140.511307 
L 480.181251 -143.286902 
L 480.147228 -146.062498 
L 479.886489 -148.838093 
L 479.602872 -151.613689 
L 479.649256 -154.389284 
L 479.565167 -157.16488 
L 479.140155 -159.940475 
L 478.457178 -162.716071 
L 477.469476 -165.491666 
L 477.066082 -168.267262 
L 477.333811 -171.042858 
L 477.279555 -173.818453 
L 476.707275 -176.594049 
L 476.105609 -179.369644 
L 475.720355 -182.14524 
L 475.140787 -184.920835 
L 473.858382 -187.696431 
L 472.140039 -190.472026 
L 471.514382 -193.247622 
L 471.830158 -196.023217 
L 471.020116 -198.798813 
L 469.13818 -201.574408 
L 467.929729 -204.350004 
L 467.988723 -207.1256 
L 468.931937 -209.901195 
L 468.957066 -212.676791 
L 466.948714 -215.452386 
L 465.031097 -218.227982 
L 465.03616 -221.003577 
L 465.261927 -223.779173 
L 465.377227 -226.554768 
L 466.094784 -229.330364 
L 466.08841 -232.105959 
L 465.211944 -234.881555 
L 464.892016 -237.657151 
L 465.557012 -240.432746 
L 466.701008 -243.208342 
L 467.405611 -245.983937 
L 468.110375 -248.759533 
L 469.898314 -251.535128 
L 471.921522 -254.310724 
L 473.301635 -257.086319 
L 474.390208 -259.861915 
L 475.295753 -262.63751 
L 475.964972 -265.413106 
L 476.672141 -268.188701 
L 477.435997 -270.964297 
L 478.099175 -273.739893 
L 478.695221 -276.515488 
L 479.183481 -279.291084 
L 479.449352 -282.066679 
L 479.635494 -284.842275 
L 479.8571 -287.61787 
L 480.054984 -290.393466 
L 480.214647 -293.169061 
L 480.33269 -295.944657 
L 480.403934 -298.720252 
L 480.451121 -301.495848 
L 480.485017 -304.271444 
L 480.50104 -307.047039 
L 480.514947 -309.822635 
L 480.540994 -312.59823 
L 480.569719 -315.373826 
L 480.588744 -318.149421 
L 480.59405 -320.925017 
L 480.591741 -323.700612 
L 480.591309 -326.476208 
L 480.594136 -329.251803 
L 480.597034 -332.027399 
L 480.598997 -334.802994 
L 480.599816 -337.57859 
L 480.599984 -340.354186 
L 480.599999 -343.129781 
L 480.599999 -345.905377 
L 480.599984 -348.680972 
L 480.599822 -351.456568 
L 480.599071 -354.232163 
L 480.597718 -357.007759 
L 480.597357 -359.783354 
L 480.598558 -362.55895 
L 480.59963 -365.334545 
L 480.60037 -365.334545 
L 480.60037 -365.334545 
L 480.601442 -362.55895 
L 480.602643 -359.783354 
L 480.602282 -357.007759 
L 480.600929 -354.232163 
L 480.600178 -351.456568 
L 480.600016 -348.680972 
L 480.600001 -345.905377 
L 480.600001 -343.129781 
L 480.600016 -340.354186 
L 480.600184 -337.57859 
L 480.601003 -334.802994 
L 480.602966 -332.027399 
L 480.605864 -329.251803 
L 480.608691 -326.476208 
L 480.608259 -323.700612 
L 480.60595 -320.925017 
L 480.611256 -318.149421 
L 480.630281 -315.373826 
L 480.659006 -312.59823 
L 480.685053 -309.822635 
L 480.69896 -307.047039 
L 480.714983 -304.271444 
L 480.748879 -301.495848 
L 480.796066 -298.720252 
L 480.86731 -295.944657 
L 480.985353 -293.169061 
L 481.145016 -290.393466 
L 481.3429 -287.61787 
L 481.564506 -284.842275 
L 481.750648 -282.066679 
L 482.016519 -279.291084 
L 482.504779 -276.515488 
L 483.100825 -273.739893 
L 483.764003 -270.964297 
L 484.527859 -268.188701 
L 485.235028 -265.413106 
L 485.904247 -262.63751 
L 486.809792 -259.861915 
L 487.898365 -257.086319 
L 489.278478 -254.310724 
L 491.301686 -251.535128 
L 493.089625 -248.759533 
L 493.794389 -245.983937 
L 494.498992 -243.208342 
L 495.642988 -240.432746 
L 496.307984 -237.657151 
L 495.988056 -234.881555 
L 495.11159 -232.105959 
L 495.105216 -229.330364 
L 495.822773 -226.554768 
L 495.938073 -223.779173 
L 496.16384 -221.003577 
L 496.168903 -218.227982 
L 494.251286 -215.452386 
L 492.242934 -212.676791 
L 492.268063 -209.901195 
L 493.211277 -207.1256 
L 493.270271 -204.350004 
L 492.06182 -201.574408 
L 490.179884 -198.798813 
L 489.369842 -196.023217 
L 489.685618 -193.247622 
L 489.059961 -190.472026 
L 487.341618 -187.696431 
L 486.059213 -184.920835 
L 485.479645 -182.14524 
L 485.094391 -179.369644 
L 484.492725 -176.594049 
L 483.920445 -173.818453 
L 483.866189 -171.042858 
L 484.133918 -168.267262 
L 483.730524 -165.491666 
L 482.742822 -162.716071 
L 482.059845 -159.940475 
L 481.634833 -157.16488 
L 481.550744 -154.389284 
L 481.597128 -151.613689 
L 481.313511 -148.838093 
L 481.052772 -146.062498 
L 481.018749 -143.286902 
L 480.928724 -140.511307 
L 480.757998 -137.735711 
L 480.691525 -134.960115 
L 480.72263 -132.18452 
L 480.713974 -129.408924 
L 480.652617 -126.633329 
L 480.617921 -123.857733 
L 480.628124 -121.082138 
L 480.658002 -118.306542 
L 480.666513 -115.530947 
L 480.640241 -112.755351 
L 480.612457 -109.979756 
L 480.602039 -107.20416 
L 480.601566 -104.428564 
L 480.607434 -101.652969 
L 480.618259 -98.877373 
L 480.621142 -96.101778 
L 480.611532 -93.326182 
L 480.602963 -90.550587 
z
" id="mc716abd55d" style="stroke:#3c3c3c;stroke-width:1.5;"/>
    </defs>
    <g clip-path="url(#pd22d746246)">
     <use style="fill:#efc49b;stroke:#3c3c3c;stroke-width:1.5;" x="0" xlink:href="#mc716abd55d" y="432"/>
    </g>
   </g>
   <g id="PolyCollection_4">
    <defs>
     <path d="M 592.725114 -68.825455 
L 591.674886 -68.825455 
L 591.606254 -71.166651 
L 591.531208 -73.507848 
L 591.44954 -75.849045 
L 591.361092 -78.190241 
L 591.265766 -80.531438 
L 591.163531 -82.872635 
L 591.05443 -85.213832 
L 590.938583 -87.555028 
L 590.816197 -89.896225 
L 590.687565 -92.237422 
L 590.553067 -94.578619 
L 590.413175 -96.919815 
L 590.268442 -99.261012 
L 590.119505 -101.602209 
L 589.967073 -103.943405 
L 589.811917 -106.284602 
L 589.654862 -108.625799 
L 589.49677 -110.966996 
L 589.338523 -113.308192 
L 589.181006 -115.649389 
L 589.025091 -117.990586 
L 588.871611 -120.331783 
L 588.721347 -122.672979 
L 588.574999 -125.014176 
L 588.433175 -127.355373 
L 588.29637 -129.696569 
L 588.164949 -132.037766 
L 588.039134 -134.378963 
L 587.918996 -136.72016 
L 587.80445 -139.061356 
L 587.695248 -141.402553 
L 587.590985 -143.74375 
L 587.491109 -146.084947 
L 587.394924 -148.426143 
L 587.301617 -150.76734 
L 587.210271 -153.108537 
L 587.119896 -155.449733 
L 587.02945 -157.79093 
L 586.937881 -160.132127 
L 586.844148 -162.473324 
L 586.747268 -164.81452 
L 586.646342 -167.155717 
L 586.540594 -169.496914 
L 586.4294 -171.838111 
L 586.312323 -174.179307 
L 586.189135 -176.520504 
L 586.059839 -178.861701 
L 585.924688 -181.202898 
L 585.78419 -183.544094 
L 585.639118 -185.885291 
L 585.490499 -188.226488 
L 585.339613 -190.567684 
L 585.187968 -192.908881 
L 585.037279 -195.250078 
L 584.88944 -197.591275 
L 584.746486 -199.932471 
L 584.610557 -202.273668 
L 584.483847 -204.614865 
L 584.368569 -206.956062 
L 584.266896 -209.297258 
L 584.180923 -211.638455 
L 584.112615 -213.979652 
L 584.063768 -216.320848 
L 584.035964 -218.662045 
L 584.030537 -221.003242 
L 584.048544 -223.344439 
L 584.090741 -225.685635 
L 584.157563 -228.026832 
L 584.249118 -230.368029 
L 584.365181 -232.709226 
L 584.505201 -235.050422 
L 584.668312 -237.391619 
L 584.853348 -239.732816 
L 585.058874 -242.074012 
L 585.283209 -244.415209 
L 585.524463 -246.756406 
L 585.780572 -249.097603 
L 586.049342 -251.438799 
L 586.328482 -253.779996 
L 586.615654 -256.121193 
L 586.908505 -258.46239 
L 587.20471 -260.803586 
L 587.502009 -263.144783 
L 587.798237 -265.48598 
L 588.091353 -267.827176 
L 588.379466 -270.168373 
L 588.660857 -272.50957 
L 588.933991 -274.850767 
L 589.19753 -277.191963 
L 589.450338 -279.53316 
L 589.691484 -281.874357 
L 589.920241 -284.215554 
L 590.136074 -286.55675 
L 590.33864 -288.897947 
L 590.527768 -291.239144 
L 590.70345 -293.58034 
L 590.865823 -295.921537 
L 591.015153 -298.262734 
L 591.151819 -300.603931 
L 593.248181 -300.603931 
L 593.248181 -300.603931 
L 593.384847 -298.262734 
L 593.534177 -295.921537 
L 593.69655 -293.58034 
L 593.872232 -291.239144 
L 594.06136 -288.897947 
L 594.263926 -286.55675 
L 594.479759 -284.215554 
L 594.708516 -281.874357 
L 594.949662 -279.53316 
L 595.20247 -277.191963 
L 595.466009 -274.850767 
L 595.739143 -272.50957 
L 596.020534 -270.168373 
L 596.308647 -267.827176 
L 596.601763 -265.48598 
L 596.897991 -263.144783 
L 597.19529 -260.803586 
L 597.491495 -258.46239 
L 597.784346 -256.121193 
L 598.071518 -253.779996 
L 598.350658 -251.438799 
L 598.619428 -249.097603 
L 598.875537 -246.756406 
L 599.116791 -244.415209 
L 599.341126 -242.074012 
L 599.546652 -239.732816 
L 599.731688 -237.391619 
L 599.894799 -235.050422 
L 600.034819 -232.709226 
L 600.150882 -230.368029 
L 600.242437 -228.026832 
L 600.309259 -225.685635 
L 600.351456 -223.344439 
L 600.369463 -221.003242 
L 600.364036 -218.662045 
L 600.336232 -216.320848 
L 600.287385 -213.979652 
L 600.219077 -211.638455 
L 600.133104 -209.297258 
L 600.031431 -206.956062 
L 599.916153 -204.614865 
L 599.789443 -202.273668 
L 599.653514 -199.932471 
L 599.51056 -197.591275 
L 599.362721 -195.250078 
L 599.212032 -192.908881 
L 599.060387 -190.567684 
L 598.909501 -188.226488 
L 598.760882 -185.885291 
L 598.61581 -183.544094 
L 598.475312 -181.202898 
L 598.340161 -178.861701 
L 598.210865 -176.520504 
L 598.087677 -174.179307 
L 597.9706 -171.838111 
L 597.859406 -169.496914 
L 597.753658 -167.155717 
L 597.652732 -164.81452 
L 597.555852 -162.473324 
L 597.462119 -160.132127 
L 597.37055 -157.79093 
L 597.280104 -155.449733 
L 597.189729 -153.108537 
L 597.098383 -150.76734 
L 597.005076 -148.426143 
L 596.908891 -146.084947 
L 596.809015 -143.74375 
L 596.704752 -141.402553 
L 596.59555 -139.061356 
L 596.481004 -136.72016 
L 596.360866 -134.378963 
L 596.235051 -132.037766 
L 596.10363 -129.696569 
L 595.966825 -127.355373 
L 595.825001 -125.014176 
L 595.678653 -122.672979 
L 595.528389 -120.331783 
L 595.374909 -117.990586 
L 595.218994 -115.649389 
L 595.061477 -113.308192 
L 594.90323 -110.966996 
L 594.745138 -108.625799 
L 594.588083 -106.284602 
L 594.432927 -103.943405 
L 594.280495 -101.602209 
L 594.131558 -99.261012 
L 593.986825 -96.919815 
L 593.846933 -94.578619 
L 593.712435 -92.237422 
L 593.583803 -89.896225 
L 593.461417 -87.555028 
L 593.34557 -85.213832 
L 593.236469 -82.872635 
L 593.134234 -80.531438 
L 593.038908 -78.190241 
L 592.95046 -75.849045 
L 592.868792 -73.507848 
L 592.793746 -71.166651 
L 592.725114 -68.825455 
z
" id="m75a0cb03fd" style="stroke:#3c3c3c;stroke-width:1.5;"/>
    </defs>
    <g clip-path="url(#pd22d746246)">
     <use style="fill:#f5e0c3;stroke:#3c3c3c;stroke-width:1.5;" x="0" xlink:href="#m75a0cb03fd" y="432"/>
    </g>
   </g>
   <g id="line2d_7">
    <path clip-path="url(#pd22d746246)" d="M 101.16 180.478594 
L 190.44 180.478594 
" style="fill:none;stroke:#3c3c3c;stroke-linecap:round;stroke-width:1.5;"/>
   </g>
   <g id="line2d_8">
    <path clip-path="url(#pd22d746246)" d="M 257.4 196.197821 
L 257.4 164.759367 
" style="fill:none;stroke:#3c3c3c;stroke-linecap:round;stroke-width:1.5;"/>
   </g>
   <g id="line2d_9">
    <path clip-path="url(#pd22d746246)" d="M 257.4 190.958078 
L 257.4 175.238852 
" style="fill:none;stroke:#3c3c3c;stroke-linecap:round;stroke-width:4.5;"/>
   </g>
   <g id="line2d_10">
    <path clip-path="url(#pd22d746246)" d="M 369 196.197821 
L 369 180.478594 
" style="fill:none;stroke:#3c3c3c;stroke-linecap:round;stroke-width:1.5;"/>
   </g>
   <g id="line2d_11">
    <path clip-path="url(#pd22d746246)" d="M 369 196.197821 
L 369 180.478594 
" style="fill:none;stroke:#3c3c3c;stroke-linecap:round;stroke-width:4.5;"/>
   </g>
   <g id="line2d_12">
    <path clip-path="url(#pd22d746246)" d="M 480.6 282.653568 
L 480.6 135.940785 
" style="fill:none;stroke:#3c3c3c;stroke-linecap:round;stroke-width:1.5;"/>
   </g>
   <g id="line2d_13">
    <path clip-path="url(#pd22d746246)" d="M 480.6 227.636274 
L 480.6 190.958078 
" style="fill:none;stroke:#3c3c3c;stroke-linecap:round;stroke-width:4.5;"/>
   </g>
   <g id="line2d_14">
    <path clip-path="url(#pd22d746246)" d="M 592.2 287.89331 
L 592.2 206.677305 
" style="fill:none;stroke:#3c3c3c;stroke-linecap:round;stroke-width:1.5;"/>
   </g>
   <g id="line2d_15">
    <path clip-path="url(#pd22d746246)" d="M 592.2 247.285307 
L 592.2 206.677305 
" style="fill:none;stroke:#3c3c3c;stroke-linecap:round;stroke-width:4.5;"/>
   </g>
   <g id="patch_3">
    <path d="M 90 378 
L 90 51.84 
" style="fill:none;stroke:#ffffff;stroke-linecap:square;stroke-linejoin:miter;stroke-width:0.8;"/>
   </g>
   <g id="patch_4">
    <path d="M 648 378 
L 648 51.84 
" style="fill:none;stroke:#ffffff;stroke-linecap:square;stroke-linejoin:miter;stroke-width:0.8;"/>
   </g>
   <g id="patch_5">
    <path d="M 90 378 
L 648 378 
" style="fill:none;stroke:#ffffff;stroke-linecap:square;stroke-linejoin:miter;stroke-width:0.8;"/>
   </g>
   <g id="patch_6">
    <path d="M 90 51.84 
L 648 51.84 
" style="fill:none;stroke:#ffffff;stroke-linecap:square;stroke-linejoin:miter;stroke-width:0.8;"/>
   </g>
   <g id="PathCollection_1">
    <defs>
     <path d="M 0 1.5 
C 0.397805 1.5 0.77937 1.341951 1.06066 1.06066 
C 1.341951 0.77937 1.5 0.397805 1.5 0 
C 1.5 -0.397805 1.341951 -0.77937 1.06066 -1.06066 
C 0.77937 -1.341951 0.397805 -1.5 0 -1.5 
C -0.397805 -1.5 -0.77937 -1.341951 -1.06066 -1.06066 
C -1.341951 -0.77937 -1.5 -0.397805 -1.5 0 
C -1.5 0.397805 -1.341951 0.77937 -1.06066 1.06066 
C -0.77937 1.341951 -0.397805 1.5 0 1.5 
z
" id="m56f8cda3f4" style="stroke:#3c3c3c;"/>
    </defs>
    <g clip-path="url(#pd22d746246)">
     <use style="fill:#ffffff;stroke:#3c3c3c;" x="257.4" xlink:href="#m56f8cda3f4" y="188.338207"/>
    </g>
   </g>
   <g id="PathCollection_2">
    <g clip-path="url(#pd22d746246)">
     <use style="fill:#ffffff;stroke:#3c3c3c;" x="369" xlink:href="#m56f8cda3f4" y="196.197821"/>
    </g>
   </g>
   <g id="PathCollection_3">
    <g clip-path="url(#pd22d746246)">
     <use style="fill:#ffffff;stroke:#3c3c3c;" x="480.6" xlink:href="#m56f8cda3f4" y="206.677305"/>
    </g>
   </g>
   <g id="PathCollection_4">
    <g clip-path="url(#pd22d746246)">
     <use style="fill:#ffffff;stroke:#3c3c3c;" x="592.2" xlink:href="#m56f8cda3f4" y="206.677305"/>
    </g>
   </g>
  </g>
 </g>
 <defs>
  <clipPath id="pd22d746246">
   <rect height="326.16" width="558" x="90" y="51.84"/>
  </clipPath>
 </defs>
</svg>
