<?xml version="1.0" encoding="utf-8" standalone="no"?>
<!DOCTYPE svg PUBLIC "-//W3C//DTD SVG 1.1//EN"
  "http://www.w3.org/Graphics/SVG/1.1/DTD/svg11.dtd">
<!-- Created with matplotlib (https://matplotlib.org/) -->
<svg height="135pt" version="1.1" viewBox="0 0 576 135" width="576pt" xmlns="http://www.w3.org/2000/svg" xmlns:xlink="http://www.w3.org/1999/xlink">
 <metadata>
  <rdf:RDF xmlns:cc="http://creativecommons.org/ns#" xmlns:dc="http://purl.org/dc/elements/1.1/" xmlns:rdf="http://www.w3.org/1999/02/22-rdf-syntax-ns#">
   <cc:Work>
    <dc:type rdf:resource="http://purl.org/dc/dcmitype/StillImage"/>
    <dc:date>2021-01-30T10:00:25.444430</dc:date>
    <dc:format>image/svg+xml</dc:format>
    <dc:creator>
     <cc:Agent>
      <dc:title>Matplotlib v3.3.0, https://matplotlib.org/</dc:title>
     </cc:Agent>
    </dc:creator>
   </cc:Work>
  </rdf:RDF>
 </metadata>
 <defs>
  <style type="text/css">*{stroke-linecap:butt;stroke-linejoin:round;}</style>
 </defs>
 <g id="figure_1">
  <g id="patch_1">
   <path d="M 0 135 
L 576 135 
L 576 0 
L 0 0 
z
" style="fill:#ffffff;"/>
  </g>
  <g id="axes_1">
   <g id="table_1">
    <g id="patch_2">
     <path d="M 72 50.175 
L 183.6 50.175 
L 183.6 16.2 
L 72 16.2 
z
" style="fill:#f1f1f2;stroke:#ffffff;stroke-linejoin:miter;"/>
    </g>
    <g id="text_1">
     <!-- 0 -->
     <g style="fill:#262626;" transform="translate(123.907344 36.816563)scale(0.14 -0.14)">
      <defs>
       <path d="M 27.4375 71.875 
Q 37.84375 71.875 43.703125 64.453125 
Q 50.6875 55.671875 50.6875 35.296875 
Q 50.6875 14.984375 43.65625 6.109375 
Q 37.84375 -1.21875 27.4375 -1.21875 
Q 17 -1.21875 10.59375 6.8125 
Q 4.203125 14.84375 4.203125 35.453125 
Q 4.203125 55.671875 11.234375 64.546875 
Q 17.046875 71.875 27.4375 71.875 
z
M 27.4375 60.5 
Q 24.953125 60.5 23 58.90625 
Q 21.046875 57.328125 19.96875 53.21875 
Q 18.5625 47.90625 18.5625 35.296875 
Q 18.5625 22.703125 19.828125 17.984375 
Q 21.09375 13.28125 23.015625 11.71875 
Q 24.953125 10.15625 27.4375 10.15625 
Q 29.9375 10.15625 31.890625 11.734375 
Q 33.84375 13.328125 34.90625 17.4375 
Q 36.328125 22.703125 36.328125 35.296875 
Q 36.328125 47.90625 35.0625 52.609375 
Q 33.796875 57.328125 31.859375 58.90625 
Q 29.9375 60.5 27.4375 60.5 
z
" id="Arial-BoldMT-48"/>
      </defs>
      <use xlink:href="#Arial-BoldMT-48"/>
     </g>
    </g>
    <g id="patch_3">
     <path d="M 183.6 50.175 
L 295.2 50.175 
L 295.2 16.2 
L 183.6 16.2 
z
" style="fill:#f1f1f2;stroke:#ffffff;stroke-linejoin:miter;"/>
    </g>
    <g id="text_2">
     <!-- 1 -->
     <g style="fill:#262626;" transform="translate(235.507344 36.816563)scale(0.14 -0.14)">
      <defs>
       <path d="M 39.359375 0 
L 25.640625 0 
L 25.640625 51.703125 
Q 18.109375 44.671875 7.90625 41.3125 
L 7.90625 53.765625 
Q 13.28125 55.515625 19.578125 60.421875 
Q 25.875 65.328125 28.21875 71.875 
L 39.359375 71.875 
z
" id="Arial-BoldMT-49"/>
      </defs>
      <use xlink:href="#Arial-BoldMT-49"/>
     </g>
    </g>
    <g id="patch_4">
     <path d="M 295.2 50.175 
L 406.8 50.175 
L 406.8 16.2 
L 295.2 16.2 
z
" style="fill:#f1f1f2;stroke:#ffffff;stroke-linejoin:miter;"/>
    </g>
    <g id="text_3">
     <!-- 2 -->
     <g style="fill:#262626;" transform="translate(347.107344 36.816563)scale(0.14 -0.14)">
      <defs>
       <path d="M 50.59375 12.75 
L 50.59375 0 
L 2.484375 0 
Q 3.265625 7.234375 7.171875 13.703125 
Q 11.078125 20.171875 22.609375 30.859375 
Q 31.890625 39.5 33.984375 42.578125 
Q 36.8125 46.828125 36.8125 50.984375 
Q 36.8125 55.5625 34.34375 58.03125 
Q 31.890625 60.5 27.546875 60.5 
Q 23.25 60.5 20.703125 57.90625 
Q 18.171875 55.328125 17.78125 49.3125 
L 4.109375 50.6875 
Q 5.328125 62.015625 11.765625 66.9375 
Q 18.21875 71.875 27.875 71.875 
Q 38.484375 71.875 44.53125 66.15625 
Q 50.59375 60.453125 50.59375 51.953125 
Q 50.59375 47.125 48.859375 42.75 
Q 47.125 38.375 43.359375 33.59375 
Q 40.875 30.421875 34.375 24.453125 
Q 27.875 18.5 26.140625 16.546875 
Q 24.421875 14.59375 23.34375 12.75 
z
" id="Arial-BoldMT-50"/>
      </defs>
      <use xlink:href="#Arial-BoldMT-50"/>
     </g>
    </g>
    <g id="patch_5">
     <path d="M 406.8 50.175 
L 518.4 50.175 
L 518.4 16.2 
L 406.8 16.2 
z
" style="fill:#f1f1f2;stroke:#ffffff;stroke-linejoin:miter;"/>
    </g>
    <g id="text_4">
     <!-- 3 -->
     <g style="fill:#262626;" transform="translate(458.707344 36.816563)scale(0.14 -0.14)">
      <defs>
       <path d="M 3.765625 19 
L 17.046875 20.609375 
Q 17.671875 15.53125 20.453125 12.84375 
Q 23.25 10.15625 27.203125 10.15625 
Q 31.453125 10.15625 34.34375 13.375 
Q 37.25 16.609375 37.25 22.078125 
Q 37.25 27.25 34.46875 30.265625 
Q 31.6875 33.296875 27.6875 33.296875 
Q 25.046875 33.296875 21.390625 32.28125 
L 22.90625 43.453125 
Q 28.46875 43.3125 31.390625 45.875 
Q 34.328125 48.4375 34.328125 52.6875 
Q 34.328125 56.296875 32.171875 58.4375 
Q 30.03125 60.59375 26.46875 60.59375 
Q 22.953125 60.59375 20.453125 58.15625 
Q 17.96875 55.71875 17.4375 51.03125 
L 4.78125 53.171875 
Q 6.109375 59.671875 8.765625 63.546875 
Q 11.421875 67.4375 16.1875 69.65625 
Q 20.953125 71.875 26.859375 71.875 
Q 36.96875 71.875 43.0625 65.4375 
Q 48.09375 60.15625 48.09375 53.515625 
Q 48.09375 44.09375 37.796875 38.484375 
Q 43.953125 37.15625 47.625 32.5625 
Q 51.3125 27.984375 51.3125 21.484375 
Q 51.3125 12.0625 44.421875 5.421875 
Q 37.546875 -1.21875 27.296875 -1.21875 
Q 17.578125 -1.21875 11.171875 4.375 
Q 4.78125 9.96875 3.765625 19 
z
" id="Arial-BoldMT-51"/>
      </defs>
      <use xlink:href="#Arial-BoldMT-51"/>
     </g>
    </g>
    <g id="patch_6">
     <path d="M 72 84.15 
L 183.6 84.15 
L 183.6 50.175 
L 72 50.175 
z
" style="fill:#ffffff;stroke:#ffffff;stroke-linejoin:miter;"/>
    </g>
    <g id="text_5">
     <!-- 0 -->
     <g style="fill:#262626;" transform="translate(164.654687 70.781719)scale(0.14 -0.14)">
      <defs>
       <path d="M 4.15625 35.296875 
Q 4.15625 48 6.765625 55.734375 
Q 9.375 63.484375 14.515625 67.671875 
Q 19.671875 71.875 27.484375 71.875 
Q 33.25 71.875 37.59375 69.546875 
Q 41.9375 67.234375 44.765625 62.859375 
Q 47.609375 58.5 49.21875 52.21875 
Q 50.828125 45.953125 50.828125 35.296875 
Q 50.828125 22.703125 48.234375 14.96875 
Q 45.65625 7.234375 40.5 3 
Q 35.359375 -1.21875 27.484375 -1.21875 
Q 17.140625 -1.21875 11.234375 6.203125 
Q 4.15625 15.140625 4.15625 35.296875 
z
M 13.1875 35.296875 
Q 13.1875 17.671875 17.3125 11.828125 
Q 21.4375 6 27.484375 6 
Q 33.546875 6 37.671875 11.859375 
Q 41.796875 17.71875 41.796875 35.296875 
Q 41.796875 52.984375 37.671875 58.78125 
Q 33.546875 64.59375 27.390625 64.59375 
Q 21.34375 64.59375 17.71875 59.46875 
Q 13.1875 52.9375 13.1875 35.296875 
z
" id="ArialMT-48"/>
      </defs>
      <use xlink:href="#ArialMT-48"/>
     </g>
    </g>
    <g id="patch_7">
     <path d="M 183.6 84.15 
L 295.2 84.15 
L 295.2 50.175 
L 183.6 50.175 
z
" style="fill:#ffffff;stroke:#ffffff;stroke-linejoin:miter;"/>
    </g>
    <g id="text_6">
     <!-- 1 -->
     <g style="fill:#262626;" transform="translate(276.254687 70.781719)scale(0.14 -0.14)">
      <defs>
       <path d="M 37.25 0 
L 28.46875 0 
L 28.46875 56 
Q 25.296875 52.984375 20.140625 49.953125 
Q 14.984375 46.921875 10.890625 45.40625 
L 10.890625 53.90625 
Q 18.265625 57.375 23.78125 62.296875 
Q 29.296875 67.234375 31.59375 71.875 
L 37.25 71.875 
z
" id="ArialMT-49"/>
      </defs>
      <use xlink:href="#ArialMT-49"/>
     </g>
    </g>
    <g id="patch_8">
     <path d="M 295.2 84.15 
L 406.8 84.15 
L 406.8 50.175 
L 295.2 50.175 
z
" style="fill:#ffffff;stroke:#ffffff;stroke-linejoin:miter;"/>
    </g>
    <g id="text_7">
     <!-- 1 -->
     <g style="fill:#262626;" transform="translate(387.854688 70.781719)scale(0.14 -0.14)">
      <use xlink:href="#ArialMT-49"/>
     </g>
    </g>
    <g id="patch_9">
     <path d="M 406.8 84.15 
L 518.4 84.15 
L 518.4 50.175 
L 406.8 50.175 
z
" style="fill:#ffffff;stroke:#ffffff;stroke-linejoin:miter;"/>
    </g>
    <g id="text_8">
     <!-- 1 -->
     <g style="fill:#262626;" transform="translate(499.454688 70.781719)scale(0.14 -0.14)">
      <use xlink:href="#ArialMT-49"/>
     </g>
    </g>
    <g id="patch_10">
     <path d="M 72 118.125 
L 183.6 118.125 
L 183.6 84.15 
L 72 84.15 
z
" style="fill:#ffffff;stroke:#ffffff;stroke-linejoin:miter;"/>
    </g>
    <g id="text_9">
     <!-- 1 -->
     <g style="fill:#262626;" transform="translate(164.654687 104.756719)scale(0.14 -0.14)">
      <use xlink:href="#ArialMT-49"/>
     </g>
    </g>
    <g id="patch_11">
     <path d="M 183.6 118.125 
L 295.2 118.125 
L 295.2 84.15 
L 183.6 84.15 
z
" style="fill:#ffffff;stroke:#ffffff;stroke-linejoin:miter;"/>
    </g>
    <g id="text_10">
     <!-- 0 -->
     <g style="fill:#262626;" transform="translate(276.254687 104.756719)scale(0.14 -0.14)">
      <use xlink:href="#ArialMT-48"/>
     </g>
    </g>
    <g id="patch_12">
     <path d="M 295.2 118.125 
L 406.8 118.125 
L 406.8 84.15 
L 295.2 84.15 
z
" style="fill:#ffffff;stroke:#ffffff;stroke-linejoin:miter;"/>
    </g>
    <g id="text_11">
     <!-- 1 -->
     <g style="fill:#262626;" transform="translate(387.854688 104.756719)scale(0.14 -0.14)">
      <use xlink:href="#ArialMT-49"/>
     </g>
    </g>
    <g id="patch_13">
     <path d="M 406.8 118.125 
L 518.4 118.125 
L 518.4 84.15 
L 406.8 84.15 
z
" style="fill:#ffffff;stroke:#ffffff;stroke-linejoin:miter;"/>
    </g>
    <g id="text_12">
     <!-- 1 -->
     <g style="fill:#262626;" transform="translate(499.454688 104.756719)scale(0.14 -0.14)">
      <use xlink:href="#ArialMT-49"/>
     </g>
    </g>
   </g>
  </g>
 </g>
</svg>
